if (_typeface_js && _typeface_js.loadFace) _typeface_js.loadFace({"glyphs":{"\u0000":{"x_min":109.875,"x_max":709.421875,"ha":819,"o":"m 109 16 l 109 965 q 124 982 109 982 l 693 982 q 709 965 709 982 l 709 16 q 693 0 709 0 l 124 0 q 109 16 109 0 m 234 46 q 249 30 234 30 l 569 30 q 584 46 584 30 l 584 935 q 569 951 584 951 l 249 951 q 234 935 234 951 l 234 46 "},"Ő":{"x_min":52.21875,"x_max":1009.875,"ha":1056,"o":"m 620 1014 q 627 1026 620 1019 q 747 1239 737 1145 q 755 1251 749 1251 q 766 1246 759 1251 l 857 1180 q 864 1170 864 1175 q 860 1158 864 1164 q 710 1032 804 1084 q 635 999 650 999 q 620 1014 620 999 m 422 1014 q 429 1026 422 1019 q 549 1239 539 1145 q 557 1251 551 1251 q 568 1246 561 1251 l 659 1180 q 666 1170 666 1175 q 662 1158 666 1164 q 512 1032 606 1084 q 437 999 452 999 q 422 1014 422 999 m 52 137 q 63 157 52 147 q 243 247 160 247 q 400 184 327 247 q 652 59 545 59 q 833 126 761 59 q 904 336 904 193 q 605 786 904 655 q 427 830 504 830 q 333 809 379 830 q 217 657 217 752 q 330 548 217 592 q 484 397 484 488 q 408 255 484 335 q 386 244 398 244 q 368 260 368 244 q 376 277 368 269 q 383 294 383 286 q 255 380 383 330 q 75 591 75 449 q 316 843 75 732 q 482 975 425 893 q 519 997 498 997 q 688 950 579 997 q 1009 459 1009 811 q 849 88 1009 240 q 526 -30 723 -30 q 268 54 373 -30 q 115 139 164 139 q 89 130 99 139 q 70 121 80 121 q 52 137 52 121 "},"Ž":{"x_min":14.921875,"x_max":872.875,"ha":919,"o":"m 691 1235 q 683 1220 691 1228 l 514 1035 q 502 1028 508 1028 q 493 1039 497 1028 q 333 1221 461 1137 q 323 1236 323 1228 q 337 1249 323 1249 q 531 1179 408 1249 q 557 1170 547 1170 q 578 1174 568 1170 q 659 1239 611 1188 q 676 1249 668 1249 q 691 1235 691 1249 m 14 0 q 25 17 14 8 q 200 106 124 106 q 379 -2 276 106 q 568 -111 482 -111 q 668 -88 633 -111 q 741 88 741 -37 q 648 289 741 189 q 449 389 555 389 q 366 375 406 389 q 355 373 360 373 q 335 394 335 373 q 352 411 335 405 q 672 665 672 516 q 635 759 672 716 q 437 851 556 851 q 265 798 318 851 q 212 689 212 746 q 243 589 212 631 q 333 548 274 548 q 358 529 358 548 q 333 510 358 510 q 194 559 246 510 q 142 709 142 609 q 238 904 142 810 q 504 997 335 997 q 763 893 674 997 q 821 729 821 826 q 666 505 821 604 q 657 494 657 499 q 669 485 657 489 q 802 393 732 467 q 872 174 872 318 q 689 -118 872 7 q 455 -199 572 -199 q 217 -99 311 -199 q 78 0 124 0 q 53 -9 63 0 q 34 -18 42 -18 q 14 0 14 -18 "},"Á":{"x_min":21.703125,"x_max":1066.171875,"ha":1066,"o":"m 684 967 q 691 979 684 972 q 811 1192 801 1098 q 819 1204 813 1204 q 830 1199 823 1204 l 921 1133 q 928 1123 928 1128 q 924 1111 928 1117 q 774 985 868 1037 q 699 952 714 952 q 684 967 684 952 m 21 666 q 83 851 21 761 q 346 997 183 997 q 594 902 509 997 q 671 686 671 817 q 398 275 671 491 q 382 253 382 262 q 412 237 382 241 q 522 165 465 229 q 635 100 578 100 q 704 134 672 100 q 773 309 773 208 l 773 797 q 752 822 773 822 q 731 839 731 822 q 749 862 731 857 q 991 990 868 893 q 1010 997 1001 997 q 1026 981 1026 997 q 1015 960 1026 970 q 927 803 927 885 l 927 204 q 981 101 927 101 q 1028 130 1000 101 q 1048 139 1038 139 q 1066 122 1066 139 q 1058 105 1066 113 l 978 23 q 897 -13 941 -13 q 780 103 795 -13 q 764 129 777 129 q 732 109 752 129 q 514 -13 613 -13 q 362 66 432 -13 q 246 147 293 147 q 202 132 224 147 q 183 126 193 126 q 167 143 167 126 q 180 163 167 154 q 518 600 518 381 q 448 788 518 710 q 255 894 354 894 q 115 830 157 894 q 80 726 80 778 q 202 594 80 644 q 333 465 333 540 q 255 336 333 414 q 238 327 246 327 q 219 347 219 327 q 229 364 219 355 q 247 397 247 380 q 154 475 247 436 q 21 666 21 531 m 991 990 l 991 990 "},"ĥ":{"x_min":23.734375,"x_max":617.1875,"ha":663,"o":"m 24 1043 q 35 1058 24 1051 q 195 1240 162 1142 q 204 1251 198 1251 q 216 1244 210 1251 l 385 1059 q 392 1044 392 1051 q 377 1030 392 1030 q 361 1040 370 1030 q 279 1105 312 1091 q 259 1109 269 1109 q 233 1100 248 1109 q 39 1030 109 1030 q 24 1043 24 1030 m 23 914 q 37 927 23 927 q 107 844 53 927 q 122 832 115 832 q 135 843 129 832 q 385 982 226 982 q 411 966 411 982 q 385 951 411 951 q 247 779 247 951 l 247 612 q 251 600 247 600 q 261 604 256 600 l 411 714 q 435 726 426 726 q 443 714 443 726 q 480 660 443 696 q 617 321 617 528 q 177 -261 617 50 q 158 -267 169 -267 q 147 -253 147 -267 q 156 -238 147 -246 q 480 245 480 34 q 379 567 480 457 q 327 600 349 600 q 294 591 306 600 l 258 564 q 247 541 247 556 l 247 180 q 294 131 247 131 q 343 164 311 131 q 358 174 352 174 q 374 160 374 174 q 366 144 374 153 q 262 -4 295 61 q 250 -13 257 -13 q 233 -4 242 -13 q 69 98 147 88 q 57 107 57 99 q 65 120 57 115 q 109 198 109 144 l 109 683 q 31 896 109 817 q 23 914 23 904 "},"Î":{"x_min":73.25,"x_max":854.5625,"ha":898,"o":"m 271 1044 q 279 1059 271 1051 l 448 1244 q 460 1251 454 1251 q 469 1240 465 1251 q 629 1058 501 1142 q 639 1043 639 1051 q 625 1030 639 1030 q 431 1100 554 1030 q 405 1109 415 1109 q 384 1105 394 1109 q 303 1040 351 1091 q 286 1030 294 1030 q 271 1044 271 1030 m 73 166 q 84 185 73 174 q 258 269 183 269 q 415 155 333 269 q 572 40 497 40 q 698 90 647 40 q 732 166 732 122 q 632 352 732 242 q 563 513 563 427 q 659 699 563 598 q 670 716 670 710 q 648 726 670 726 q 501 800 562 726 q 357 874 440 874 q 221 816 274 874 q 169 689 169 758 q 210 568 169 620 q 323 516 251 516 q 434 545 394 516 q 453 553 444 553 q 471 535 471 553 q 456 514 471 525 q 310 474 403 474 q 160 538 217 474 q 103 718 103 602 q 200 916 103 834 q 437 997 298 997 q 652 906 576 997 q 783 815 728 815 q 818 826 802 815 q 835 832 828 832 q 854 811 854 832 q 840 794 854 803 q 708 613 708 713 q 780 464 708 541 q 851 301 851 386 q 725 63 851 188 q 475 -30 629 -30 q 250 69 321 -30 q 139 168 179 168 q 111 158 122 168 q 90 148 100 148 q 73 166 73 148 "},"e":{"x_min":46.125,"x_max":477.46875,"ha":517,"o":"m 46 370 q 227 672 46 593 q 365 713 322 713 q 372 708 370 713 l 468 466 q 470 458 470 462 q 459 444 470 449 l 194 339 q 182 326 182 335 q 183 319 182 322 q 210 232 191 268 q 360 115 273 115 q 449 143 395 115 q 463 147 459 147 q 477 131 477 147 q 465 117 477 124 q 267 -4 364 61 q 247 -13 255 -13 q 235 2 240 -13 q 215 29 231 18 q 46 370 46 139 m 174 436 q 177 375 174 389 q 182 368 178 368 q 190 370 185 368 l 322 423 q 331 435 331 427 q 329 443 331 438 l 252 638 q 244 644 249 644 q 240 644 242 644 q 174 436 174 619 "},"»":{"x_min":80.03125,"x_max":592,"ha":641,"o":"m 320 126 q 323 137 320 130 l 444 387 q 449 403 449 396 q 444 419 449 409 l 323 669 q 320 680 320 676 q 334 693 320 693 q 351 682 341 693 l 584 419 q 592 403 592 411 q 584 387 592 395 l 351 124 q 334 112 341 112 q 320 126 320 112 m 80 126 q 83 137 80 130 l 204 387 q 209 403 209 396 q 204 419 209 409 l 83 669 q 80 680 80 676 q 94 693 80 693 q 111 682 101 693 l 344 419 q 352 403 352 411 q 344 387 352 395 l 111 124 q 94 112 101 112 q 80 126 80 112 "},"ļ":{"x_min":23.734375,"x_max":411,"ha":385,"o":"m 168 -161 q 157 -148 157 -156 q 168 -135 157 -140 q 238 -67 215 -112 q 249 -56 243 -56 q 262 -66 255 -56 q 329 -136 285 -112 q 341 -154 341 -142 q 232 -302 341 -237 q 215 -308 222 -308 q 201 -293 201 -308 q 217 -275 201 -284 q 245 -228 245 -259 q 168 -161 245 -194 m 23 914 q 37 927 23 927 q 107 844 53 927 q 122 832 115 832 q 135 843 129 832 q 385 982 226 982 q 411 966 411 982 q 385 951 411 951 q 247 779 247 951 l 247 180 q 294 131 247 131 q 343 164 311 131 q 358 174 352 174 q 374 160 374 174 q 366 144 374 153 q 262 -4 295 61 q 250 -13 257 -13 q 233 -4 242 -13 q 69 98 147 88 q 57 107 57 99 q 65 120 57 115 q 109 198 109 144 l 109 683 q 31 896 109 809 q 23 914 23 904 "},"Ĕ":{"x_min":46.125,"x_max":933.234375,"ha":962,"o":"m 380 1218 q 392 1232 380 1232 q 411 1213 404 1232 q 563 1145 438 1145 q 715 1213 688 1145 q 734 1232 722 1232 q 746 1218 746 1232 q 745 1208 746 1213 q 563 1042 712 1042 q 381 1208 414 1042 q 380 1218 380 1213 m 174 131 q 46 502 46 294 q 147 854 46 710 q 388 997 248 997 q 546 908 495 997 q 560 898 552 898 q 571 903 564 898 l 667 982 q 712 997 686 997 q 787 959 739 997 q 856 920 834 920 q 886 932 878 920 q 904 946 895 946 q 925 927 925 946 q 917 910 925 920 q 765 775 811 775 q 673 813 719 775 q 597 851 628 851 q 540 829 567 851 q 493 739 493 790 q 605 556 493 668 q 617 550 611 550 q 628 559 623 550 q 759 676 696 676 q 826 645 794 676 q 883 609 864 609 q 895 615 891 609 q 914 630 904 630 q 933 611 933 630 q 927 596 933 606 q 781 467 862 467 q 699 511 744 467 q 666 533 676 533 q 651 514 651 533 q 657 501 651 510 q 727 370 727 420 q 531 162 727 280 q 512 154 518 154 q 494 172 494 154 q 514 196 494 184 q 562 273 562 227 q 452 448 562 342 q 342 636 342 554 q 425 784 342 717 l 512 855 q 520 869 520 862 q 516 883 520 876 q 419 938 477 938 q 259 830 314 938 q 203 609 203 722 q 327 235 203 394 q 663 75 452 75 q 854 119 777 75 q 869 124 864 124 q 887 103 887 124 q 873 86 887 94 q 530 -30 685 -30 q 174 131 303 -30 "},"ò":{"x_min":61.71875,"x_max":590.734375,"ha":637,"o":"m 121 889 q 117 901 117 895 q 124 911 117 906 l 216 977 q 226 982 222 982 q 234 970 233 982 q 354 757 244 876 q 361 745 361 750 q 346 730 361 730 q 271 763 332 730 q 121 889 177 815 m 75 131 q 61 144 61 137 q 78 161 61 151 q 109 215 109 179 l 109 613 q 120 626 109 625 q 430 720 322 651 q 448 726 438 726 q 459 712 457 726 q 509 594 470 638 q 590 362 590 502 q 431 113 590 224 q 321 0 358 63 q 305 -13 314 -13 q 287 -2 297 -13 q 75 131 227 66 m 247 208 q 255 196 247 200 q 351 130 292 177 q 377 122 362 122 q 411 136 392 122 q 471 298 471 180 q 396 515 471 416 q 341 617 354 573 q 326 636 336 636 q 308 633 317 636 q 260 620 291 627 q 247 604 247 617 l 247 208 "},"^":{"x_min":33.90625,"x_max":401.515625,"ha":435,"o":"m 33 775 q 41 790 33 782 l 210 975 q 222 982 216 982 q 231 971 227 982 q 391 789 263 873 q 401 774 401 782 q 387 761 401 761 q 193 831 316 761 q 167 840 177 840 q 146 836 156 840 q 65 771 113 822 q 48 761 56 761 q 33 775 33 761 "},"«":{"x_min":49,"x_max":560.96875,"ha":641,"o":"m 320 679 q 317 669 320 675 l 196 418 q 191 402 191 409 q 196 386 191 396 l 317 136 q 320 125 320 129 q 306 112 320 112 q 289 123 299 112 l 56 386 q 49 402 49 395 q 56 418 49 410 l 289 681 q 306 693 299 693 q 320 679 320 693 m 560 679 q 557 669 560 675 l 436 418 q 431 402 431 409 q 436 386 431 396 l 557 136 q 560 125 560 129 q 546 112 560 112 q 529 123 539 112 l 296 386 q 289 402 289 395 q 296 418 289 410 l 529 681 q 546 693 539 693 q 560 679 560 693 "},"í":{"x_min":27.125,"x_max":347.25,"ha":357,"o":"m 42 759 q 49 771 42 764 q 169 984 159 890 q 177 996 171 996 q 188 991 181 996 l 279 925 q 286 915 286 920 q 282 903 286 909 q 132 777 226 829 q 57 744 72 744 q 42 759 42 744 m 27 552 q 31 564 27 558 l 135 717 q 147 726 141 726 q 159 718 153 726 q 259 621 213 645 q 301 593 301 600 q 291 582 301 586 q 247 504 247 564 l 247 178 q 286 131 247 131 q 311 147 300 131 q 335 164 323 164 q 347 150 347 164 q 336 129 347 144 q 255 -1 284 57 q 239 -13 248 -13 q 223 -2 229 -13 q 202 17 218 9 q 109 166 109 63 l 109 532 q 104 546 109 541 q 84 568 92 556 q 77 572 81 572 q 69 567 73 572 l 56 548 q 43 537 50 537 q 27 552 27 537 "},"ū":{"x_min":9.6875,"x_max":643.828125,"ha":654,"o":"m 116 832 l 116 901 q 131 916 116 916 l 468 916 q 483 901 483 916 l 483 832 q 468 816 483 816 l 131 816 q 116 832 116 816 m 643 150 q 632 129 643 144 q 551 -1 580 57 q 535 -13 545 -13 q 520 -1 525 -13 q 498 17 514 9 q 411 118 430 51 q 404 128 408 128 q 396 124 400 128 l 254 -7 q 243 -13 248 -13 q 234 -7 238 -13 q 81 105 167 70 q 63 120 63 112 q 78 135 63 127 q 109 190 109 150 l 109 534 q 70 581 109 581 q 45 565 57 581 q 21 548 34 548 q 9 562 9 548 q 20 583 9 568 q 101 714 72 655 q 117 726 108 726 q 133 715 127 726 q 154 695 138 703 q 247 546 247 649 l 247 175 q 253 160 247 165 q 317 105 295 132 q 324 101 320 101 q 331 105 327 101 l 394 165 q 406 190 406 175 l 406 504 q 365 581 406 552 q 358 592 358 586 q 367 604 358 598 q 461 714 422 644 q 475 726 468 726 q 489 714 482 726 q 583 604 529 641 q 592 592 592 598 q 584 581 592 586 q 544 504 544 552 l 544 178 q 583 131 544 131 q 608 148 597 131 q 631 164 620 164 q 643 150 643 164 "},"ņ":{"x_min":10.171875,"x_max":644.3125,"ha":654,"o":"m 263 -125 q 252 -112 252 -120 q 263 -99 252 -104 q 333 -31 310 -76 q 344 -20 338 -20 q 357 -30 350 -20 q 424 -100 380 -76 q 436 -118 436 -106 q 327 -266 436 -201 q 310 -272 317 -272 q 296 -257 296 -272 q 312 -239 296 -248 q 340 -192 340 -223 q 263 -125 340 -158 m 10 562 q 21 583 10 568 q 102 714 73 655 q 118 726 108 726 q 133 714 128 726 q 155 695 139 703 q 242 594 223 661 q 249 584 245 584 q 257 588 253 584 l 399 720 q 410 726 405 726 q 419 720 415 726 q 572 607 486 642 q 590 592 590 600 q 575 577 590 585 q 544 522 544 562 l 544 178 q 583 131 544 131 q 608 147 596 131 q 632 164 619 164 q 644 150 644 164 q 633 129 644 144 q 552 -1 581 57 q 536 -13 545 -13 q 520 -2 526 -13 q 499 17 515 9 q 406 166 406 63 l 406 537 q 400 552 406 547 q 336 607 358 580 q 329 611 333 611 q 322 607 326 611 l 259 548 q 247 522 247 537 l 247 208 q 288 131 247 160 q 295 120 295 126 q 286 108 295 114 q 192 -1 231 68 q 178 -13 185 -13 q 164 -1 171 -13 q 70 108 124 71 q 61 120 61 114 q 69 131 61 126 q 109 208 109 160 l 109 534 q 70 581 109 581 q 45 564 56 581 q 22 548 33 548 q 10 562 10 548 "},"µ":{"x_min":8.8125,"x_max":672.125,"ha":654,"o":"m 8 67 q 12 82 8 73 q 126 225 62 203 q 137 240 137 229 l 137 534 q 99 581 137 581 q 73 564 85 581 q 50 548 62 548 q 37 562 37 548 q 48 583 37 568 q 130 714 100 655 q 146 726 136 726 q 161 714 155 726 q 183 695 166 703 q 275 546 275 649 l 275 196 q 290 172 275 179 q 379 120 328 153 q 395 114 387 114 q 415 126 404 114 q 434 172 434 145 l 434 504 q 394 581 434 552 q 386 592 386 586 q 395 604 386 598 q 489 714 449 641 q 503 726 496 726 q 517 714 510 726 q 611 604 557 641 q 620 592 620 598 q 613 581 620 586 q 572 504 572 551 l 572 178 q 611 131 572 131 q 636 147 625 131 q 660 164 648 164 q 672 150 672 164 q 661 129 672 144 q 579 -1 609 57 q 563 -13 573 -13 q 548 -2 554 -13 q 526 17 543 9 q 448 94 472 44 q 440 103 444 103 q 430 98 435 103 q 347 -4 382 52 q 334 -13 341 -13 q 317 -6 326 -13 q 277 21 279 20 q 271 22 274 22 q 267 16 268 23 q 217 -264 248 -160 q 205 -276 214 -276 q 193 -264 197 -276 q 139 75 148 -109 q 124 95 138 90 q 89 100 109 100 q 39 69 53 100 q 22 53 32 53 q 8 67 8 53 "},"č":{"x_min":46.125,"x_max":477.46875,"ha":517,"o":"m 439 968 q 431 953 439 961 l 262 768 q 250 761 256 761 q 241 772 245 761 q 81 954 209 870 q 71 969 71 961 q 85 982 71 982 q 279 912 156 982 q 305 903 295 903 q 326 907 316 903 q 407 972 359 921 q 424 982 416 982 q 439 968 439 982 m 46 370 q 227 672 46 594 q 365 713 322 713 q 372 708 370 713 l 442 533 q 443 526 443 529 q 433 513 443 517 l 333 473 q 326 472 330 472 q 314 482 318 472 l 252 638 q 244 644 249 644 q 240 644 242 644 q 174 436 174 617 q 210 232 174 301 q 360 115 273 115 q 449 143 395 115 q 463 147 459 147 q 477 131 477 147 q 465 117 477 124 q 267 -4 364 61 q 247 -13 255 -13 q 235 2 240 -13 q 215 29 231 18 q 46 370 46 139 "},"-":{"x_min":59,"x_max":423.890625,"ha":483,"o":"m 59 231 q 60 238 59 234 l 82 310 q 103 325 87 325 l 360 325 q 373 317 373 325 q 371 310 373 314 l 349 238 q 328 223 344 223 l 71 223 q 59 231 59 223 m 109 395 q 111 402 109 398 l 133 474 q 153 489 138 489 l 411 489 q 423 480 423 489 q 422 474 423 478 l 400 402 q 379 387 395 387 l 122 387 q 109 395 109 387 "},"Q":{"x_min":52.21875,"x_max":1070.90625,"ha":1081,"o":"m 52 137 q 63 157 52 147 q 243 247 160 247 q 400 184 327 247 q 652 59 545 59 q 746 73 704 59 q 757 83 757 77 q 751 96 757 90 q 674 143 708 143 q 638 127 651 143 q 614 111 625 111 q 597 128 597 111 q 605 147 597 137 q 758 243 683 243 q 859 197 818 243 q 871 190 866 190 q 882 200 877 190 q 904 336 904 256 q 605 786 904 655 q 427 830 504 830 q 333 809 377 830 q 217 657 217 752 q 330 548 217 592 q 484 397 484 488 q 408 255 484 335 q 386 244 398 244 q 368 260 368 244 q 376 277 368 269 q 383 294 383 286 q 255 380 383 330 q 75 591 75 449 q 316 843 75 732 q 482 975 425 893 q 519 997 498 997 q 688 950 579 997 q 1009 459 1009 811 q 914 162 1009 292 q 909 147 909 155 q 916 133 909 140 q 994 86 961 86 q 1030 102 1017 86 q 1053 118 1043 118 q 1070 102 1070 118 q 1062 82 1070 92 q 910 -13 984 -13 q 809 31 857 -13 q 794 40 801 40 q 780 35 787 40 q 523 -30 674 -30 q 268 54 373 -30 q 115 139 164 139 q 89 130 99 139 q 70 121 80 121 q 52 137 52 121 m 809 31 l 809 31 "},"M":{"x_min":76.640625,"x_max":1529.390625,"ha":1546,"o":"m 76 689 q 163 906 76 815 q 395 997 250 997 q 628 893 539 997 q 641 885 635 885 q 654 893 647 885 q 850 997 741 997 q 1027 903 958 997 q 1045 890 1037 890 q 1060 904 1053 890 q 1233 997 1112 997 q 1434 805 1388 997 q 1490 697 1460 697 q 1500 700 1494 697 q 1511 704 1506 704 q 1529 683 1529 704 q 1516 666 1529 674 q 1310 377 1310 547 q 1350 211 1310 281 q 1428 142 1389 142 q 1453 151 1444 142 q 1469 160 1462 160 q 1488 140 1488 160 q 1479 124 1488 131 l 1351 1 q 1319 -13 1335 -13 q 1285 0 1304 -13 q 1168 268 1168 82 q 1343 598 1168 455 q 1355 617 1355 608 q 1337 635 1355 627 q 1254 767 1279 661 q 1145 918 1218 918 q 1093 885 1110 918 q 1080 828 1080 859 q 1087 779 1080 805 q 1106 631 1106 712 q 948 136 1106 369 q 773 -13 847 -13 q 704 24 737 -13 q 649 62 670 62 q 625 48 633 62 q 607 34 617 34 q 588 52 588 34 q 592 66 588 59 q 746 204 674 204 q 824 167 790 204 q 878 129 857 129 q 916 156 899 129 q 974 442 974 245 q 879 794 974 642 q 744 891 818 891 q 681 866 703 891 q 672 846 672 855 q 678 826 672 836 q 741 547 741 719 q 562 111 741 335 q 392 -13 463 -13 q 269 67 322 -13 q 202 127 231 127 q 181 116 190 127 q 163 105 172 105 q 145 123 145 105 q 152 141 145 132 q 304 248 236 248 q 424 167 372 248 q 491 108 462 108 q 532 133 511 108 q 622 428 622 242 q 494 767 622 615 q 312 864 412 864 q 163 817 212 864 q 114 689 114 771 q 231 559 114 559 q 284 564 255 559 q 336 570 312 570 q 470 403 470 570 q 451 378 470 378 q 432 403 432 378 q 368 444 432 444 q 311 438 344 444 q 251 432 278 432 q 76 689 76 432 "},"œ":{"x_min":61.71875,"x_max":864.734375,"ha":904,"o":"m 75 131 q 61 144 61 137 q 78 161 61 151 q 109 215 109 179 l 109 613 q 120 626 109 625 q 430 720 322 651 q 448 726 438 726 q 459 712 457 726 q 495 605 470 642 q 504 599 499 598 q 514 604 509 599 q 614 672 553 645 q 752 713 709 713 q 759 708 757 713 l 855 466 q 857 458 857 462 q 846 444 857 449 l 581 339 q 569 326 569 335 q 570 319 569 322 q 598 232 579 268 q 747 115 660 115 q 836 143 782 115 q 850 147 846 147 q 864 131 864 147 q 852 117 864 124 q 655 -4 752 61 q 634 -13 642 -13 q 622 2 627 -13 q 602 29 618 18 q 487 147 529 75 q 471 160 478 160 q 454 148 463 160 q 305 -13 334 -13 q 287 -2 297 -13 q 75 131 227 66 m 247 208 q 255 196 247 200 q 351 130 292 177 q 377 122 362 122 q 409 139 396 122 q 437 330 437 177 q 397 500 437 434 q 341 617 357 566 q 326 636 336 636 q 308 633 317 636 q 260 620 291 627 q 247 604 247 617 l 247 208 m 561 436 q 564 375 561 390 q 569 368 564 368 q 577 370 573 368 l 709 423 q 718 435 718 427 q 716 443 718 438 l 639 638 q 631 644 636 644 q 628 644 629 644 q 561 436 561 619 "},"ě":{"x_min":46.125,"x_max":477.46875,"ha":517,"o":"m 439 968 q 431 953 439 961 l 262 768 q 250 761 256 761 q 241 772 245 761 q 81 954 209 870 q 71 969 71 961 q 85 982 71 982 q 279 912 156 982 q 305 903 295 903 q 326 907 316 903 q 407 972 359 921 q 424 982 416 982 q 439 968 439 982 m 46 370 q 227 672 46 593 q 365 713 322 713 q 372 708 370 713 l 468 466 q 470 458 470 462 q 459 444 470 449 l 194 339 q 182 326 182 335 q 183 319 182 322 q 210 232 191 268 q 360 115 273 115 q 449 143 395 115 q 463 147 459 147 q 477 131 477 147 q 465 117 477 124 q 267 -4 364 61 q 247 -13 255 -13 q 235 2 240 -13 q 215 29 231 18 q 46 370 46 139 m 174 436 q 177 375 174 389 q 182 368 178 368 q 190 370 185 368 l 322 423 q 331 435 331 427 q 329 443 331 438 l 252 638 q 244 644 249 644 q 240 644 242 644 q 174 436 174 619 "},"ũ":{"x_min":9.6875,"x_max":643.828125,"ha":654,"o":"m 145 832 q 147 842 145 836 q 245 959 173 959 q 346 918 288 959 q 419 884 394 884 q 451 911 445 884 q 465 927 454 927 q 481 911 481 927 q 480 902 481 907 q 381 784 454 784 q 280 826 339 784 q 207 859 232 859 q 176 832 182 859 q 162 817 173 817 q 145 832 145 817 m 643 150 q 632 129 643 144 q 551 -1 580 57 q 535 -13 545 -13 q 520 -1 525 -13 q 498 17 514 9 q 411 118 430 51 q 404 128 408 128 q 396 124 400 128 l 254 -7 q 243 -13 248 -13 q 234 -7 238 -13 q 81 105 167 70 q 63 120 63 112 q 78 135 63 127 q 109 190 109 150 l 109 534 q 70 581 109 581 q 45 565 57 581 q 21 548 34 548 q 9 562 9 548 q 20 583 9 568 q 101 714 72 655 q 117 726 108 726 q 133 715 127 726 q 154 695 138 703 q 247 546 247 649 l 247 175 q 253 160 247 165 q 317 105 295 132 q 324 101 320 101 q 331 105 327 101 l 394 165 q 406 190 406 175 l 406 504 q 365 581 406 552 q 358 592 358 586 q 367 604 358 598 q 461 714 422 644 q 475 726 468 726 q 489 714 482 726 q 583 604 529 641 q 592 592 592 598 q 584 581 592 586 q 544 504 544 552 l 544 178 q 583 131 544 131 q 608 148 597 131 q 631 164 620 164 q 643 150 643 164 "},"ŭ":{"x_min":9.6875,"x_max":643.828125,"ha":654,"o":"m 114 968 q 126 982 114 982 q 145 963 138 982 q 297 895 172 895 q 449 963 422 895 q 468 982 456 982 q 480 968 480 982 q 479 958 480 963 q 297 792 446 792 q 115 958 148 792 q 114 968 114 963 m 643 150 q 632 129 643 144 q 551 -1 580 57 q 535 -13 545 -13 q 520 -1 525 -13 q 498 17 514 9 q 411 118 430 51 q 404 128 408 128 q 396 124 400 128 l 254 -7 q 243 -13 248 -13 q 234 -7 238 -13 q 81 105 167 70 q 63 120 63 112 q 78 135 63 127 q 109 190 109 150 l 109 534 q 70 581 109 581 q 45 565 57 581 q 21 548 34 548 q 9 562 9 548 q 20 583 9 568 q 101 714 72 655 q 117 726 108 726 q 133 715 127 726 q 154 695 138 703 q 247 546 247 649 l 247 175 q 253 160 247 165 q 317 105 295 132 q 324 101 320 101 q 331 105 327 101 l 394 165 q 406 190 406 175 l 406 504 q 365 581 406 552 q 358 592 358 586 q 367 604 358 598 q 461 714 422 644 q 475 726 468 726 q 489 714 482 726 q 583 604 529 641 q 592 592 592 598 q 584 581 592 586 q 544 504 544 552 l 544 178 q 583 131 544 131 q 608 148 597 131 q 631 164 620 164 q 643 150 643 164 "},"{":{"x_min":53.578125,"x_max":425.25,"ha":418,"o":"m 53 352 q 71 368 53 368 q 181 532 181 368 q 172 643 181 583 q 162 746 162 703 q 406 982 162 982 q 425 966 425 982 q 406 951 425 951 q 297 787 297 951 q 306 676 297 735 q 316 573 316 616 q 236 381 316 438 q 217 353 217 366 q 236 324 217 339 q 316 132 316 267 q 306 29 316 89 q 297 -81 297 -29 q 406 -245 297 -245 q 425 -260 425 -245 q 406 -276 425 -276 q 162 -40 162 -276 q 172 62 162 2 q 181 173 181 122 q 71 337 181 337 q 53 352 53 337 "},"¼":{"x_min":99.703125,"x_max":971.734375,"ha":1023,"o":"m 99 811 q 104 821 99 816 q 246 969 187 889 q 251 973 248 973 l 269 973 q 277 966 277 973 l 276 520 q 347 402 276 404 q 355 392 355 402 q 345 381 354 381 l 126 381 q 117 393 117 381 q 126 404 117 404 l 136 404 q 188 522 188 404 l 189 771 q 160 829 189 829 q 118 811 143 829 q 105 803 110 803 q 101 806 103 803 q 99 811 99 809 m 132 -6 l 931 916 q 948 917 937 924 l 967 900 q 968 884 975 891 l 169 -37 q 153 -38 161 -46 l 133 -21 q 132 -6 125 -14 m 573 37 l 573 86 q 574 90 573 88 l 789 424 q 795 427 791 427 l 839 427 q 846 421 846 427 l 846 94 q 852 88 846 88 l 929 88 q 935 81 935 88 l 935 37 q 929 30 935 30 l 852 30 q 846 23 846 30 l 846 -29 q 913 -118 846 -118 q 921 -130 921 -119 q 913 -139 921 -139 l 700 -139 q 691 -128 691 -139 q 700 -118 691 -118 q 760 -3 760 -118 l 760 23 q 758 28 760 26 q 754 30 756 30 l 579 30 q 573 37 573 30 m 609 92 q 614 88 609 88 l 754 88 q 760 94 760 88 l 760 313 q 756 319 760 318 q 748 316 750 320 l 609 98 q 609 92 605 94 "},"#":{"x_min":55.609375,"x_max":768.421875,"ha":824,"o":"m 55 216 l 55 259 q 71 274 55 274 l 240 274 q 256 290 256 274 l 256 422 q 240 438 256 438 l 71 438 q 55 453 55 438 l 55 496 q 71 512 55 512 l 240 512 q 256 527 256 512 l 256 697 q 271 712 256 712 l 314 712 q 330 697 330 712 l 330 527 q 345 512 330 512 l 478 512 q 493 527 493 512 l 493 697 q 509 712 493 712 l 552 712 q 567 697 567 712 l 567 527 q 583 512 567 512 l 752 512 q 768 496 768 512 l 768 453 q 752 438 768 438 l 583 438 q 567 422 567 438 l 567 290 q 583 274 567 274 l 752 274 q 768 259 768 274 l 768 216 q 752 200 768 200 l 583 200 q 567 185 567 200 l 567 15 q 552 0 567 0 l 509 0 q 493 15 493 0 l 493 185 q 478 200 493 200 l 345 200 q 330 185 330 200 l 330 15 q 314 0 330 0 l 271 0 q 256 15 256 0 l 256 185 q 240 200 256 200 l 71 200 q 55 216 55 200 m 330 290 q 345 274 330 274 l 478 274 q 493 290 493 274 l 493 422 q 478 438 493 438 l 345 438 q 330 422 330 438 l 330 290 "},"Ĳ":{"x_min":73.25,"x_max":1415.453125,"ha":1451,"o":"m 73 166 q 84 185 73 174 q 257 269 181 269 q 415 155 333 269 q 572 40 497 40 q 698 90 647 40 q 732 166 732 122 q 632 352 732 242 q 564 518 564 426 q 632 720 564 613 q 636 732 636 727 q 613 744 636 744 q 494 809 548 744 q 357 874 440 874 q 221 816 274 874 q 169 689 169 758 q 210 568 169 620 q 323 516 251 516 q 434 545 394 516 q 453 553 444 553 q 471 535 471 553 q 456 514 471 525 q 310 474 403 474 q 160 538 217 474 q 103 718 103 602 q 200 916 103 834 q 438 997 298 997 q 652 906 576 997 q 722 857 693 857 q 748 869 736 857 q 973 997 866 997 q 1180 905 1081 997 q 1339 813 1279 813 q 1375 823 1361 813 q 1393 828 1383 828 q 1410 809 1410 828 q 1397 792 1410 800 q 1245 594 1245 701 q 1330 384 1245 491 q 1415 168 1415 277 q 1266 -103 1415 27 q 1056 -199 1158 -199 q 879 -120 956 -199 q 772 -41 802 -41 q 729 -57 741 -41 q 707 -73 716 -73 q 689 -56 689 -73 q 696 -37 689 -47 q 865 82 791 82 q 1025 -6 940 82 q 1185 -95 1110 -95 q 1245 -71 1219 -95 q 1288 33 1288 -31 q 1157 305 1288 137 q 1092 490 1092 388 q 1204 691 1092 591 q 1217 711 1217 703 q 1190 720 1217 720 q 1034 790 1109 720 q 861 883 935 883 q 775 843 813 883 q 688 658 688 752 q 779 464 688 563 q 851 300 851 387 q 725 63 851 187 q 475 -30 630 -30 q 250 69 321 -30 q 139 168 179 168 q 111 158 122 168 q 90 148 100 148 q 73 166 73 148 "},"Ê":{"x_min":46.125,"x_max":933.234375,"ha":962,"o":"m 348 1042 q 359 1057 348 1050 q 519 1239 486 1141 q 528 1250 522 1250 q 540 1243 534 1250 l 709 1058 q 716 1043 716 1050 q 701 1029 716 1029 q 685 1039 694 1029 q 603 1104 636 1090 q 583 1108 593 1108 q 557 1099 572 1108 q 363 1029 433 1029 q 348 1042 348 1029 m 174 131 q 46 502 46 294 q 147 854 46 710 q 388 997 248 997 q 546 908 495 997 q 560 898 552 898 q 571 903 564 898 l 667 982 q 712 997 686 997 q 787 959 739 997 q 856 920 834 920 q 886 932 878 920 q 904 946 895 946 q 925 927 925 946 q 917 910 925 920 q 765 775 811 775 q 673 813 719 775 q 597 851 628 851 q 540 829 567 851 q 493 739 493 790 q 605 556 493 668 q 617 550 611 550 q 628 559 623 550 q 759 676 696 676 q 826 645 794 676 q 883 609 864 609 q 895 615 891 609 q 914 630 904 630 q 933 611 933 630 q 927 596 933 606 q 781 467 862 467 q 699 511 744 467 q 666 533 676 533 q 651 514 651 533 q 657 501 651 510 q 727 370 727 420 q 531 162 727 280 q 512 154 518 154 q 494 172 494 154 q 514 196 494 184 q 562 273 562 227 q 452 448 562 342 q 342 636 342 554 q 425 784 342 717 l 512 855 q 520 869 520 862 q 516 883 520 876 q 419 938 477 938 q 259 830 314 938 q 203 609 203 722 q 327 235 203 394 q 663 75 452 75 q 854 119 777 75 q 869 124 864 124 q 887 103 887 124 q 873 86 887 94 q 530 -30 685 -30 q 174 131 303 -30 "},")":{"x_min":-47.015625,"x_max":251.40625,"ha":345,"o":"m 145 852 q 251 352 251 687 q 145 -146 251 18 q -28 -276 62 -276 q -47 -261 -47 -276 q -21 -244 -47 -251 q 63 -153 41 -227 q 113 352 113 16 q 63 859 113 689 q -21 950 41 933 q -47 967 -47 957 q -28 982 -47 982 q 145 852 62 982 "},"Å":{"x_min":21.703125,"x_max":1066.171875,"ha":1066,"o":"m 585 1090 q 661 1225 585 1185 q 732 1243 694 1243 q 839 1197 799 1243 q 880 1090 880 1151 q 804 955 880 994 q 732 937 771 937 q 626 983 666 937 q 585 1090 585 1029 m 657 1162 q 688 1067 657 1128 q 774 977 737 977 q 789 981 782 977 q 808 1017 808 991 q 777 1113 808 1052 q 691 1203 729 1203 q 676 1199 683 1203 q 657 1162 657 1189 m 21 666 q 83 851 21 761 q 346 997 183 997 q 594 902 509 997 q 671 686 671 817 q 398 275 671 491 q 382 253 382 262 q 412 237 382 241 q 522 165 465 229 q 635 100 578 100 q 704 134 672 100 q 773 309 773 208 l 773 797 q 752 822 773 822 q 731 839 731 822 q 749 862 731 857 q 991 990 868 893 q 1010 997 1001 997 q 1026 981 1026 997 q 1015 960 1026 970 q 927 803 927 885 l 927 204 q 981 101 927 101 q 1028 130 1000 101 q 1048 139 1038 139 q 1066 122 1066 139 q 1058 105 1066 113 l 978 23 q 897 -13 941 -13 q 780 103 795 -13 q 764 129 777 129 q 732 109 752 129 q 514 -13 613 -13 q 362 66 432 -13 q 246 147 293 147 q 202 132 224 147 q 183 126 193 126 q 167 143 167 126 q 180 163 167 154 q 518 600 518 381 q 448 788 518 710 q 255 894 354 894 q 115 830 157 894 q 80 726 80 778 q 202 594 80 644 q 333 465 333 540 q 255 336 333 414 q 238 327 246 327 q 219 347 219 327 q 229 364 219 355 q 247 397 247 380 q 154 475 247 436 q 21 666 21 531 m 991 990 l 991 990 "},"¸":{"x_min":33.90625,"x_max":231.28125,"ha":265,"o":"m 33 -257 q 49 -240 33 -240 q 55 -240 52 -240 q 72 -242 64 -242 q 111 -231 92 -243 q 131 -198 131 -219 q 85 -145 131 -164 q 74 -128 74 -140 q 75 -122 74 -125 l 106 14 l 135 5 l 128 -25 q 139 -42 126 -37 q 231 -170 231 -76 q 186 -255 231 -227 q 102 -276 153 -276 q 48 -269 73 -276 q 33 -257 33 -265 "},"a":{"x_min":46.125,"x_max":623.96875,"ha":634,"o":"m 152 52 q 46 314 46 151 q 184 576 46 477 q 312 715 267 636 q 327 726 318 726 q 346 714 337 726 q 558 581 402 647 q 572 568 572 575 q 555 551 572 560 q 524 497 524 533 l 524 178 q 563 131 524 131 q 588 147 577 131 q 611 164 600 164 q 623 150 623 164 q 613 129 623 144 q 531 -1 557 48 q 515 -13 525 -13 q 500 -2 505 -13 q 478 17 495 9 q 394 111 415 50 q 388 117 392 117 q 379 113 384 117 l 222 -2 q 198 -13 206 -13 q 189 -1 189 -13 q 152 52 189 17 m 172 385 q 254 145 172 234 q 305 112 284 112 q 339 122 326 112 l 379 151 q 386 166 386 157 l 386 504 q 378 516 386 512 q 277 587 334 539 q 260 594 268 594 q 245 585 252 594 q 172 385 172 489 "},"=":{"x_min":55.609375,"x_max":768.421875,"ha":824,"o":"m 55 427 l 55 469 q 71 485 55 485 l 752 485 q 768 469 768 485 l 768 427 q 752 411 768 411 l 71 411 q 55 427 55 411 m 55 243 l 55 285 q 71 301 55 301 l 752 301 q 768 285 768 301 l 768 243 q 752 227 768 227 l 71 227 q 55 243 55 227 "},"ú":{"x_min":9.6875,"x_max":643.828125,"ha":654,"o":"m 235 745 q 242 757 235 750 q 362 970 352 876 q 370 982 364 982 q 381 977 374 982 l 472 911 q 479 901 479 906 q 475 889 479 895 q 325 763 419 815 q 250 730 265 730 q 235 745 235 730 m 643 150 q 632 129 643 144 q 551 -1 580 57 q 535 -13 545 -13 q 520 -1 525 -13 q 498 17 514 9 q 411 118 430 51 q 404 128 408 128 q 396 124 400 128 l 254 -7 q 243 -13 248 -13 q 234 -7 238 -13 q 81 105 167 70 q 63 120 63 112 q 78 135 63 127 q 109 190 109 150 l 109 534 q 70 581 109 581 q 45 565 57 581 q 21 548 34 548 q 9 562 9 548 q 20 583 9 568 q 101 714 72 655 q 117 726 108 726 q 133 715 127 726 q 154 695 138 703 q 247 546 247 649 l 247 175 q 253 160 247 165 q 317 105 295 132 q 324 101 320 101 q 331 105 327 101 l 394 165 q 406 190 406 175 l 406 504 q 365 581 406 552 q 358 592 358 586 q 367 604 358 598 q 461 714 422 644 q 475 726 468 726 q 489 714 482 726 q 583 604 529 641 q 592 592 592 598 q 584 581 592 586 q 544 504 544 552 l 544 178 q 583 131 544 131 q 608 148 597 131 q 631 164 620 164 q 643 150 643 164 "},"¯":{"x_min":38.65625,"x_max":405.578125,"ha":444,"o":"m 38 832 l 38 901 q 53 916 38 916 l 390 916 q 405 901 405 916 l 405 832 q 390 816 405 816 l 53 816 q 38 832 38 816 "},"Z":{"x_min":14.921875,"x_max":872.875,"ha":919,"o":"m 14 0 q 25 17 14 8 q 200 106 124 106 q 379 -2 276 106 q 568 -111 482 -111 q 668 -88 633 -111 q 741 88 741 -37 q 648 289 741 189 q 449 389 555 389 q 366 375 406 389 q 355 373 360 373 q 335 394 335 373 q 352 411 335 405 q 672 665 672 516 q 635 759 672 716 q 437 851 556 851 q 265 798 318 851 q 212 689 212 746 q 243 589 212 631 q 333 548 274 548 q 358 529 358 548 q 333 510 358 510 q 194 559 246 510 q 142 709 142 609 q 238 904 142 810 q 504 997 335 997 q 763 893 674 997 q 821 729 821 826 q 666 505 821 604 q 657 494 657 499 q 669 485 657 489 q 802 393 732 467 q 872 174 872 318 q 689 -118 872 7 q 455 -199 572 -199 q 217 -99 311 -199 q 78 0 124 0 q 53 -9 63 0 q 34 -18 42 -18 q 14 0 14 -18 "},"u":{"x_min":9.6875,"x_max":643.828125,"ha":654,"o":"m 643 150 q 632 129 643 144 q 551 -1 580 57 q 535 -13 545 -13 q 520 -1 525 -13 q 498 17 514 9 q 411 118 430 51 q 404 128 408 128 q 396 124 400 128 l 254 -7 q 243 -13 248 -13 q 234 -7 238 -13 q 81 105 167 70 q 63 120 63 112 q 78 135 63 127 q 109 190 109 150 l 109 534 q 70 581 109 581 q 45 565 57 581 q 21 548 34 548 q 9 562 9 548 q 20 583 9 568 q 101 714 72 655 q 117 726 108 726 q 133 715 127 726 q 154 695 138 703 q 247 546 247 649 l 247 175 q 253 160 247 165 q 317 105 295 132 q 324 101 320 101 q 331 105 327 101 l 394 165 q 406 190 406 175 l 406 504 q 365 581 406 552 q 358 592 358 586 q 367 604 358 598 q 461 714 422 644 q 475 726 468 726 q 489 714 482 726 q 583 604 529 641 q 592 592 592 598 q 584 581 592 586 q 544 504 544 552 l 544 178 q 583 131 544 131 q 608 148 597 131 q 631 164 620 164 q 643 150 643 164 "},"k":{"x_min":16.28125,"x_max":411,"ha":439,"o":"m 37 575 q 16 587 16 575 q 33 605 16 599 q 109 687 109 633 q 31 896 109 818 q 23 914 23 904 q 37 927 23 927 q 107 844 53 927 q 122 832 115 832 q 135 843 129 832 q 385 982 225 982 q 411 966 411 982 q 385 951 411 951 q 247 779 247 951 q 255 758 247 758 q 278 779 263 758 q 398 869 339 869 q 411 857 411 869 l 411 741 q 401 731 411 731 q 384 732 392 731 q 367 733 377 733 q 284 708 316 733 q 257 669 257 688 q 275 649 257 649 l 396 649 q 411 634 411 649 l 411 590 q 396 575 411 575 l 262 575 q 247 560 247 575 l 247 180 q 294 131 247 131 q 343 164 311 131 q 358 174 352 174 q 374 160 374 174 q 366 144 374 153 q 262 -4 295 61 q 250 -13 257 -13 q 233 -4 242 -13 q 69 98 147 88 q 57 107 57 99 q 65 120 57 115 q 109 198 109 144 l 109 560 q 96 575 109 575 l 37 575 "},"Ù":{"x_min":28.484375,"x_max":927.125,"ha":927,"o":"m 401 1130 q 397 1142 397 1136 q 404 1152 397 1147 l 496 1218 q 506 1223 502 1223 q 514 1211 513 1223 q 634 998 524 1117 q 641 986 641 991 q 626 971 641 971 q 551 1004 612 971 q 401 1130 457 1056 m 28 143 q 40 162 28 154 q 233 419 233 291 q 159 579 233 494 q 84 760 84 664 q 164 927 84 857 q 323 997 244 997 q 438 964 403 997 q 473 891 473 931 q 455 828 473 851 q 425 805 438 805 q 409 822 409 805 q 421 844 409 831 q 432 881 432 857 q 409 925 432 906 q 343 945 387 945 q 268 915 299 945 q 236 828 236 886 q 309 686 236 770 q 383 522 383 602 q 245 273 383 404 q 231 249 231 259 q 265 239 231 239 q 378 169 318 239 q 496 100 438 100 q 565 134 533 100 q 634 309 634 208 l 634 797 q 613 822 634 822 q 592 839 592 822 q 610 862 592 857 q 852 990 729 893 q 871 997 862 997 q 887 981 887 997 q 876 960 887 970 q 788 803 788 882 l 788 204 q 842 101 788 101 q 889 130 861 101 q 909 139 899 139 q 927 122 927 139 q 918 105 927 113 l 838 23 q 758 -13 802 -13 q 641 103 656 -13 q 625 129 638 129 q 593 109 613 129 q 375 -13 474 -13 q 223 66 293 -13 q 107 147 154 147 q 63 132 85 147 q 44 126 54 126 q 28 143 28 126 "},"Ů":{"x_min":28.484375,"x_max":927.125,"ha":927,"o":"m 460 1097 q 536 1232 460 1192 q 607 1250 569 1250 q 714 1204 674 1250 q 755 1097 755 1158 q 679 962 755 1001 q 607 944 646 944 q 501 990 541 944 q 460 1097 460 1036 m 532 1169 q 563 1074 532 1135 q 649 984 612 984 q 664 988 657 984 q 683 1024 683 998 q 652 1120 683 1059 q 566 1210 604 1210 q 551 1206 558 1210 q 532 1169 532 1196 m 28 143 q 40 162 28 154 q 233 419 233 291 q 159 579 233 494 q 84 760 84 664 q 164 927 84 857 q 323 997 244 997 q 438 964 403 997 q 473 891 473 931 q 455 828 473 851 q 425 805 438 805 q 409 822 409 805 q 421 844 409 831 q 432 881 432 857 q 409 925 432 906 q 343 945 387 945 q 268 915 299 945 q 236 828 236 886 q 309 686 236 770 q 383 522 383 602 q 245 273 383 404 q 231 249 231 259 q 265 239 231 239 q 378 169 318 239 q 496 100 438 100 q 565 134 533 100 q 634 309 634 208 l 634 797 q 613 822 634 822 q 592 839 592 822 q 610 862 592 857 q 852 990 729 893 q 871 997 862 997 q 887 981 887 997 q 876 960 887 970 q 788 803 788 882 l 788 204 q 842 101 788 101 q 889 130 861 101 q 909 139 899 139 q 927 122 927 139 q 918 105 927 113 l 838 23 q 758 -13 802 -13 q 641 103 656 -13 q 625 129 638 129 q 593 109 613 129 q 375 -13 474 -13 q 223 66 293 -13 q 107 147 154 147 q 63 132 85 147 q 44 126 54 126 q 28 143 28 126 "},"¢":{"x_min":46.125,"x_max":477.46875,"ha":517,"o":"m 46 373 q 227 672 46 594 q 326 708 293 699 q 345 725 343 711 l 351 760 q 364 771 353 773 l 392 765 q 401 752 403 763 l 394 708 q 392 682 392 696 q 400 638 392 659 l 442 533 q 443 526 443 529 q 433 513 443 517 l 370 488 q 352 466 355 482 l 298 149 q 297 141 297 145 q 309 126 297 131 q 360 115 335 115 q 449 143 395 115 q 463 147 459 147 q 477 131 477 147 q 465 117 477 124 q 296 14 367 63 q 267 -29 272 -2 l 263 -52 q 250 -62 261 -64 l 222 -57 q 213 -44 211 -55 l 222 7 q 223 14 223 11 q 213 30 223 24 q 46 373 46 138 m 174 436 q 210 232 174 301 q 234 193 223 209 q 247 184 241 184 q 255 198 252 184 l 300 463 q 302 486 302 475 q 293 535 302 512 l 252 638 q 244 644 249 644 q 240 644 242 644 q 174 436 174 621 "},"Ş":{"x_min":46.125,"x_max":1032.9375,"ha":1079,"o":"m 46 428 q 233 809 46 638 q 573 997 441 997 q 720 942 639 997 q 865 886 802 886 q 960 918 929 886 q 986 932 974 932 q 1001 917 1001 932 q 987 891 1001 906 q 767 754 864 754 q 595 805 670 754 q 430 856 520 856 q 256 779 341 856 q 171 527 171 701 q 312 238 171 353 q 624 122 453 122 q 896 198 796 122 q 995 360 995 274 q 948 482 995 446 q 846 518 900 518 q 706 444 792 518 q 524 370 619 370 q 320 512 428 370 q 311 531 311 523 q 328 549 311 549 q 349 535 338 549 q 433 498 379 498 q 572 571 486 498 q 761 644 658 644 q 948 572 864 644 q 1032 360 1032 499 q 888 94 1032 221 q 596 -28 763 -14 q 569 -51 574 -30 l 568 -54 q 567 -60 567 -56 q 578 -71 567 -67 q 670 -198 670 -105 q 635 -278 670 -251 q 541 -304 599 -304 q 488 -298 510 -304 q 473 -285 473 -294 q 488 -268 473 -268 q 500 -270 494 -268 q 522 -271 506 -271 q 554 -261 537 -271 q 570 -222 570 -251 q 524 -173 570 -193 q 514 -157 514 -168 q 514 -150 514 -153 l 537 -49 q 538 -42 538 -46 q 518 -29 538 -30 q 198 93 341 -22 q 46 428 46 217 "},"é":{"x_min":46.125,"x_max":477.46875,"ha":517,"o":"m 135 745 q 142 757 135 750 q 262 970 252 876 q 270 982 264 982 q 281 977 274 982 l 372 911 q 379 901 379 906 q 375 889 379 895 q 225 763 319 815 q 150 730 165 730 q 135 745 135 730 m 46 370 q 227 672 46 593 q 365 713 322 713 q 372 708 370 713 l 468 466 q 470 458 470 462 q 459 444 470 449 l 194 339 q 182 326 182 335 q 183 319 182 322 q 210 232 191 268 q 360 115 273 115 q 449 143 395 115 q 463 147 459 147 q 477 131 477 147 q 465 117 477 124 q 267 -4 364 61 q 247 -13 255 -13 q 235 2 240 -13 q 215 29 231 18 q 46 370 46 139 m 174 436 q 177 375 174 389 q 182 368 178 368 q 190 370 185 368 l 322 423 q 331 435 331 427 q 329 443 331 438 l 252 638 q 244 644 249 644 q 240 644 242 644 q 174 436 174 619 "},"B":{"x_min":12.203125,"x_max":1186.21875,"ha":1232,"o":"m 70 505 q 12 699 12 581 q 111 907 12 817 q 362 997 210 997 q 604 889 516 997 q 625 861 616 874 q 640 847 634 847 q 653 859 647 847 q 878 997 722 997 q 1093 789 1032 997 q 1130 739 1107 739 q 1146 744 1138 739 q 1163 748 1155 748 q 1180 731 1180 748 q 1163 710 1180 719 l 996 619 q 975 600 975 608 q 1001 587 975 592 q 1100 542 1058 576 q 1186 342 1186 474 q 1037 79 1186 210 q 737 -30 912 -30 q 414 109 562 -30 q 283 174 345 174 q 225 160 253 174 q 205 154 215 154 q 188 171 188 154 q 206 192 188 183 q 541 550 541 374 q 468 764 541 672 q 291 856 394 856 q 132 795 189 856 q 75 662 75 734 q 122 531 75 590 q 248 472 168 472 q 371 510 328 472 q 392 520 383 520 q 411 501 411 520 q 399 482 411 493 q 233 429 338 429 q 70 505 129 429 m 482 324 q 464 297 464 309 q 486 274 464 284 q 558 226 526 257 q 843 51 743 51 q 1012 108 944 51 q 1064 228 1064 151 q 974 407 1064 335 q 794 498 861 498 q 754 489 771 498 q 734 482 742 482 q 716 500 716 482 q 736 522 716 511 l 960 643 q 973 658 973 650 q 960 676 973 666 q 913 747 927 700 q 795 925 862 925 q 688 843 729 925 q 673 791 673 813 q 678 748 673 768 q 691 649 691 698 q 482 324 691 501 "},"ē":{"x_min":46.125,"x_max":477.46875,"ha":517,"o":"m 70 832 l 70 901 q 85 916 70 916 l 422 916 q 437 901 437 916 l 437 832 q 422 816 437 816 l 85 816 q 70 832 70 816 m 46 370 q 227 672 46 593 q 365 713 322 713 q 372 708 370 713 l 468 466 q 470 458 470 462 q 459 444 470 449 l 194 339 q 182 326 182 335 q 183 319 182 322 q 210 232 191 268 q 360 115 273 115 q 449 143 395 115 q 463 147 459 147 q 477 131 477 147 q 465 117 477 124 q 267 -4 364 61 q 247 -13 255 -13 q 235 2 240 -13 q 215 29 231 18 q 46 370 46 139 m 174 436 q 177 375 174 389 q 182 368 178 368 q 190 370 185 368 l 322 423 q 331 435 331 427 q 329 443 331 438 l 252 638 q 244 644 249 644 q 240 644 242 644 q 174 436 174 619 "},"H":{"x_min":-38.65625,"x_max":936.625,"ha":983,"o":"m -38 115 q -26 139 -38 126 q 126 221 56 221 q 256 159 195 221 q 361 96 317 96 q 404 114 387 96 q 422 158 422 132 q 247 425 422 244 q 154 636 154 522 q 277 874 154 750 q 481 997 400 997 q 621 936 562 997 q 708 876 680 876 q 728 884 720 876 q 747 892 736 892 q 763 876 763 892 q 753 855 763 865 q 598 771 670 771 q 471 828 526 771 q 378 884 416 884 q 305 847 341 884 q 269 758 269 811 q 397 536 269 667 q 412 529 404 529 q 428 535 420 529 l 683 718 q 707 726 695 726 q 732 712 719 726 q 936 309 936 497 q 464 -164 936 -37 q 446 -166 454 -166 q 427 -149 427 -166 q 454 -127 427 -134 q 773 239 773 -48 q 600 584 773 411 q 583 593 592 593 q 564 586 574 593 l 450 504 q 441 491 441 498 q 446 477 441 484 q 524 276 524 379 q 435 91 524 181 q 249 -13 330 -13 q 105 50 168 -13 q 14 115 43 115 q -3 107 4 115 q -21 99 -11 99 q -38 115 -38 99 "},"î":{"x_min":-3.09375,"x_max":364.515625,"ha":357,"o":"m -3 775 q 4 790 -3 782 l 173 975 q 185 982 179 982 q 194 971 190 982 q 354 789 226 873 q 364 774 364 782 q 350 761 364 761 q 156 831 279 761 q 130 840 140 840 q 109 836 119 840 q 28 771 76 822 q 11 761 19 761 q -3 775 -3 761 m 27 552 q 31 564 27 558 l 135 717 q 147 726 141 726 q 159 718 153 726 q 259 621 213 645 q 301 593 301 600 q 291 582 301 586 q 247 504 247 564 l 247 178 q 286 131 247 131 q 311 147 300 131 q 335 164 323 164 q 347 150 347 164 q 336 129 347 144 q 255 -1 284 57 q 239 -13 248 -13 q 223 -2 229 -13 q 202 17 218 9 q 109 166 109 63 l 109 532 q 104 546 109 541 q 84 568 92 556 q 77 572 81 572 q 69 567 73 572 l 56 548 q 43 537 50 537 q 27 552 27 537 "},"−":{"x_min":55.609375,"x_max":768.421875,"ha":824,"o":"m 55 335 l 55 377 q 71 393 55 393 l 752 393 q 768 377 768 393 l 768 335 q 752 319 768 319 l 71 319 q 55 335 55 319 "},"¥":{"x_min":32.5625,"x_max":769.109375,"ha":796,"o":"m 32 891 l 32 937 l 395 937 l 395 891 l 336 891 l 491 517 l 594 767 q 621 845 621 830 q 597 888 621 881 q 546 891 586 891 l 546 937 l 769 937 l 769 891 q 720 887 728 889 q 684 849 702 882 q 649 779 653 792 l 563 572 l 729 572 l 729 514 l 539 514 l 512 449 l 512 362 l 729 362 l 729 303 l 512 303 l 512 57 l 594 57 l 594 11 l 211 11 l 211 57 l 294 57 l 294 303 l 72 303 l 72 362 l 294 362 l 294 419 l 254 514 l 72 514 l 72 572 l 229 572 l 95 891 l 32 891 "},"Ĥ":{"x_min":-38.65625,"x_max":936.625,"ha":983,"o":"m 287 1030 q 298 1045 287 1038 q 458 1227 425 1129 q 467 1238 461 1238 q 479 1231 473 1238 l 648 1046 q 655 1031 655 1038 q 640 1017 655 1017 q 624 1027 633 1017 q 542 1092 575 1078 q 522 1096 532 1096 q 496 1087 511 1096 q 302 1017 372 1017 q 287 1030 287 1017 m -38 115 q -26 139 -38 126 q 126 221 56 221 q 256 159 195 221 q 361 96 317 96 q 404 114 387 96 q 422 158 422 132 q 247 425 422 244 q 154 636 154 522 q 277 874 154 750 q 481 997 400 997 q 621 936 562 997 q 708 876 680 876 q 728 884 720 876 q 747 892 736 892 q 763 876 763 892 q 753 855 763 865 q 598 771 670 771 q 471 828 526 771 q 378 884 416 884 q 305 847 341 884 q 269 758 269 811 q 397 536 269 667 q 412 529 404 529 q 428 535 420 529 l 683 718 q 707 726 695 726 q 732 712 719 726 q 936 309 936 497 q 464 -164 936 -37 q 446 -166 454 -166 q 427 -149 427 -166 q 454 -127 427 -134 q 773 239 773 -48 q 600 584 773 411 q 583 593 592 593 q 564 586 574 593 l 450 504 q 441 491 441 498 q 446 477 441 484 q 524 276 524 379 q 435 91 524 181 q 249 -13 330 -13 q 105 50 168 -13 q 14 115 43 115 q -3 107 4 115 q -21 99 -11 99 q -38 115 -38 99 "},"U":{"x_min":28.484375,"x_max":927.125,"ha":927,"o":"m 28 143 q 40 162 28 154 q 233 419 233 291 q 159 579 233 494 q 84 760 84 664 q 164 927 84 857 q 323 997 244 997 q 438 964 403 997 q 473 891 473 931 q 455 828 473 851 q 425 805 438 805 q 409 822 409 805 q 421 844 409 831 q 432 881 432 857 q 409 925 432 906 q 343 945 387 945 q 268 915 299 945 q 236 828 236 886 q 309 686 236 770 q 383 522 383 602 q 245 273 383 404 q 231 249 231 259 q 265 239 231 239 q 378 169 318 239 q 496 100 438 100 q 565 134 533 100 q 634 309 634 208 l 634 797 q 613 822 634 822 q 592 839 592 822 q 610 862 592 857 q 852 990 729 893 q 871 997 862 997 q 887 981 887 997 q 876 960 887 970 q 788 803 788 882 l 788 204 q 842 101 788 101 q 889 130 861 101 q 909 139 899 139 q 927 122 927 139 q 918 105 927 113 l 838 23 q 758 -13 802 -13 q 641 103 656 -13 q 625 129 638 129 q 593 109 613 129 q 375 -13 474 -13 q 223 66 293 -13 q 107 147 154 147 q 63 132 85 147 q 44 126 54 126 q 28 143 28 126 "},"Ñ":{"x_min":76.640625,"x_max":1211.3125,"ha":1228,"o":"m 479 1072 q 481 1082 479 1076 q 579 1199 507 1199 q 680 1158 622 1199 q 753 1124 728 1124 q 785 1151 779 1124 q 799 1167 788 1167 q 815 1151 815 1167 q 814 1142 815 1147 q 715 1024 788 1024 q 614 1066 673 1024 q 541 1099 566 1099 q 510 1072 516 1099 q 496 1057 507 1057 q 479 1072 479 1057 m 76 689 q 162 906 76 815 q 399 997 248 997 q 657 857 550 997 q 681 840 670 840 q 704 857 692 840 q 897 997 795 997 q 1116 805 1070 997 q 1171 697 1142 697 q 1182 700 1176 697 q 1193 704 1188 704 q 1211 683 1211 704 q 1198 666 1211 674 q 992 377 992 547 q 1031 211 992 281 q 1110 142 1071 142 q 1135 151 1126 142 q 1151 160 1144 160 q 1169 140 1169 160 q 1161 124 1169 131 l 1032 1 q 1001 -13 1017 -13 q 967 0 986 -13 q 850 268 850 82 q 1025 598 850 455 q 1037 617 1037 608 q 1019 635 1037 627 q 935 767 960 662 q 838 895 905 895 q 735 837 772 895 q 715 773 715 804 q 722 716 715 741 q 741 547 741 645 q 562 111 741 335 q 392 -13 463 -13 q 269 67 322 -13 q 202 127 231 127 q 181 116 190 127 q 163 105 172 105 q 145 123 145 105 q 152 141 145 132 q 306 248 239 248 q 424 167 373 248 q 491 108 462 108 q 532 133 511 108 q 622 428 622 242 q 494 767 622 615 q 312 864 412 864 q 163 817 212 864 q 114 689 114 771 q 231 559 114 559 q 284 564 255 559 q 336 570 312 570 q 470 403 470 570 q 451 378 470 378 q 432 403 432 378 q 368 444 432 444 q 311 438 344 444 q 251 432 278 432 q 76 689 76 432 "},"F":{"x_min":76.640625,"x_max":1045.140625,"ha":1070,"o":"m 157 401 q 76 621 76 476 q 194 882 76 767 q 514 997 311 997 q 816 908 626 997 q 970 860 916 860 q 1006 868 992 860 q 1028 876 1019 876 q 1045 859 1045 876 q 1029 838 1045 847 q 833 700 897 764 q 818 694 827 694 q 803 699 810 694 q 396 846 592 846 q 208 766 278 846 q 139 594 139 686 q 198 436 139 502 q 341 369 257 369 q 463 391 425 369 q 477 396 472 396 q 497 377 497 396 q 484 360 497 369 q 336 327 435 327 q 157 401 238 327 m 191 234 q 168 254 168 236 q 187 271 168 271 q 287 255 233 271 q 397 130 397 220 q 379 49 397 96 q 362 -39 362 2 q 391 -119 362 -88 q 494 -161 432 -161 q 666 -87 607 -161 q 709 60 709 -33 q 554 382 709 196 q 480 554 480 472 q 616 757 480 667 q 636 765 628 765 q 651 746 651 765 q 638 726 651 737 q 609 668 609 704 q 707 487 609 601 q 751 432 726 465 q 763 424 757 424 q 775 432 769 424 l 897 580 q 910 588 904 588 q 923 583 917 588 l 1036 486 q 1042 475 1042 481 q 1037 462 1042 469 l 944 349 q 931 341 937 341 q 918 346 924 341 l 835 417 q 823 422 830 422 q 811 415 816 422 l 797 398 q 790 381 790 389 q 794 366 790 373 q 864 132 864 249 q 803 -78 864 6 q 494 -199 713 -199 q 253 -116 337 -199 q 193 27 193 -57 q 209 122 193 75 q 225 192 225 169 q 191 234 225 231 "},"ĵ":{"x_min":-53.578125,"x_max":364.515625,"ha":357,"o":"m -3 775 q 4 790 -3 782 l 173 975 q 185 982 179 982 q 194 971 190 982 q 354 789 226 873 q 364 774 364 782 q 350 761 364 761 q 156 831 279 761 q 130 840 140 840 q 109 836 119 840 q 28 771 76 822 q 11 761 19 761 q -3 775 -3 761 m -27 -261 q -53 -246 -53 -261 q -27 -231 -53 -231 q 109 -59 109 -231 l 109 532 q 104 546 109 541 q 84 568 92 556 q 77 572 81 572 q 69 567 73 572 l 56 548 q 43 537 50 537 q 27 552 27 537 q 31 564 27 558 l 135 717 q 147 726 141 726 q 159 718 153 726 q 259 621 213 645 q 301 593 301 600 q 291 582 301 586 q 247 504 247 564 l 247 36 q 326 -176 247 -97 q 333 -194 333 -183 q 319 -207 333 -207 q 249 -124 303 -207 q 235 -112 242 -112 q 221 -122 227 -112 q -27 -261 130 -261 "},"ā":{"x_min":46.125,"x_max":623.96875,"ha":634,"o":"m 141 832 l 141 901 q 156 916 141 916 l 493 916 q 508 901 508 916 l 508 832 q 493 816 508 816 l 156 816 q 141 832 141 816 m 152 52 q 46 314 46 151 q 184 576 46 477 q 312 715 267 636 q 327 726 318 726 q 346 714 337 726 q 558 581 402 647 q 572 568 572 575 q 555 551 572 560 q 524 497 524 533 l 524 178 q 563 131 524 131 q 588 147 577 131 q 611 164 600 164 q 623 150 623 164 q 613 129 623 144 q 531 -1 557 48 q 515 -13 525 -13 q 500 -2 505 -13 q 478 17 495 9 q 394 111 415 50 q 388 117 392 117 q 379 113 384 117 l 222 -2 q 198 -13 206 -13 q 189 -1 189 -13 q 152 52 189 17 m 172 385 q 254 145 172 234 q 305 112 284 112 q 339 122 326 112 l 379 151 q 386 166 386 157 l 386 504 q 378 516 386 512 q 277 587 334 539 q 260 594 268 594 q 245 585 252 594 q 172 385 172 489 "},"Ĩ":{"x_min":73.25,"x_max":854.5625,"ha":898,"o":"m 312 1099 q 314 1109 312 1103 q 412 1226 340 1226 q 513 1185 455 1226 q 586 1151 561 1151 q 618 1178 612 1151 q 632 1194 621 1194 q 648 1178 648 1194 q 647 1169 648 1174 q 548 1051 621 1051 q 447 1093 506 1051 q 374 1126 399 1126 q 343 1099 349 1126 q 329 1084 340 1084 q 312 1099 312 1084 m 73 166 q 84 185 73 174 q 258 269 183 269 q 415 155 333 269 q 572 40 497 40 q 698 90 647 40 q 732 166 732 122 q 632 352 732 242 q 563 513 563 427 q 659 699 563 598 q 670 716 670 710 q 648 726 670 726 q 501 800 562 726 q 357 874 440 874 q 221 816 274 874 q 169 689 169 758 q 210 568 169 620 q 323 516 251 516 q 434 545 394 516 q 453 553 444 553 q 471 535 471 553 q 456 514 471 525 q 310 474 403 474 q 160 538 217 474 q 103 718 103 602 q 200 916 103 834 q 437 997 298 997 q 652 906 576 997 q 783 815 728 815 q 818 826 802 815 q 835 832 828 832 q 854 811 854 832 q 840 794 854 803 q 708 613 708 713 q 780 464 708 541 q 851 301 851 386 q 725 63 851 188 q 475 -30 629 -30 q 250 69 321 -30 q 139 168 179 168 q 111 158 122 168 q 90 148 100 148 q 73 166 73 148 "},"ă":{"x_min":46.125,"x_max":623.96875,"ha":634,"o":"m 144 968 q 156 982 144 982 q 175 963 168 982 q 327 895 202 895 q 479 963 452 895 q 498 982 486 982 q 510 968 510 982 q 509 958 510 963 q 327 792 476 792 q 145 958 178 792 q 144 968 144 963 m 152 52 q 46 314 46 151 q 184 576 46 477 q 312 715 267 636 q 327 726 318 726 q 346 714 337 726 q 558 581 402 647 q 572 568 572 575 q 555 551 572 560 q 524 497 524 533 l 524 178 q 563 131 524 131 q 588 147 577 131 q 611 164 600 164 q 623 150 623 164 q 613 129 623 144 q 531 -1 557 48 q 515 -13 525 -13 q 500 -2 505 -13 q 478 17 495 9 q 394 111 415 50 q 388 117 392 117 q 379 113 384 117 l 222 -2 q 198 -13 206 -13 q 189 -1 189 -13 q 152 52 189 17 m 172 385 q 254 145 172 234 q 305 112 284 112 q 339 122 326 112 l 379 151 q 386 166 386 157 l 386 504 q 378 516 386 512 q 277 587 334 539 q 260 594 268 594 q 245 585 252 594 q 172 385 172 489 "},"*":{"x_min":81.390625,"x_max":574.453125,"ha":655,"o":"m 81 925 q 94 933 81 932 q 183 978 139 934 q 192 984 187 984 q 200 971 198 984 q 299 872 213 900 q 304 872 301 872 q 311 881 311 872 q 247 1006 311 971 q 238 1015 238 1011 q 246 1024 238 1020 q 318 1096 301 1051 q 327 1105 322 1105 q 337 1096 333 1105 q 408 1024 354 1051 q 417 1015 417 1020 q 408 1006 417 1011 q 343 881 343 971 q 351 872 343 872 q 356 872 354 872 q 455 971 442 902 q 463 984 457 984 q 472 978 468 984 q 561 933 516 934 q 574 925 574 932 q 568 916 574 921 q 522 824 529 882 q 514 814 520 814 q 504 820 510 814 q 423 853 472 853 q 365 843 393 853 q 358 835 358 840 q 362 827 358 832 q 470 764 408 764 q 482 765 476 764 q 491 765 487 765 q 500 759 500 765 q 497 750 500 755 q 478 678 478 712 q 480 657 478 666 q 482 644 482 647 q 476 636 482 636 q 467 640 473 636 q 400 659 437 659 q 376 657 387 659 q 362 655 365 655 q 354 661 354 655 q 357 671 354 665 q 369 720 369 698 q 336 809 369 763 q 327 815 332 815 q 319 809 323 815 q 286 720 286 763 q 298 671 286 698 q 301 661 301 665 q 293 655 301 655 q 279 657 290 655 q 255 659 267 659 q 187 640 218 659 q 179 636 182 636 q 172 644 172 636 q 175 657 172 647 q 177 678 177 666 q 158 750 177 712 q 155 759 155 755 q 164 765 155 765 q 173 765 168 765 q 185 764 179 764 q 293 827 246 764 q 297 835 297 832 q 290 843 297 840 q 232 853 262 853 q 151 820 183 853 q 141 814 145 814 q 133 824 134 814 q 87 916 126 882 q 81 925 81 921 "},"°":{"x_min":37.296875,"x_max":427.953125,"ha":465,"o":"m 37 733 q 94 910 37 836 q 232 984 151 984 q 370 910 313 984 q 427 733 427 836 q 370 555 427 628 q 232 481 313 481 q 94 555 151 481 q 37 733 37 628 m 172 733 q 181 585 172 646 q 232 524 189 524 q 284 585 275 524 q 293 733 293 646 q 284 880 293 819 q 232 941 275 941 q 181 880 189 941 q 172 733 172 819 "},"å":{"x_min":46.125,"x_max":623.96875,"ha":634,"o":"m 175 919 q 251 1054 175 1014 q 322 1072 284 1072 q 429 1026 389 1072 q 470 919 470 980 q 394 784 470 823 q 322 766 361 766 q 216 812 256 766 q 175 919 175 858 m 247 991 q 278 896 247 957 q 364 806 327 806 q 379 810 372 806 q 398 846 398 820 q 367 942 398 881 q 281 1032 319 1032 q 266 1028 273 1032 q 247 991 247 1018 m 152 52 q 46 314 46 151 q 184 576 46 477 q 312 715 267 636 q 327 726 318 726 q 346 714 337 726 q 558 581 402 647 q 572 568 572 575 q 555 551 572 560 q 524 497 524 533 l 524 178 q 563 131 524 131 q 588 147 577 131 q 611 164 600 164 q 623 150 623 164 q 613 129 623 144 q 531 -1 557 48 q 515 -13 525 -13 q 500 -2 505 -13 q 478 17 495 9 q 394 111 415 50 q 388 117 392 117 q 379 113 384 117 l 222 -2 q 198 -13 206 -13 q 189 -1 189 -13 q 152 52 189 17 m 172 385 q 254 145 172 234 q 305 112 284 112 q 339 122 326 112 l 379 151 q 386 166 386 157 l 386 504 q 378 516 386 512 q 277 587 334 539 q 260 594 268 594 q 245 585 252 594 q 172 385 172 489 "},"0":{"x_min":42.734375,"x_max":559.53125,"ha":602,"o":"m 259 30 q 42 341 42 170 q 271 713 42 512 q 299 726 286 726 q 319 709 311 726 q 343 682 328 692 q 559 371 559 541 q 330 0 559 200 q 303 -13 315 -13 q 282 3 290 -13 q 259 30 274 20 m 126 436 q 356 130 126 289 q 392 118 374 118 q 425 139 409 118 q 475 276 475 206 q 245 582 475 424 q 209 595 226 595 q 176 573 192 595 q 126 436 126 505 "},"ō":{"x_min":61.71875,"x_max":590.734375,"ha":637,"o":"m 109 832 l 109 901 q 124 916 109 916 l 443 916 q 458 901 458 916 l 458 832 q 443 816 458 816 l 124 816 q 109 832 109 816 m 75 131 q 61 144 61 137 q 78 161 61 151 q 109 215 109 179 l 109 613 q 120 626 109 625 q 430 720 322 651 q 448 726 438 726 q 459 712 457 726 q 509 594 470 638 q 590 362 590 502 q 431 113 590 224 q 321 0 358 63 q 305 -13 314 -13 q 287 -2 297 -13 q 75 131 227 66 m 247 208 q 255 196 247 200 q 351 130 292 177 q 377 122 362 122 q 411 136 392 122 q 471 298 471 180 q 396 515 471 416 q 341 617 354 573 q 326 636 336 636 q 308 633 317 636 q 260 620 291 627 q 247 604 247 617 l 247 208 "},"ŵ":{"x_min":28.484375,"x_max":891.859375,"ha":938,"o":"m 228 775 q 236 790 228 782 l 405 975 q 417 982 411 982 q 426 971 422 982 q 586 789 458 873 q 596 774 596 782 q 582 761 596 761 q 388 831 511 761 q 362 840 372 840 q 341 836 351 840 q 260 771 308 822 q 243 761 251 761 q 228 775 228 761 m 28 685 q 120 834 28 753 q 139 845 132 845 q 151 831 151 845 q 143 814 151 823 q 119 766 119 790 q 158 716 119 742 q 243 588 229 667 q 249 578 245 578 q 258 582 253 578 l 404 719 q 420 726 412 726 q 436 721 428 726 q 542 602 512 672 q 549 595 545 595 q 556 598 553 595 l 715 714 q 739 726 731 726 q 748 714 748 726 q 785 660 748 695 q 891 398 891 560 q 753 136 891 235 q 625 -2 670 76 q 610 -13 619 -13 q 591 -2 600 -13 q 384 134 484 126 q 368 146 368 136 q 383 165 368 155 q 413 215 413 183 l 413 502 q 370 600 413 569 q 344 609 357 609 q 320 599 331 609 l 260 542 q 247 512 247 530 l 247 208 q 288 131 247 161 q 295 120 295 126 q 286 108 295 114 q 192 -1 232 71 q 178 -13 185 -13 q 164 -1 171 -13 q 70 108 124 71 q 61 120 61 114 q 69 131 61 126 q 109 208 109 161 l 109 550 q 84 600 109 583 q 28 685 28 636 m 551 225 q 565 206 551 212 q 661 126 621 177 q 676 115 669 115 q 692 126 684 115 q 765 326 765 224 q 683 567 765 478 q 632 600 653 600 q 599 591 611 600 l 559 561 q 551 546 551 555 l 551 225 "},"Ķ":{"x_min":-75.96875,"x_max":988.84375,"ha":1021,"o":"m 424 -55 q 414 -45 414 -51 q 424 -34 414 -39 q 511 51 484 -4 q 521 62 515 62 q 532 51 528 62 q 619 -34 561 -6 q 626 -43 626 -38 q 532 -274 626 -130 q 498 -308 511 -308 q 489 -298 489 -308 q 493 -285 489 -292 q 523 -186 523 -229 q 424 -55 523 -97 m -75 105 q -65 124 -75 115 q 102 204 32 204 q 201 148 152 204 q 296 92 250 92 q 331 105 316 92 q 347 142 347 118 q 232 363 347 212 q 117 644 117 513 q 254 886 117 775 q 569 997 392 997 q 868 889 747 997 q 988 639 988 781 q 824 402 988 497 q 807 397 816 397 q 790 415 790 397 q 806 435 790 426 q 912 639 912 496 q 804 871 912 782 q 569 959 696 959 q 356 892 442 959 q 269 720 269 825 q 286 630 269 677 q 307 599 298 599 q 323 631 316 599 q 541 832 366 832 q 788 643 711 832 q 822 605 803 605 q 835 610 828 605 q 853 615 843 615 q 869 598 869 615 q 853 576 869 586 l 691 477 q 676 460 676 468 q 694 444 676 451 q 734 412 716 436 q 795 275 765 371 q 860 140 826 178 q 919 102 894 102 q 940 108 931 102 q 957 115 949 115 q 974 96 974 115 q 963 78 974 86 l 859 8 q 798 -13 828 -13 q 707 34 750 -13 q 630 184 663 82 q 568 326 598 286 q 515 365 537 365 q 501 361 509 365 q 486 356 494 356 q 469 375 469 356 q 482 394 469 385 l 663 504 q 677 521 677 513 q 660 537 677 530 q 607 599 626 553 q 469 735 551 735 q 360 623 382 735 q 356 581 356 602 q 404 437 356 510 q 460 257 460 352 q 353 74 460 163 q 164 -13 246 -13 q 49 43 99 -13 q -27 99 -1 99 q -42 93 -35 99 q -59 87 -50 87 q -75 105 -75 87 "},"ö":{"x_min":61.71875,"x_max":590.734375,"ha":637,"o":"m 367 885 q 397 954 367 933 q 460 975 427 975 q 529 914 529 975 q 486 831 529 870 q 416 793 443 793 q 380 829 392 793 q 367 885 367 864 m 116 885 q 146 954 116 933 q 209 975 176 975 q 278 914 278 975 q 235 831 278 870 q 165 793 192 793 q 129 829 141 793 q 116 885 116 864 m 75 131 q 61 144 61 137 q 78 161 61 151 q 109 215 109 179 l 109 613 q 120 626 109 625 q 430 720 322 651 q 448 726 438 726 q 459 712 457 726 q 509 594 470 638 q 590 362 590 502 q 431 113 590 224 q 321 0 358 63 q 305 -13 314 -13 q 287 -2 297 -13 q 75 131 227 66 m 247 208 q 255 196 247 200 q 351 130 292 177 q 377 122 362 122 q 411 136 392 122 q 471 298 471 180 q 396 515 471 416 q 341 617 354 573 q 326 636 336 636 q 308 633 317 636 q 260 620 291 627 q 247 604 247 617 l 247 208 "},"Ļ":{"x_min":63.75,"x_max":807.765625,"ha":828,"o":"m 400 -161 q 389 -148 389 -156 q 400 -135 389 -140 q 470 -67 447 -112 q 481 -56 475 -56 q 494 -66 487 -56 q 561 -136 517 -112 q 573 -154 573 -142 q 464 -302 573 -237 q 447 -308 454 -308 q 433 -293 433 -308 q 449 -275 433 -284 q 477 -228 477 -259 q 400 -161 477 -194 m 63 139 q 77 160 63 150 q 213 280 168 232 q 259 372 259 327 q 184 513 259 416 q 109 714 109 609 q 212 908 109 818 q 452 997 314 997 q 687 923 590 997 q 784 739 784 849 q 711 569 784 628 q 550 510 638 510 q 457 529 489 510 q 444 545 444 536 q 461 565 444 565 q 477 561 470 565 q 535 551 495 551 q 615 596 576 551 q 655 739 655 640 q 597 898 655 838 q 452 959 539 959 q 317 904 364 959 q 270 774 270 848 q 337 616 270 700 q 404 463 404 532 q 306 305 404 394 q 290 279 290 290 q 310 263 290 269 q 376 227 346 254 q 613 94 522 94 q 769 176 704 94 q 790 189 779 189 q 807 172 807 189 q 800 153 807 162 q 523 -30 660 -30 q 246 96 385 -30 q 156 146 191 146 q 99 129 120 146 q 80 122 90 122 q 63 139 63 122 "},"Õ":{"x_min":52.21875,"x_max":1009.875,"ha":1056,"o":"m 371 1106 q 373 1116 371 1110 q 471 1233 399 1233 q 572 1192 514 1233 q 645 1158 620 1158 q 677 1185 671 1158 q 691 1201 680 1201 q 707 1185 707 1201 q 706 1176 707 1181 q 607 1058 680 1058 q 506 1100 565 1058 q 433 1133 458 1133 q 402 1106 408 1133 q 388 1091 399 1091 q 371 1106 371 1091 m 52 137 q 63 157 52 147 q 243 247 160 247 q 400 184 327 247 q 652 59 545 59 q 833 126 761 59 q 904 336 904 193 q 605 786 904 655 q 427 830 504 830 q 333 809 379 830 q 217 657 217 752 q 330 548 217 592 q 484 397 484 488 q 408 255 484 335 q 386 244 398 244 q 368 260 368 244 q 376 277 368 269 q 383 294 383 286 q 255 380 383 330 q 75 591 75 449 q 316 843 75 732 q 482 975 425 893 q 519 997 498 997 q 688 950 579 997 q 1009 459 1009 811 q 849 88 1009 240 q 526 -30 723 -30 q 268 54 373 -30 q 115 139 164 139 q 89 130 99 139 q 70 121 80 121 q 52 137 52 121 "},"ć":{"x_min":46.125,"x_max":477.46875,"ha":517,"o":"m 137 745 q 144 757 137 750 q 264 970 254 876 q 272 982 266 982 q 283 977 276 982 l 374 911 q 381 901 381 906 q 377 889 381 895 q 227 763 321 815 q 152 730 167 730 q 137 745 137 730 m 46 370 q 227 672 46 594 q 365 713 322 713 q 372 708 370 713 l 442 533 q 443 526 443 529 q 433 513 443 517 l 333 473 q 326 472 330 472 q 314 482 318 472 l 252 638 q 244 644 249 644 q 240 644 242 644 q 174 436 174 617 q 210 232 174 301 q 360 115 273 115 q 449 143 395 115 q 463 147 459 147 q 477 131 477 147 q 465 117 477 124 q 267 -4 364 61 q 247 -13 255 -13 q 235 2 240 -13 q 215 29 231 18 q 46 370 46 139 "},"þ":{"x_min":8.8125,"x_max":615.140625,"ha":661,"o":"m 8 67 q 12 82 8 73 q 126 225 62 203 q 137 240 137 229 l 137 683 q 59 896 137 809 q 51 914 51 904 q 65 927 51 927 q 135 844 81 927 q 150 832 143 832 q 163 843 157 832 q 413 982 254 982 q 438 966 438 982 q 413 951 438 951 q 275 779 275 951 l 275 609 q 279 600 275 600 q 287 603 282 600 l 438 714 q 463 726 454 726 q 471 714 471 726 q 508 660 471 695 q 615 400 615 560 q 476 136 615 233 q 347 -4 401 82 q 334 -13 341 -13 q 317 -6 326 -13 q 277 21 296 8 q 270 23 274 23 q 267 17 267 23 q 217 -264 242 -179 q 205 -276 213 -276 q 194 -264 198 -276 q 141 75 149 -112 q 128 93 140 90 q 89 100 105 100 q 39 69 53 100 q 22 53 32 53 q 8 67 8 53 m 275 196 q 290 172 275 179 q 379 120 328 153 q 396 114 387 114 q 415 126 406 114 q 489 326 489 221 q 406 567 489 478 q 354 600 377 600 q 322 590 335 600 l 286 564 q 275 541 275 557 l 275 196 "},"]":{"x_min":18.0625,"x_max":237.125,"ha":345,"o":"m 237 965 l 237 -245 q 221 -262 237 -262 l 33 -262 q 18 -246 18 -262 q 33 -231 18 -231 l 96 -231 q 112 -215 112 -231 l 112 935 q 96 951 112 951 l 33 951 q 18 966 18 951 q 33 981 18 981 l 221 981 q 237 965 237 981 "},"ĭ":{"x_min":-35.765625,"x_max":347.25,"ha":357,"o":"m -35 968 q -23 982 -35 982 q -4 963 -11 982 q 147 895 22 895 q 299 963 272 895 q 318 982 306 982 q 330 968 330 982 q 329 958 330 963 q 147 792 296 792 q -34 958 -1 792 q -35 968 -35 963 m 27 552 q 31 564 27 558 l 135 717 q 147 726 141 726 q 159 718 153 726 q 259 621 213 645 q 301 593 301 600 q 291 582 301 586 q 247 504 247 564 l 247 178 q 286 131 247 131 q 311 147 300 131 q 335 164 323 164 q 347 150 347 164 q 336 129 347 144 q 255 -1 284 57 q 239 -13 248 -13 q 223 -2 229 -13 q 202 17 218 9 q 109 166 109 63 l 109 532 q 104 546 109 541 q 84 568 92 556 q 77 572 81 572 q 69 567 73 572 l 56 548 q 43 537 50 537 q 27 552 27 537 "},"8":{"x_min":42.734375,"x_max":559.53125,"ha":602,"o":"m 42 282 q 206 506 42 387 q 212 516 212 511 q 205 527 212 522 q 105 688 105 599 q 293 960 105 810 q 321 975 311 975 q 339 957 332 975 q 358 931 345 940 q 497 757 497 842 q 398 596 497 672 q 389 584 389 590 q 396 575 389 579 q 559 337 559 467 q 330 0 559 186 q 301 -13 312 -13 q 284 4 290 -13 q 265 29 277 22 q 42 282 42 155 m 153 353 q 330 150 153 252 q 396 127 370 127 q 436 144 421 127 q 481 251 481 197 q 263 491 481 370 q 251 495 257 495 q 238 489 245 495 q 153 353 153 422 m 174 775 q 339 610 174 704 q 350 607 345 607 q 362 613 356 607 q 397 685 397 649 q 293 810 397 746 q 227 834 255 834 q 185 810 200 834 q 174 775 174 794 "},"R":{"x_min":70.53125,"x_max":1232.328125,"ha":1248,"o":"m 130 505 q 70 699 70 581 q 166 908 70 818 q 409 997 263 997 q 663 857 556 997 q 687 842 675 842 q 708 862 698 842 q 908 997 776 997 q 1121 766 1071 997 q 1144 728 1129 728 q 1155 732 1149 728 q 1170 736 1161 736 q 1187 718 1187 736 q 1173 698 1187 708 l 978 567 q 969 554 969 561 q 984 538 969 547 q 1024 493 1008 523 q 1072 308 1053 436 q 1119 141 1091 181 q 1176 101 1147 102 q 1197 108 1187 101 q 1215 115 1207 115 q 1232 96 1232 115 q 1220 78 1232 86 l 1117 8 q 1057 -13 1085 -13 q 959 49 1003 -13 q 895 247 915 112 q 855 419 874 381 q 820 457 835 457 q 807 453 813 457 q 792 449 801 449 q 775 467 775 449 q 790 487 775 477 l 990 621 q 1002 637 1002 629 q 988 652 1002 644 q 938 737 953 670 q 834 922 897 922 q 742 845 781 922 q 725 769 725 811 q 731 714 725 742 q 748 547 748 642 q 569 111 748 335 q 399 -13 470 -13 q 276 67 328 -13 q 209 127 238 127 q 188 116 197 127 q 170 105 179 105 q 151 123 151 105 q 159 141 151 132 q 311 248 244 248 q 431 167 379 248 q 497 108 469 108 q 539 133 518 108 q 629 428 629 242 q 501 767 629 615 q 333 853 427 853 q 187 794 238 853 q 137 661 137 734 q 183 531 137 589 q 309 472 229 472 q 432 510 390 472 q 453 520 444 520 q 472 501 472 520 q 460 482 472 493 q 294 429 399 429 q 130 505 189 429 "},"ť":{"x_min":18.3125,"x_max":480.4375,"ha":415,"o":"m 35 575 q 18 585 18 575 q 34 605 18 594 q 284 891 227 734 q 302 910 291 910 q 315 896 315 910 q 312 881 315 889 q 248 659 248 691 q 259 649 248 649 l 371 649 q 386 634 386 649 l 386 590 q 371 575 386 575 l 262 575 q 247 560 247 575 l 247 180 q 294 131 247 131 q 343 164 311 131 q 358 174 352 174 q 374 160 374 174 q 366 144 374 153 q 262 -4 295 61 q 250 -13 257 -13 q 233 -4 242 -13 q 69 98 147 88 q 57 107 57 99 q 65 120 57 115 q 109 198 109 144 l 109 560 q 96 575 109 575 l 35 575 m 307 972 q 296 985 296 977 q 307 998 296 994 q 377 1066 354 1021 q 388 1077 382 1077 q 401 1067 394 1077 q 468 997 424 1021 q 480 979 480 991 q 371 831 480 896 q 354 825 361 825 q 340 840 340 825 q 356 858 340 849 q 384 905 384 874 q 307 972 384 939 "},"Ľ":{"x_min":63.75,"x_max":807.765625,"ha":828,"o":"m 641 1237 q 633 1222 641 1230 l 464 1037 q 452 1030 458 1030 q 443 1041 447 1030 q 283 1223 411 1139 q 273 1238 273 1230 q 287 1251 273 1251 q 481 1181 358 1251 q 507 1172 497 1172 q 528 1176 518 1172 q 609 1241 561 1190 q 626 1251 618 1251 q 641 1237 641 1251 m 63 139 q 77 160 63 150 q 213 280 168 232 q 259 372 259 327 q 184 513 259 416 q 109 714 109 609 q 212 908 109 818 q 452 997 314 997 q 687 923 590 997 q 784 739 784 849 q 711 569 784 628 q 550 510 638 510 q 457 529 489 510 q 444 545 444 536 q 461 565 444 565 q 477 561 470 565 q 535 551 495 551 q 615 596 576 551 q 655 739 655 640 q 597 898 655 838 q 452 959 539 959 q 317 904 364 959 q 270 774 270 848 q 337 616 270 700 q 404 463 404 532 q 306 305 404 394 q 290 279 290 290 q 310 263 290 269 q 376 227 346 254 q 613 94 522 94 q 769 176 704 94 q 790 189 779 189 q 807 172 807 189 q 800 153 807 162 q 523 -30 660 -30 q 246 96 385 -30 q 156 146 191 146 q 99 129 120 146 q 80 122 90 122 q 63 139 63 122 "},"Ż":{"x_min":14.921875,"x_max":872.875,"ha":919,"o":"m 448 1160 q 478 1229 448 1208 q 541 1250 508 1250 q 610 1189 610 1250 q 567 1106 610 1145 q 497 1068 524 1068 q 461 1104 473 1068 q 448 1160 448 1139 m 14 0 q 25 17 14 8 q 200 106 124 106 q 379 -2 276 106 q 568 -111 482 -111 q 668 -88 633 -111 q 741 88 741 -37 q 648 289 741 189 q 449 389 555 389 q 366 375 406 389 q 355 373 360 373 q 335 394 335 373 q 352 411 335 405 q 672 665 672 516 q 635 759 672 716 q 437 851 556 851 q 265 798 318 851 q 212 689 212 746 q 243 589 212 631 q 333 548 274 548 q 358 529 358 548 q 333 510 358 510 q 194 559 246 510 q 142 709 142 609 q 238 904 142 810 q 504 997 335 997 q 763 893 674 997 q 821 729 821 826 q 666 505 821 604 q 657 494 657 499 q 669 485 657 489 q 802 393 732 467 q 872 174 872 318 q 689 -118 872 7 q 455 -199 572 -199 q 217 -99 311 -199 q 78 0 124 0 q 53 -9 63 0 q 34 -18 42 -18 q 14 0 14 -18 "},"o":{"x_min":61.71875,"x_max":590.734375,"ha":637,"o":"m 75 131 q 61 144 61 137 q 78 161 61 151 q 109 215 109 179 l 109 613 q 120 626 109 625 q 430 720 322 651 q 448 726 438 726 q 459 712 457 726 q 509 594 470 638 q 590 362 590 502 q 431 113 590 224 q 321 0 358 63 q 305 -13 314 -13 q 287 -2 297 -13 q 75 131 227 66 m 247 208 q 255 196 247 200 q 351 130 292 177 q 377 122 362 122 q 411 136 392 122 q 471 298 471 180 q 396 515 471 416 q 341 617 354 573 q 326 636 336 636 q 308 633 317 636 q 260 620 291 627 q 247 604 247 617 l 247 208 "},"5":{"x_min":35.953125,"x_max":518.84375,"ha":595,"o":"m 35 275 q 39 290 35 281 l 181 691 q 210 726 193 726 q 227 719 218 726 q 364 684 278 684 q 486 710 467 684 q 508 726 498 726 q 518 714 518 726 q 516 704 518 710 q 333 550 465 550 q 188 585 254 550 q 174 579 178 591 l 119 423 q 128 411 115 411 q 508 89 508 411 q 367 -168 508 -71 q 103 -265 225 -265 q 88 -251 88 -265 q 111 -236 88 -240 q 389 46 389 -179 q 93 271 389 271 q 67 266 80 271 q 47 261 54 261 q 35 275 35 261 "},"ħ":{"x_min":4.75,"x_max":617.1875,"ha":663,"o":"m 8 571 q 4 581 4 576 q 11 592 4 587 l 94 653 q 109 683 109 664 q 31 896 109 817 q 23 914 23 904 q 37 927 23 927 q 107 844 53 927 q 122 832 115 832 q 135 843 129 832 q 385 982 219 982 q 411 966 411 982 q 385 951 411 951 q 247 784 247 951 q 253 772 247 772 q 261 776 256 772 l 315 815 q 326 819 320 819 q 336 813 331 819 l 349 795 q 353 784 353 790 q 346 774 353 779 l 262 712 q 247 682 247 701 l 247 612 q 252 600 247 600 q 261 604 256 600 l 411 714 q 435 726 426 726 q 443 714 443 726 q 480 660 443 696 q 617 321 617 528 q 177 -261 617 50 q 158 -267 169 -267 q 147 -253 147 -267 q 156 -238 147 -246 q 480 245 480 34 q 379 567 480 457 q 327 600 349 600 q 294 591 306 600 l 258 564 q 247 541 247 556 l 247 180 q 294 131 247 131 q 343 164 311 131 q 358 174 352 174 q 374 160 374 174 q 366 144 374 153 q 262 -4 295 61 q 250 -13 257 -13 q 233 -4 242 -13 q 69 98 147 88 q 57 107 57 99 q 65 120 57 115 q 109 198 109 144 l 109 581 q 103 593 109 593 q 94 589 100 593 l 42 550 q 31 546 37 546 q 21 553 26 546 l 8 571 "},"õ":{"x_min":61.71875,"x_max":590.734375,"ha":637,"o":"m 121 832 q 123 842 121 836 q 221 959 149 959 q 322 918 264 959 q 395 884 370 884 q 427 911 421 884 q 441 927 430 927 q 457 911 457 927 q 456 902 457 907 q 357 784 430 784 q 256 826 315 784 q 183 859 208 859 q 152 832 158 859 q 138 817 149 817 q 121 832 121 817 m 75 131 q 61 144 61 137 q 78 161 61 151 q 109 215 109 179 l 109 613 q 120 626 109 625 q 430 720 322 651 q 448 726 438 726 q 459 712 457 726 q 509 594 470 638 q 590 362 590 502 q 431 113 590 224 q 321 0 358 63 q 305 -13 314 -13 q 287 -2 297 -13 q 75 131 227 66 m 247 208 q 255 196 247 200 q 351 130 292 177 q 377 122 362 122 q 411 136 392 122 q 471 298 471 180 q 396 515 471 416 q 341 617 354 573 q 326 636 336 636 q 308 633 317 636 q 260 620 291 627 q 247 604 247 617 l 247 208 "},",":{"x_min":63.078125,"x_max":275.359375,"ha":301,"o":"m 73 84 q 63 94 63 88 q 73 105 63 100 q 160 191 133 135 q 170 202 164 202 q 181 191 177 202 q 268 105 210 133 q 275 96 275 101 q 181 -134 275 9 q 147 -168 160 -168 q 138 -158 138 -168 q 142 -145 138 -152 q 172 -46 172 -89 q 73 84 172 42 "},"d":{"x_min":61.71875,"x_max":594.125,"ha":640,"o":"m 75 131 q 61 144 61 137 q 78 161 61 151 q 109 215 109 179 l 109 544 q 124 561 109 561 q 226 592 185 561 l 259 617 q 265 625 265 621 q 257 633 265 629 q 73 818 73 726 q 195 975 73 910 q 212 982 206 982 q 225 967 225 982 q 210 949 225 957 q 172 893 172 929 q 341 744 172 830 q 594 370 594 614 q 436 92 594 202 q 326 3 343 29 q 302 -13 315 -13 q 278 -2 289 -13 q 75 131 202 77 m 247 210 q 259 188 247 196 q 354 118 307 162 q 384 103 368 103 q 417 117 400 103 q 497 299 497 183 q 314 602 497 509 q 301 606 308 606 q 288 601 295 606 l 260 579 q 247 553 247 570 l 247 210 "},"\"":{"x_min":63.078125,"x_max":540.109375,"ha":563,"o":"m 331 863 q 323 874 323 869 q 333 885 323 879 q 420 971 391 915 q 431 982 424 982 q 443 971 438 982 q 529 885 468 916 q 540 874 540 879 q 531 863 540 869 q 500 824 513 849 q 442 628 449 720 q 431 611 441 611 q 420 628 422 611 q 362 824 413 722 q 331 863 348 852 m 71 863 q 63 874 63 869 q 73 885 63 879 q 160 971 131 915 q 171 982 164 982 q 183 971 178 982 q 269 885 208 916 q 280 874 280 879 q 271 863 280 869 q 240 824 253 849 q 182 628 189 720 q 171 611 181 611 q 160 628 162 611 q 102 824 153 722 q 71 863 88 852 "},"ê":{"x_min":46.125,"x_max":477.46875,"ha":517,"o":"m 99 774 q 110 789 99 782 q 270 971 237 873 q 279 982 273 982 q 291 975 285 982 l 460 790 q 467 775 467 782 q 452 761 467 761 q 436 771 445 761 q 354 836 387 822 q 334 840 344 840 q 308 831 323 840 q 114 761 184 761 q 99 774 99 761 m 46 370 q 227 672 46 593 q 365 713 322 713 q 372 708 370 713 l 468 466 q 470 458 470 462 q 459 444 470 449 l 194 339 q 182 326 182 335 q 183 319 182 322 q 210 232 191 268 q 360 115 273 115 q 449 143 395 115 q 463 147 459 147 q 477 131 477 147 q 465 117 477 124 q 267 -4 364 61 q 247 -13 255 -13 q 235 2 240 -13 q 215 29 231 18 q 46 370 46 139 m 174 436 q 177 375 174 389 q 182 368 178 368 q 190 370 185 368 l 322 423 q 331 435 331 427 q 329 443 331 438 l 252 638 q 244 644 249 644 q 240 644 242 644 q 174 436 174 619 "},"ľ":{"x_min":23.734375,"x_max":541.21875,"ha":385,"o":"m 23 914 q 37 927 23 927 q 107 844 53 927 q 122 832 115 832 q 135 843 129 832 q 336 982 219 982 q 497 935 454 982 q 541 822 541 888 q 343 649 541 699 q 333 647 337 647 q 318 662 318 647 q 335 678 318 674 q 425 822 425 701 q 398 915 425 880 q 336 951 371 951 q 274 906 301 951 q 247 779 247 862 l 247 180 q 294 131 247 131 q 343 164 311 131 q 358 174 352 174 q 374 160 374 174 q 366 144 374 153 q 262 -4 295 61 q 250 -13 257 -13 q 233 -4 242 -13 q 69 98 147 88 q 57 107 57 99 q 65 120 57 115 q 109 198 109 144 l 109 683 q 31 896 109 817 q 23 914 23 904 "},"Â":{"x_min":21.703125,"x_max":1066.171875,"ha":1066,"o":"m 552 1015 q 560 1030 552 1022 l 729 1215 q 741 1222 735 1222 q 750 1211 746 1222 q 910 1029 782 1113 q 920 1014 920 1022 q 906 1001 920 1001 q 712 1071 835 1001 q 686 1080 696 1080 q 665 1076 675 1080 q 584 1011 632 1062 q 567 1001 575 1001 q 552 1015 552 1001 m 21 666 q 83 851 21 761 q 346 997 183 997 q 594 902 509 997 q 671 686 671 817 q 398 275 671 491 q 382 253 382 262 q 412 237 382 241 q 522 165 465 229 q 635 100 578 100 q 704 134 672 100 q 773 309 773 208 l 773 797 q 752 822 773 822 q 731 839 731 822 q 749 862 731 857 q 991 990 868 893 q 1010 997 1001 997 q 1026 981 1026 997 q 1015 960 1026 970 q 927 803 927 885 l 927 204 q 981 101 927 101 q 1028 130 1000 101 q 1048 139 1038 139 q 1066 122 1066 139 q 1058 105 1066 113 l 978 23 q 897 -13 941 -13 q 780 103 795 -13 q 764 129 777 129 q 732 109 752 129 q 514 -13 613 -13 q 362 66 432 -13 q 246 147 293 147 q 202 132 224 147 q 183 126 193 126 q 167 143 167 126 q 180 163 167 154 q 518 600 518 381 q 448 788 518 710 q 255 894 354 894 q 115 830 157 894 q 80 726 80 778 q 202 594 80 644 q 333 465 333 540 q 255 336 333 414 q 238 327 246 327 q 219 347 219 327 q 229 364 219 355 q 247 397 247 380 q 154 475 247 436 q 21 666 21 531 m 991 990 l 991 990 "},"Į":{"x_min":73.25,"x_max":854.5625,"ha":898,"o":"m 73 166 q 84 185 73 174 q 258 269 183 269 q 415 155 333 269 q 572 40 497 40 q 698 90 647 40 q 732 166 732 122 q 632 352 732 242 q 563 511 563 427 q 659 699 563 596 q 670 716 670 710 q 648 726 670 726 q 501 800 562 726 q 357 874 440 874 q 221 816 274 874 q 169 689 169 758 q 210 568 169 620 q 323 516 251 516 q 434 545 394 516 q 453 553 444 553 q 471 535 471 553 q 456 514 471 525 q 310 474 403 474 q 160 538 217 474 q 103 718 103 602 q 200 916 103 834 q 437 997 298 997 q 652 906 576 997 q 783 815 728 815 q 818 826 802 815 q 835 832 828 832 q 854 811 854 832 q 840 794 854 803 q 708 613 708 713 q 780 464 708 541 q 851 301 851 386 q 725 63 851 188 q 678 -45 678 16 q 690 -102 678 -75 q 728 -128 703 -128 q 765 -114 754 -128 q 782 -99 775 -99 q 797 -113 797 -99 q 790 -130 797 -120 q 715 -257 743 -197 q 696 -274 707 -274 q 678 -265 685 -274 q 658 -251 672 -256 q 577 -133 577 -223 q 602 -35 577 -88 q 606 -21 606 -26 q 598 -13 606 -13 q 588 -15 594 -13 q 475 -30 537 -30 q 250 69 321 -30 q 139 168 179 168 q 111 158 122 168 q 90 148 100 148 q 73 166 73 148 "},"ė":{"x_min":46.125,"x_max":477.46875,"ha":517,"o":"m 180 885 q 210 954 180 933 q 273 975 240 975 q 342 914 342 975 q 299 831 342 870 q 229 793 256 793 q 193 829 205 793 q 180 885 180 864 m 46 370 q 227 672 46 593 q 365 713 322 713 q 372 708 370 713 l 468 466 q 470 458 470 462 q 459 444 470 449 l 194 339 q 182 326 182 335 q 183 319 182 322 q 210 232 191 268 q 360 115 273 115 q 449 143 395 115 q 463 147 459 147 q 477 131 477 147 q 465 117 477 124 q 267 -4 364 61 q 247 -13 255 -13 q 235 2 240 -13 q 215 29 231 18 q 46 370 46 139 m 174 436 q 177 375 174 389 q 182 368 178 368 q 190 370 185 368 l 322 423 q 331 435 331 427 q 329 443 331 438 l 252 638 q 244 644 249 644 q 240 644 242 644 q 174 436 174 619 "},"Í":{"x_min":73.25,"x_max":854.5625,"ha":898,"o":"m 220 1014 q 227 1026 220 1019 q 347 1239 337 1145 q 355 1251 349 1251 q 366 1246 359 1251 l 457 1180 q 464 1170 464 1175 q 460 1158 464 1164 q 310 1032 404 1084 q 235 999 250 999 q 220 1014 220 999 m 73 166 q 84 185 73 174 q 258 269 183 269 q 415 155 333 269 q 572 40 497 40 q 698 90 647 40 q 732 166 732 122 q 632 352 732 242 q 563 513 563 427 q 659 699 563 598 q 670 716 670 710 q 648 726 670 726 q 501 800 562 726 q 357 874 440 874 q 221 816 274 874 q 169 689 169 758 q 210 568 169 620 q 323 516 251 516 q 434 545 394 516 q 453 553 444 553 q 471 535 471 553 q 456 514 471 525 q 310 474 403 474 q 160 538 217 474 q 103 718 103 602 q 200 916 103 834 q 437 997 298 997 q 652 906 576 997 q 783 815 728 815 q 818 826 802 815 q 835 832 828 832 q 854 811 854 832 q 840 794 854 803 q 708 613 708 713 q 780 464 708 541 q 851 301 851 386 q 725 63 851 188 q 475 -30 629 -30 q 250 69 321 -30 q 139 168 179 168 q 111 158 122 168 q 90 148 100 148 q 73 166 73 148 "},"´":{"x_min":31.875,"x_max":275.359375,"ha":308,"o":"m 31 745 q 38 757 31 750 q 158 970 148 876 q 166 982 160 982 q 177 977 170 982 l 268 911 q 275 901 275 906 q 271 889 275 895 q 121 763 215 815 q 46 730 61 730 q 31 745 31 730 "},"Ú":{"x_min":28.484375,"x_max":927.125,"ha":927,"o":"m 542 973 q 549 985 542 978 q 669 1198 659 1104 q 677 1210 671 1210 q 688 1205 681 1210 l 779 1139 q 786 1129 786 1134 q 782 1117 786 1123 q 632 991 726 1043 q 557 958 572 958 q 542 973 542 958 m 28 143 q 40 162 28 154 q 233 419 233 291 q 159 579 233 494 q 84 760 84 664 q 164 927 84 857 q 323 997 244 997 q 438 964 403 997 q 473 891 473 931 q 455 828 473 851 q 425 805 438 805 q 409 822 409 805 q 421 844 409 831 q 432 881 432 857 q 409 925 432 906 q 343 945 387 945 q 268 915 299 945 q 236 828 236 886 q 309 686 236 770 q 383 522 383 602 q 245 273 383 404 q 231 249 231 259 q 265 239 231 239 q 378 169 318 239 q 496 100 438 100 q 565 134 533 100 q 634 309 634 208 l 634 797 q 613 822 634 822 q 592 839 592 822 q 610 862 592 857 q 852 990 729 893 q 871 997 862 997 q 887 981 887 997 q 876 960 887 970 q 788 803 788 882 l 788 204 q 842 101 788 101 q 889 130 861 101 q 909 139 899 139 q 927 122 927 139 q 918 105 927 113 l 838 23 q 758 -13 802 -13 q 641 103 656 -13 q 625 129 638 129 q 593 109 613 129 q 375 -13 474 -13 q 223 66 293 -13 q 107 147 154 147 q 63 132 85 147 q 44 126 54 126 q 28 143 28 126 "},"Ŷ":{"x_min":2.03125,"x_max":1131.953125,"ha":1122,"o":"m 414 1044 q 422 1059 414 1051 l 591 1244 q 603 1251 597 1251 q 612 1240 608 1251 q 772 1058 644 1142 q 782 1043 782 1051 q 768 1030 782 1030 q 574 1100 697 1030 q 548 1109 558 1109 q 527 1105 537 1109 q 446 1040 494 1091 q 429 1030 437 1030 q 414 1044 414 1030 m 62 505 q 2 699 2 581 q 98 907 2 817 q 340 997 194 997 q 595 857 485 997 q 610 848 602 848 q 623 858 617 848 q 833 997 706 997 q 1035 805 985 997 q 1092 709 1060 709 q 1103 712 1097 709 q 1115 714 1109 714 q 1131 694 1131 714 q 1117 676 1131 683 q 948 491 948 600 q 990 375 948 436 q 1064 144 1064 263 q 933 -104 1064 24 q 579 -232 802 -232 q 222 -70 357 -232 q 212 -50 212 -58 q 231 -31 212 -35 q 249 -44 238 -30 q 538 -182 360 -182 q 806 -94 716 -182 q 895 88 895 -6 q 824 291 895 183 q 785 407 785 350 q 940 623 785 517 q 950 639 950 631 q 934 655 950 647 q 855 767 876 683 q 741 897 821 897 q 655 838 691 897 q 641 793 641 815 q 646 767 641 780 q 666 655 666 713 q 453 235 666 476 q 443 215 443 223 q 471 195 443 202 q 533 155 498 189 q 601 115 574 115 q 634 131 623 115 q 656 147 645 147 q 674 130 674 147 q 668 113 674 122 q 497 -13 586 -13 q 393 34 442 -13 q 315 82 343 82 q 283 71 295 82 q 262 61 271 61 q 245 78 245 61 q 257 99 245 88 q 523 538 523 335 q 436 761 523 655 q 265 853 361 853 q 119 794 170 853 q 68 662 68 734 q 114 531 68 590 q 241 472 161 472 q 364 510 322 472 q 384 520 375 520 q 403 501 403 520 q 392 482 403 493 q 226 429 330 429 q 62 505 122 429 m 1117 676 l 1117 676 "},"ŝ":{"x_min":46.125,"x_max":544.609375,"ha":591,"o":"m 166 257 q 46 391 46 302 q 132 580 46 480 q 257 714 219 680 q 281 726 271 726 q 302 709 291 726 q 366 659 320 681 q 476 624 439 624 q 495 627 486 624 q 510 630 503 630 q 523 626 518 630 q 529 617 529 622 q 523 606 529 613 l 417 479 q 412 466 412 473 q 423 455 412 460 q 544 316 544 400 q 457 132 544 231 q 333 -1 370 32 q 308 -13 319 -13 q 287 3 298 -13 q 224 52 270 31 q 113 88 151 88 q 95 85 103 88 q 79 82 87 82 q 66 86 71 82 q 61 94 61 90 q 66 106 61 99 l 172 233 q 177 245 177 238 q 166 257 177 252 m 127 491 q 237 374 127 425 q 268 367 252 367 q 299 385 284 367 l 378 480 q 387 498 387 490 q 373 511 387 507 q 231 581 290 535 q 204 592 218 592 q 154 559 182 592 q 127 491 127 526 m 211 232 q 202 213 202 222 q 217 201 202 205 q 358 130 300 177 q 385 120 371 120 q 435 153 407 120 q 463 221 463 186 q 353 338 463 285 q 322 345 338 345 q 290 327 305 345 l 211 232 m 143 775 q 151 790 143 782 l 320 975 q 332 982 326 982 q 341 971 337 982 q 501 789 373 873 q 511 774 511 782 q 497 761 511 761 q 303 831 426 761 q 277 840 287 840 q 256 836 266 840 q 175 771 223 822 q 158 761 166 761 q 143 775 143 761 "},"Ý":{"x_min":2.03125,"x_max":1131.953125,"ha":1122,"o":"m 572 993 q 579 1005 572 998 q 699 1218 689 1124 q 707 1230 701 1230 q 718 1225 711 1230 l 809 1159 q 816 1149 816 1154 q 812 1137 816 1143 q 662 1011 756 1063 q 587 978 602 978 q 572 993 572 978 m 62 505 q 2 699 2 581 q 98 907 2 817 q 340 997 194 997 q 595 857 485 997 q 610 848 602 848 q 623 858 617 848 q 833 997 706 997 q 1035 805 985 997 q 1092 709 1060 709 q 1103 712 1097 709 q 1115 714 1109 714 q 1131 694 1131 714 q 1117 676 1131 683 q 948 491 948 600 q 990 375 948 436 q 1064 144 1064 263 q 933 -104 1064 24 q 579 -232 802 -232 q 222 -70 357 -232 q 212 -50 212 -58 q 231 -31 212 -35 q 249 -44 238 -30 q 538 -182 360 -182 q 806 -94 716 -182 q 895 88 895 -6 q 824 291 895 183 q 785 407 785 350 q 940 623 785 517 q 950 639 950 631 q 934 655 950 647 q 855 767 876 683 q 741 897 821 897 q 655 838 691 897 q 641 793 641 815 q 646 767 641 780 q 666 655 666 713 q 453 235 666 476 q 443 215 443 223 q 471 195 443 202 q 533 155 498 189 q 601 115 574 115 q 634 131 623 115 q 656 147 645 147 q 674 130 674 147 q 668 113 674 122 q 497 -13 586 -13 q 393 34 442 -13 q 315 82 343 82 q 283 71 295 82 q 262 61 271 61 q 245 78 245 61 q 257 99 245 88 q 523 538 523 335 q 436 761 523 655 q 265 853 361 853 q 119 794 170 853 q 68 662 68 734 q 114 531 68 590 q 241 472 161 472 q 364 510 322 472 q 384 520 375 520 q 403 501 403 520 q 392 482 403 493 q 226 429 330 429 q 62 505 122 429 m 1117 676 l 1117 676 "},"Ĉ":{"x_min":46.125,"x_max":925.09375,"ha":878,"o":"m 348 1042 q 359 1057 348 1050 q 519 1239 486 1141 q 528 1250 522 1250 q 540 1243 534 1250 l 709 1058 q 716 1043 716 1050 q 701 1029 716 1029 q 685 1039 694 1029 q 603 1104 636 1090 q 583 1108 593 1108 q 557 1099 572 1108 q 363 1029 433 1029 q 348 1042 348 1029 m 174 131 q 46 502 46 294 q 147 854 46 710 q 388 997 248 997 q 546 908 495 997 q 560 898 552 898 q 571 903 564 898 l 667 982 q 712 997 686 997 q 787 959 739 997 q 856 920 834 920 q 886 932 878 920 q 904 946 895 946 q 925 927 925 946 q 917 910 925 920 q 763 781 816 781 q 670 816 709 781 q 598 851 630 851 q 540 829 567 851 q 493 739 493 790 q 598 563 493 664 q 727 370 727 439 q 531 162 727 280 q 512 154 518 154 q 494 172 494 154 q 514 196 494 184 q 562 273 562 227 q 452 448 562 342 q 342 636 342 554 q 425 784 342 717 l 512 855 q 520 868 520 862 q 516 883 520 875 q 419 938 480 938 q 259 830 314 938 q 203 609 203 722 q 327 235 203 394 q 663 75 452 75 q 854 119 777 75 q 869 124 864 124 q 887 103 887 124 q 873 86 887 94 q 530 -30 685 -30 q 174 131 303 -30 "},"ą":{"x_min":46.125,"x_max":626,"ha":634,"o":"m 152 52 q 46 314 46 151 q 184 576 46 477 q 312 715 267 636 q 327 726 318 726 q 346 714 337 726 q 558 581 402 647 q 572 568 572 575 q 555 551 572 560 q 524 497 524 533 l 524 178 q 558 131 524 131 q 594 154 572 131 q 611 164 603 164 q 626 148 626 164 q 617 133 626 142 q 514 -64 514 26 q 525 -111 514 -94 q 558 -128 536 -128 q 591 -114 580 -128 q 609 -99 602 -99 q 623 -113 623 -99 q 617 -130 623 -120 q 541 -257 569 -197 q 522 -274 533 -274 q 505 -265 512 -274 q 484 -251 498 -256 q 404 -133 404 -223 q 467 6 404 -82 q 471 16 471 10 q 463 26 471 21 q 394 111 413 56 q 388 117 392 117 q 379 113 384 117 l 222 -2 q 198 -13 206 -13 q 189 -1 189 -13 q 152 52 189 17 m 172 385 q 254 145 172 234 q 305 112 284 112 q 339 122 326 112 l 379 151 q 386 166 386 157 l 386 504 q 378 516 386 512 q 277 587 334 539 q 260 594 268 594 q 245 585 252 594 q 172 385 172 489 "},"Ö":{"x_min":52.21875,"x_max":1009.875,"ha":1056,"o":"m 589 1126 q 619 1195 589 1174 q 682 1216 649 1216 q 751 1155 751 1216 q 708 1072 751 1111 q 638 1034 665 1034 q 602 1070 614 1034 q 589 1126 589 1105 m 338 1126 q 368 1195 338 1174 q 431 1216 398 1216 q 500 1155 500 1216 q 457 1072 500 1111 q 387 1034 414 1034 q 351 1070 363 1034 q 338 1126 338 1105 m 52 137 q 63 157 52 147 q 243 247 160 247 q 400 184 327 247 q 652 59 545 59 q 833 126 761 59 q 904 336 904 193 q 605 786 904 655 q 427 830 504 830 q 333 809 379 830 q 217 657 217 752 q 330 548 217 592 q 484 397 484 488 q 408 255 484 335 q 386 244 398 244 q 368 260 368 244 q 376 277 368 269 q 383 294 383 286 q 255 380 383 330 q 75 591 75 449 q 316 843 75 732 q 482 975 425 893 q 519 997 498 997 q 688 950 579 997 q 1009 459 1009 811 q 849 88 1009 240 q 526 -30 723 -30 q 268 54 373 -30 q 115 139 164 139 q 89 130 99 139 q 70 121 80 121 q 52 137 52 121 "},"z":{"x_min":40.015625,"x_max":450.34375,"ha":496,"o":"m 40 -44 q 205 257 40 148 q 211 264 210 260 q 204 271 211 267 q 141 297 162 297 q 114 294 126 297 q 97 290 103 290 q 82 305 82 290 q 96 322 82 317 q 242 476 242 373 q 219 543 242 513 q 163 578 191 578 q 115 550 134 578 q 97 536 105 536 q 82 550 82 536 q 89 566 82 557 l 202 716 q 219 726 210 726 q 235 713 227 726 q 260 689 242 701 q 364 537 364 616 q 293 397 364 461 q 284 381 284 388 q 294 369 284 375 q 325 349 309 362 q 336 346 330 345 q 347 349 342 346 q 415 385 384 372 q 430 389 425 389 q 445 375 445 389 q 432 360 445 366 q 373 325 387 338 q 367 316 367 320 q 371 307 367 312 q 450 40 450 217 q 385 -174 450 -87 q 229 -261 320 -261 q 82 -186 138 -261 q 40 -44 40 -128 m 120 -26 q 152 -175 120 -113 q 229 -231 181 -231 q 307 -181 277 -231 q 339 -42 339 -126 q 259 225 339 143 q 248 231 254 231 q 237 225 243 231 q 120 -26 120 118 "},"™":{"x_min":27.8125,"x_max":707.390625,"ha":743,"o":"m 27 831 l 27 937 l 310 937 l 310 831 l 293 831 q 223 916 288 916 q 217 916 220 916 l 217 638 l 247 638 l 247 617 l 91 617 l 91 638 l 121 638 l 121 916 q 46 831 54 916 l 27 831 m 321 617 l 321 638 l 330 638 q 348 643 343 638 q 352 674 352 649 l 352 916 l 328 916 l 328 937 l 444 937 l 514 741 l 582 937 l 707 937 l 707 916 l 677 916 l 677 638 l 707 638 l 707 617 l 553 617 l 553 638 l 583 638 l 583 887 l 489 617 l 466 617 l 372 879 l 372 674 q 379 640 372 645 q 401 638 383 638 l 401 617 l 321 617 "},"Ř":{"x_min":70.53125,"x_max":1232.328125,"ha":1248,"o":"m 860 1141 q 852 1126 860 1134 l 683 941 q 671 934 677 934 q 662 945 666 934 q 502 1127 630 1043 q 492 1142 492 1134 q 506 1155 492 1155 q 700 1085 577 1155 q 726 1076 716 1076 q 747 1080 737 1076 q 828 1145 780 1094 q 845 1155 837 1155 q 860 1141 860 1155 m 130 505 q 70 699 70 581 q 166 908 70 818 q 409 997 263 997 q 663 857 556 997 q 687 842 675 842 q 708 862 698 842 q 908 997 776 997 q 1121 766 1071 997 q 1144 728 1129 728 q 1155 732 1149 728 q 1170 736 1161 736 q 1187 718 1187 736 q 1173 698 1187 708 l 978 567 q 969 554 969 561 q 984 538 969 547 q 1024 493 1008 523 q 1072 308 1053 436 q 1119 141 1091 181 q 1176 101 1147 102 q 1197 108 1187 101 q 1215 115 1207 115 q 1232 96 1232 115 q 1220 78 1232 86 l 1117 8 q 1057 -13 1085 -13 q 959 49 1003 -13 q 895 247 915 112 q 855 419 874 381 q 820 457 835 457 q 807 453 813 457 q 792 449 801 449 q 775 467 775 449 q 790 487 775 477 l 990 621 q 1002 637 1002 629 q 988 652 1002 644 q 938 737 953 670 q 834 922 897 922 q 742 845 781 922 q 725 769 725 811 q 731 714 725 742 q 748 547 748 642 q 569 111 748 335 q 399 -13 470 -13 q 276 67 328 -13 q 209 127 238 127 q 188 116 197 127 q 170 105 179 105 q 151 123 151 105 q 159 141 151 132 q 311 248 244 248 q 431 167 379 248 q 497 108 469 108 q 539 133 518 108 q 629 428 629 242 q 501 767 629 615 q 333 853 427 853 q 187 794 238 853 q 137 661 137 734 q 183 531 137 589 q 309 472 229 472 q 432 510 390 472 q 453 520 444 520 q 472 501 472 520 q 460 482 472 493 q 294 429 399 429 q 130 505 189 429 "},"ã":{"x_min":46.125,"x_max":623.96875,"ha":634,"o":"m 177 832 q 179 842 177 836 q 277 959 205 959 q 378 918 320 959 q 451 884 426 884 q 483 911 477 884 q 497 927 486 927 q 513 911 513 927 q 512 902 513 907 q 413 784 486 784 q 312 826 371 784 q 239 859 264 859 q 208 832 214 859 q 194 817 205 817 q 177 832 177 817 m 152 52 q 46 314 46 151 q 184 576 46 477 q 312 715 267 636 q 327 726 318 726 q 346 714 337 726 q 558 581 402 647 q 572 568 572 575 q 555 551 572 560 q 524 497 524 533 l 524 178 q 563 131 524 131 q 588 147 577 131 q 611 164 600 164 q 623 150 623 164 q 613 129 623 144 q 531 -1 557 48 q 515 -13 525 -13 q 500 -2 505 -13 q 478 17 495 9 q 394 111 415 50 q 388 117 392 117 q 379 113 384 117 l 222 -2 q 198 -13 206 -13 q 189 -1 189 -13 q 152 52 189 17 m 172 385 q 254 145 172 234 q 305 112 284 112 q 339 122 326 112 l 379 151 q 386 166 386 157 l 386 504 q 378 516 386 512 q 277 587 334 539 q 260 594 268 594 q 245 585 252 594 q 172 385 172 489 "},"Ň":{"x_min":76.640625,"x_max":1211.3125,"ha":1228,"o":"m 860 1141 q 852 1126 860 1134 l 683 941 q 671 934 677 934 q 662 945 666 934 q 502 1127 630 1043 q 492 1142 492 1134 q 506 1155 492 1155 q 700 1085 577 1155 q 726 1076 716 1076 q 747 1080 737 1076 q 828 1145 780 1094 q 845 1155 837 1155 q 860 1141 860 1155 m 76 689 q 162 906 76 815 q 399 997 248 997 q 657 857 550 997 q 681 840 670 840 q 704 857 692 840 q 897 997 795 997 q 1116 805 1070 997 q 1171 697 1142 697 q 1182 700 1176 697 q 1193 704 1188 704 q 1211 683 1211 704 q 1198 666 1211 674 q 992 377 992 547 q 1031 211 992 281 q 1110 142 1071 142 q 1135 151 1126 142 q 1151 160 1144 160 q 1169 140 1169 160 q 1161 124 1169 131 l 1032 1 q 1001 -13 1017 -13 q 967 0 986 -13 q 850 268 850 82 q 1025 598 850 455 q 1037 617 1037 608 q 1019 635 1037 627 q 935 767 960 662 q 838 895 905 895 q 735 837 772 895 q 715 773 715 804 q 722 716 715 741 q 741 547 741 645 q 562 111 741 335 q 392 -13 463 -13 q 269 67 322 -13 q 202 127 231 127 q 181 116 190 127 q 163 105 172 105 q 145 123 145 105 q 152 141 145 132 q 306 248 239 248 q 424 167 373 248 q 491 108 462 108 q 532 133 511 108 q 622 428 622 242 q 494 767 622 615 q 312 864 412 864 q 163 817 212 864 q 114 689 114 771 q 231 559 114 559 q 284 564 255 559 q 336 570 312 570 q 470 403 470 570 q 451 378 470 378 q 432 403 432 378 q 368 444 432 444 q 311 438 344 444 q 251 432 278 432 q 76 689 76 432 "},"æ":{"x_min":46.125,"x_max":797.59375,"ha":837,"o":"m 152 52 q 46 314 46 151 q 184 576 46 477 q 312 715 267 636 q 327 726 318 726 q 346 714 337 726 q 455 631 381 672 q 466 628 460 628 q 480 633 473 628 q 547 672 505 653 q 685 713 642 713 q 692 708 690 713 l 788 466 q 790 458 790 461 q 779 444 790 449 l 514 339 q 502 326 502 335 q 503 319 502 322 q 531 232 514 264 q 680 115 593 115 q 769 143 715 115 q 783 147 779 147 q 797 131 797 147 q 785 117 797 124 q 588 -4 685 61 q 567 -13 575 -13 q 555 2 560 -13 q 535 29 551 18 q 430 132 469 73 q 420 139 425 139 q 409 135 415 139 l 222 -2 q 198 -13 206 -13 q 189 -1 189 -13 q 152 52 189 17 m 172 385 q 254 145 172 234 q 305 112 284 112 q 339 122 326 112 l 396 164 q 403 175 403 169 q 400 186 402 181 q 366 370 366 261 q 384 498 366 444 q 385 504 385 501 q 378 516 385 512 q 277 587 335 539 q 260 594 268 594 q 245 585 252 594 q 172 385 172 489 m 494 436 q 497 375 494 390 q 501 368 497 368 q 510 370 505 368 l 642 423 q 651 435 651 427 q 649 443 651 438 l 572 638 q 564 644 569 644 q 560 644 562 644 q 494 436 494 619 "},"ĩ":{"x_min":-7.09375,"x_max":347.25,"ha":357,"o":"m -7 832 q -5 842 -7 836 q 92 959 20 959 q 193 918 135 959 q 266 884 241 884 q 298 911 292 884 q 312 927 301 927 q 328 911 328 927 q 327 902 328 907 q 228 784 301 784 q 127 826 186 784 q 54 859 79 859 q 23 832 29 859 q 9 817 20 817 q -7 832 -7 817 m 27 552 q 31 564 27 558 l 135 717 q 147 726 141 726 q 159 718 153 726 q 259 621 213 645 q 301 593 301 600 q 291 582 301 586 q 247 504 247 564 l 247 178 q 286 131 247 131 q 311 147 300 131 q 335 164 323 164 q 347 150 347 164 q 336 129 347 144 q 255 -1 284 57 q 239 -13 248 -13 q 223 -2 229 -13 q 202 17 218 9 q 109 166 109 63 l 109 532 q 104 546 109 541 q 84 568 92 556 q 77 572 81 572 q 69 567 73 572 l 56 548 q 43 537 50 537 q 27 552 27 537 "},"É":{"x_min":46.125,"x_max":933.234375,"ha":962,"o":"m 536 1014 q 543 1026 536 1019 q 663 1239 653 1145 q 671 1251 665 1251 q 682 1246 675 1251 l 773 1180 q 780 1170 780 1175 q 776 1158 780 1164 q 626 1032 720 1084 q 551 999 566 999 q 536 1014 536 999 m 174 131 q 46 502 46 294 q 147 854 46 710 q 388 997 248 997 q 546 908 495 997 q 560 898 552 898 q 571 903 564 898 l 667 982 q 712 997 686 997 q 787 959 739 997 q 856 920 834 920 q 886 932 878 920 q 904 946 895 946 q 925 927 925 946 q 917 910 925 920 q 765 775 811 775 q 673 813 719 775 q 597 851 628 851 q 540 829 567 851 q 493 739 493 790 q 605 556 493 668 q 617 550 611 550 q 628 559 623 550 q 759 676 696 676 q 826 645 794 676 q 883 609 864 609 q 895 615 891 609 q 914 630 904 630 q 933 611 933 630 q 927 596 933 606 q 781 467 862 467 q 699 511 744 467 q 666 533 676 533 q 651 514 651 533 q 657 501 651 510 q 727 370 727 420 q 531 162 727 280 q 512 154 518 154 q 494 172 494 154 q 514 196 494 184 q 562 273 562 227 q 452 448 562 342 q 342 636 342 554 q 425 784 342 717 l 512 855 q 520 869 520 862 q 516 883 520 876 q 419 938 477 938 q 259 830 314 938 q 203 609 203 722 q 327 235 203 394 q 663 75 452 75 q 854 119 777 75 q 869 124 864 124 q 887 103 887 124 q 873 86 887 94 q 530 -30 685 -30 q 174 131 303 -30 "},"ŀ":{"x_min":23.734375,"x_max":486.75,"ha":399,"o":"m 281 369 q 271 380 271 374 q 281 391 271 386 q 368 477 340 419 q 378 488 372 488 q 389 477 385 488 q 476 391 418 418 q 486 380 486 386 q 476 369 486 374 q 389 282 416 340 q 378 272 385 272 q 368 282 372 272 q 281 369 339 342 m 23 914 q 37 927 23 927 q 107 844 53 927 q 122 832 115 832 q 135 843 129 832 q 385 982 226 982 q 411 966 411 982 q 385 951 411 951 q 247 779 247 951 l 247 180 q 294 131 247 131 q 343 164 311 131 q 358 174 352 174 q 374 160 374 174 q 366 144 374 153 q 262 -4 295 61 q 250 -13 257 -13 q 233 -4 242 -13 q 69 98 147 88 q 57 107 57 99 q 65 120 57 115 q 109 198 109 144 l 109 683 q 31 896 109 809 q 23 914 23 904 "},"~":{"x_min":42.046875,"x_max":596.15625,"ha":638,"o":"m 42 288 q 43 299 42 293 q 210 490 86 490 q 367 434 277 490 q 502 379 457 379 q 557 421 548 379 q 575 442 562 442 q 596 424 596 442 q 594 413 596 419 q 427 222 551 222 q 270 278 360 222 q 135 333 180 333 q 80 290 90 333 q 63 269 75 269 q 42 288 42 269 "},"Ċ":{"x_min":46.125,"x_max":925.09375,"ha":878,"o":"m 508 1118 q 538 1187 508 1166 q 601 1208 568 1208 q 670 1147 670 1208 q 627 1064 670 1103 q 557 1026 584 1026 q 521 1062 533 1026 q 508 1118 508 1097 m 174 131 q 46 502 46 294 q 147 854 46 710 q 388 997 248 997 q 546 908 495 997 q 560 898 552 898 q 571 903 564 898 l 667 982 q 712 997 686 997 q 787 959 739 997 q 856 920 834 920 q 886 932 878 920 q 904 946 895 946 q 925 927 925 946 q 917 910 925 920 q 763 781 816 781 q 670 816 709 781 q 598 851 630 851 q 540 829 567 851 q 493 739 493 790 q 598 563 493 664 q 727 370 727 439 q 531 162 727 280 q 512 154 518 154 q 494 172 494 154 q 514 196 494 184 q 562 273 562 227 q 452 448 562 342 q 342 636 342 554 q 425 784 342 717 l 512 855 q 520 868 520 862 q 516 883 520 875 q 419 938 480 938 q 259 830 314 938 q 203 609 203 722 q 327 235 203 394 q 663 75 452 75 q 854 119 777 75 q 869 124 864 124 q 887 103 887 124 q 873 86 887 94 q 530 -30 685 -30 q 174 131 303 -30 "},"³":{"x_min":13.515625,"x_max":414.390625,"ha":427,"o":"m 13 488 q 21 521 12 507 q 68 543 37 543 q 127 479 107 543 q 132 445 131 465 q 150 408 134 425 q 199 392 166 392 l 203 392 q 295 468 277 392 q 299 501 299 485 l 299 519 q 299 529 299 523 q 246 646 288 623 q 155 668 204 668 l 142 668 q 121 684 122 667 q 137 706 120 701 q 266 845 266 741 q 247 901 266 878 q 164 938 216 938 q 64 882 112 938 q 35 872 48 864 q 35 901 23 880 q 93 964 54 940 q 215 1004 158 1004 q 328 969 274 1004 q 389 870 389 928 l 389 869 q 305 746 389 794 q 414 578 414 705 q 349 423 414 490 q 206 357 284 357 q 203 356 204 356 q 92 376 127 356 q 17 455 26 413 q 13 488 14 471 "},"¡":{"x_min":52.40625,"x_max":289.78125,"ha":342,"o":"m 289 -156 q 278 -168 289 -163 q 183 -264 207 -206 q 171 -276 177 -276 q 158 -264 164 -276 q 63 -168 134 -206 q 52 -157 52 -162 q 61 -145 52 -151 q 80 -111 72 -137 q 158 366 137 69 q 171 385 160 385 q 183 366 181 385 q 261 -111 205 68 q 280 -145 270 -137 q 289 -156 289 -151 m 268 622 q 278 611 278 617 q 268 600 278 605 q 181 514 209 572 q 171 503 177 503 q 160 514 164 503 q 73 600 131 573 q 63 611 63 605 q 73 622 63 617 q 160 709 133 651 q 171 719 164 719 q 181 709 177 719 q 268 622 210 649 "},"[":{"x_min":109.875,"x_max":328.9375,"ha":345,"o":"m 109 -245 l 109 965 q 125 982 109 982 l 313 982 q 328 966 328 982 q 313 951 328 951 l 250 951 q 234 935 234 951 l 234 -215 q 250 -231 234 -231 l 313 -231 q 328 -246 328 -231 q 313 -261 328 -261 l 125 -261 q 109 -245 109 -261 "},"%":{"x_min":37.296875,"x_max":951.546875,"ha":991,"o":"m 94 555 q 37 732 37 628 q 94 910 37 836 q 232 984 151 984 q 370 910 313 984 q 427 732 427 836 q 370 555 427 628 q 232 481 313 481 q 94 555 151 481 m 98 48 q 93 56 93 52 q 96 64 93 60 l 896 987 q 903 992 899 992 q 912 988 907 992 l 932 971 q 936 963 936 967 q 933 955 936 959 l 134 32 q 126 27 130 27 q 118 31 122 27 l 98 48 m 181 880 q 172 732 172 819 q 181 585 172 646 q 232 524 189 524 q 284 585 275 524 q 293 732 293 646 q 284 880 293 819 q 232 941 275 941 q 181 880 189 941 m 617 103 q 560 280 560 176 q 617 458 560 384 q 755 532 674 532 q 894 458 836 532 q 951 280 951 384 q 894 103 951 176 q 755 29 836 29 q 617 103 674 29 m 696 280 q 704 132 696 193 q 755 71 712 71 q 807 132 798 71 q 815 280 815 193 q 807 428 815 367 q 755 489 798 489 q 704 428 712 489 q 696 280 696 367 "},"P":{"x_min":-129.546875,"x_max":1040.390625,"ha":1087,"o":"m -64 516 q -129 688 -129 588 q -81 863 -129 789 q 191 997 6 997 q 460 831 377 997 q 474 820 465 820 q 484 823 479 820 l 777 994 q 790 997 784 997 q 802 990 797 997 q 807 976 807 984 q 793 956 807 969 q 780 927 780 944 q 851 798 780 866 q 1040 432 1040 617 q 931 149 1040 292 q 657 -30 792 -30 q 512 -2 582 -30 q 502 0 506 0 q 489 -13 493 0 q 358 -263 448 -168 q 337 -276 346 -276 q 319 -259 319 -276 q 330 -238 319 -250 q 399 36 398 -164 q 383 67 399 55 q 261 107 326 107 q 188 75 214 107 q 168 63 178 63 q 150 80 150 63 q 158 99 150 90 q 375 247 271 239 q 393 267 394 248 q 291 756 371 601 q 138 871 232 871 q -13 821 43 871 q -69 687 -69 771 q -18 546 -69 603 q 108 489 32 489 q 219 508 183 489 q 236 512 227 512 q 252 495 252 512 q 237 475 252 483 q 89 444 179 444 q -64 516 0 444 m 485 769 q 486 760 485 765 q 524 267 524 638 q 522 214 522 240 q 538 183 522 194 q 752 95 673 95 q 901 172 843 95 q 943 297 943 229 q 712 676 943 455 q 611 832 634 751 q 600 844 608 844 q 590 841 596 844 l 498 787 q 485 769 485 779 "},"_":{"x_min":-14.921875,"x_max":648.375,"ha":633,"o":"m -14 -217 q 0 -202 -14 -202 l 633 -202 q 648 -217 648 -202 l 648 -261 q 633 -276 648 -276 l 0 -276 q -14 -261 -14 -276 l -14 -217 "},"Ŕ":{"x_min":70.53125,"x_max":1232.328125,"ha":1248,"o":"m 645 991 q 652 1003 645 996 q 772 1216 762 1122 q 780 1228 774 1228 q 791 1223 784 1228 l 882 1157 q 889 1147 889 1152 q 885 1135 889 1141 q 735 1009 829 1061 q 660 976 675 976 q 645 991 645 976 m 130 505 q 70 699 70 581 q 166 908 70 818 q 409 997 263 997 q 663 857 556 997 q 687 842 675 842 q 708 862 698 842 q 908 997 776 997 q 1121 766 1071 997 q 1144 728 1129 728 q 1155 732 1149 728 q 1170 736 1161 736 q 1187 718 1187 736 q 1173 698 1187 708 l 978 567 q 969 554 969 561 q 984 538 969 547 q 1024 493 1008 523 q 1072 308 1053 436 q 1119 141 1091 181 q 1176 101 1147 102 q 1197 108 1187 101 q 1215 115 1207 115 q 1232 96 1232 115 q 1220 78 1232 86 l 1117 8 q 1057 -13 1085 -13 q 959 49 1003 -13 q 895 247 915 112 q 855 419 874 381 q 820 457 835 457 q 807 453 813 457 q 792 449 801 449 q 775 467 775 449 q 790 487 775 477 l 990 621 q 1002 637 1002 629 q 988 652 1002 644 q 938 737 953 670 q 834 922 897 922 q 742 845 781 922 q 725 769 725 811 q 731 714 725 742 q 748 547 748 642 q 569 111 748 335 q 399 -13 470 -13 q 276 67 328 -13 q 209 127 238 127 q 188 116 197 127 q 170 105 179 105 q 151 123 151 105 q 159 141 151 132 q 311 248 244 248 q 431 167 379 248 q 497 108 469 108 q 539 133 518 108 q 629 428 629 242 q 501 767 629 615 q 333 853 427 853 q 187 794 238 853 q 137 661 137 734 q 183 531 137 589 q 309 472 229 472 q 432 510 390 472 q 453 520 444 520 q 472 501 472 520 q 460 482 472 493 q 294 429 399 429 q 130 505 189 429 "},"ñ":{"x_min":10.171875,"x_max":644.3125,"ha":654,"o":"m 131 832 q 133 842 131 836 q 231 959 159 959 q 332 918 274 959 q 405 884 380 884 q 437 911 431 884 q 451 927 440 927 q 467 911 467 927 q 466 902 467 907 q 367 784 440 784 q 266 826 325 784 q 193 859 218 859 q 162 832 168 859 q 148 817 159 817 q 131 832 131 817 m 10 562 q 21 583 10 568 q 102 714 73 655 q 118 726 108 726 q 133 714 128 726 q 155 695 139 703 q 242 594 223 661 q 249 584 245 584 q 257 588 253 584 l 399 720 q 410 726 405 726 q 419 720 415 726 q 572 607 486 642 q 590 592 590 600 q 575 577 590 585 q 544 522 544 562 l 544 178 q 583 131 544 131 q 608 147 596 131 q 632 164 619 164 q 644 150 644 164 q 633 129 644 144 q 552 -1 581 57 q 536 -13 545 -13 q 520 -2 526 -13 q 499 17 515 9 q 406 166 406 63 l 406 537 q 400 552 406 547 q 336 607 358 580 q 329 611 333 611 q 322 607 326 611 l 259 548 q 247 522 247 537 l 247 208 q 288 131 247 160 q 295 120 295 126 q 286 108 295 114 q 192 -1 231 68 q 178 -13 185 -13 q 164 -1 171 -13 q 70 108 124 71 q 61 120 61 114 q 69 131 61 126 q 109 208 109 160 l 109 534 q 70 581 109 581 q 45 564 56 581 q 22 548 33 548 q 10 562 10 548 "},"Æ":{"x_min":21.703125,"x_max":1330.671875,"ha":1369,"o":"m 21 666 q 83 851 21 761 q 346 997 183 997 q 594 902 509 997 q 671 686 671 817 q 398 275 671 491 q 382 253 382 262 q 412 237 382 241 q 523 162 465 230 q 650 94 582 94 q 794 159 717 94 q 870 305 870 223 q 804 476 870 387 q 738 648 738 565 q 854 881 738 765 q 1066 997 970 997 q 1187 947 1134 997 q 1265 896 1241 896 q 1293 912 1284 896 q 1312 927 1301 927 q 1330 910 1330 927 q 1325 893 1330 902 q 1170 763 1255 763 q 1051 823 1114 763 q 938 882 988 882 q 883 857 908 882 q 858 791 858 832 q 959 577 858 711 q 977 550 969 564 q 992 536 985 536 q 1006 546 999 536 q 1138 647 1071 647 q 1221 609 1181 647 q 1272 571 1260 571 q 1291 583 1283 571 q 1307 594 1298 594 q 1326 575 1326 594 q 1321 560 1326 569 q 1175 436 1250 436 q 1095 474 1135 436 q 1041 512 1055 512 q 1016 490 1023 512 q 1010 434 1010 468 q 914 223 1010 336 q 907 205 907 214 q 916 189 907 197 q 1127 90 1032 90 q 1264 134 1197 90 q 1283 141 1274 141 q 1300 123 1300 141 q 1283 101 1300 111 q 969 -13 1099 -13 q 794 51 868 -13 q 756 67 776 67 q 714 52 737 67 q 520 -13 609 -13 q 362 66 432 -13 q 246 147 293 147 q 202 132 225 147 q 183 126 193 126 q 167 143 167 126 q 180 163 167 154 q 518 600 518 394 q 448 788 518 710 q 255 894 354 894 q 115 830 157 894 q 80 726 80 778 q 202 594 80 644 q 333 465 333 540 q 255 336 333 414 q 238 327 246 327 q 219 347 219 327 q 229 364 219 355 q 247 397 247 380 q 154 475 247 436 q 21 666 21 531 "},"ğ":{"x_min":46.125,"x_max":587.34375,"ha":649,"o":"m 144 968 q 156 982 144 982 q 175 963 168 982 q 327 895 202 895 q 479 963 452 895 q 498 982 486 982 q 510 968 510 982 q 509 958 510 963 q 327 792 476 792 q 145 958 178 792 q 144 968 144 963 m 152 52 q 46 314 46 151 q 184 576 46 477 q 312 715 267 636 q 326 726 318 726 q 346 714 340 726 q 564 579 379 652 q 581 565 581 573 q 568 548 581 558 q 498 395 498 493 q 553 156 498 296 q 587 0 587 69 q 384 -244 587 -176 q 277 -261 331 -261 q 85 -197 136 -261 q 59 -135 59 -164 q 77 -90 59 -105 q 122 -72 96 -72 q 223 -132 179 -72 q 348 -219 289 -219 q 375 -215 362 -219 q 460 -67 460 -183 q 417 123 460 14 q 409 132 414 132 q 400 128 404 132 l 222 -2 q 198 -13 206 -13 q 189 -1 189 -13 q 152 52 189 17 m 172 385 q 254 145 172 234 q 305 112 284 112 q 339 122 326 112 l 389 159 q 397 170 397 165 q 395 181 397 175 q 368 326 368 259 q 436 472 368 393 q 442 484 442 478 q 431 493 442 491 q 277 587 344 519 q 261 594 269 594 q 245 585 252 594 q 172 385 172 489 "},"Ū":{"x_min":28.484375,"x_max":927.125,"ha":927,"o":"m 338 1082 l 338 1151 q 353 1166 338 1166 l 690 1166 q 705 1151 705 1166 l 705 1082 q 690 1066 705 1066 l 353 1066 q 338 1082 338 1066 m 28 143 q 40 162 28 154 q 233 419 233 291 q 159 579 233 494 q 84 760 84 664 q 164 927 84 857 q 323 997 244 997 q 438 964 403 997 q 473 891 473 931 q 455 828 473 851 q 425 805 438 805 q 409 822 409 805 q 421 844 409 831 q 432 881 432 857 q 409 925 432 906 q 343 945 387 945 q 268 915 299 945 q 236 828 236 886 q 309 686 236 770 q 383 522 383 602 q 245 273 383 404 q 231 249 231 259 q 265 239 231 239 q 378 169 318 239 q 496 100 438 100 q 565 134 533 100 q 634 309 634 208 l 634 797 q 613 822 634 822 q 592 839 592 822 q 610 862 592 857 q 852 990 729 893 q 871 997 862 997 q 887 981 887 997 q 876 960 887 970 q 788 803 788 882 l 788 204 q 842 101 788 101 q 889 130 861 101 q 909 139 899 139 q 927 122 927 139 q 918 105 927 113 l 838 23 q 758 -13 802 -13 q 641 103 656 -13 q 625 129 638 129 q 593 109 613 129 q 375 -13 474 -13 q 223 66 293 -13 q 107 147 154 147 q 63 132 85 147 q 44 126 54 126 q 28 143 28 126 "},"ª":{"x_min":28.484375,"x_max":486.96875,"ha":500,"o":"m 113 330 q 28 533 28 410 q 134 738 28 657 q 242 853 206 792 q 252 862 246 862 q 265 854 259 862 q 430 744 350 760 q 444 735 444 741 q 434 722 444 730 q 408 678 411 706 l 408 677 l 410 429 q 428 395 410 407 q 438 392 432 392 q 467 409 452 392 q 478 415 474 416 q 482 414 482 414 q 486 407 486 412 q 483 397 486 403 q 415 281 429 316 l 414 280 q 405 274 410 274 q 398 278 402 274 q 381 289 389 287 q 303 371 319 305 q 298 377 301 377 q 294 378 296 378 q 289 376 291 377 q 229 330 261 355 q 177 290 183 295 q 152 277 160 278 q 147 283 151 277 q 147 286 147 284 q 113 330 147 298 m 31 128 l 31 205 q 42 217 31 217 l 466 217 q 477 205 477 217 l 477 128 q 466 116 477 116 l 42 116 q 31 128 31 116 m 134 599 q 137 563 134 581 q 241 380 153 415 l 250 378 q 296 406 267 378 q 298 415 298 408 q 297 438 297 420 l 302 687 q 295 695 302 693 q 217 748 261 705 q 196 762 204 762 q 182 752 187 762 q 134 599 134 682 "},"Œ":{"x_min":52.21875,"x_max":1374.75,"ha":1426,"o":"m 52 137 q 63 157 52 147 q 243 247 160 247 q 400 184 327 247 q 652 59 545 59 q 833 126 761 59 q 904 336 904 193 q 605 786 904 655 q 427 830 504 830 q 333 809 379 830 q 217 657 217 755 q 330 548 217 592 q 484 397 484 488 q 408 255 484 335 q 386 244 398 244 q 368 260 368 244 q 376 277 368 269 q 383 294 383 286 q 255 380 383 330 q 75 591 75 449 q 316 843 75 732 q 482 975 425 893 q 519 997 498 997 q 688 950 579 997 q 836 861 775 912 q 852 855 843 855 q 870 869 861 855 q 1061 997 956 997 q 1190 955 1123 997 q 1291 912 1258 912 q 1336 928 1325 912 q 1356 944 1346 944 q 1374 927 1374 944 q 1369 910 1374 918 q 1182 774 1279 774 q 1059 820 1131 774 q 950 866 987 866 q 902 847 914 866 q 893 821 893 836 q 908 788 893 806 q 1009 459 1009 657 q 946 211 1009 322 q 941 195 941 202 q 964 175 941 180 q 1001 160 984 170 q 1219 82 1123 82 q 1338 119 1289 82 q 1357 126 1347 126 q 1374 109 1374 126 q 1360 88 1374 97 q 1051 -30 1190 -30 q 878 19 959 -30 q 817 38 849 38 q 754 21 786 38 q 526 -30 656 -30 q 268 54 373 -30 q 115 139 164 139 q 89 130 99 139 q 70 121 80 121 q 52 137 52 121 m 1034 509 q 1040 524 1034 514 q 1186 647 1112 647 q 1267 610 1227 647 q 1319 573 1307 573 q 1339 583 1332 572 q 1355 595 1346 595 q 1374 575 1374 595 q 1369 560 1374 570 q 1223 437 1296 437 q 1142 474 1182 437 q 1089 512 1102 512 q 1070 501 1077 512 q 1053 489 1063 489 q 1034 509 1034 489 "},"Ą":{"x_min":21.703125,"x_max":1066.171875,"ha":1066,"o":"m 21 666 q 83 851 21 761 q 346 997 183 997 q 594 902 509 997 q 671 686 671 817 q 398 275 671 491 q 382 253 382 262 q 412 237 382 241 q 522 165 465 229 q 635 100 578 100 q 704 134 672 100 q 773 309 773 208 l 773 797 q 752 822 773 822 q 731 839 731 822 q 749 862 731 857 q 991 990 868 893 q 1010 997 1001 997 q 1026 981 1026 997 q 1015 960 1026 970 q 927 803 927 885 l 927 204 q 981 101 927 101 q 1028 130 1000 101 q 1048 139 1038 139 q 1066 122 1066 139 q 1058 105 1066 113 q 950 -65 950 -4 q 961 -113 950 -96 q 994 -130 972 -130 q 1026 -115 1015 -130 q 1044 -101 1037 -101 q 1059 -115 1059 -101 q 1052 -131 1059 -122 q 977 -258 1005 -198 q 958 -276 969 -276 q 940 -266 947 -276 q 920 -252 933 -257 q 839 -135 839 -224 q 881 -31 839 -93 q 885 -19 885 -25 q 872 -11 885 -13 q 780 103 793 2 q 764 129 777 129 q 732 109 752 129 q 514 -13 613 -13 q 362 66 432 -13 q 246 147 293 147 q 202 132 224 147 q 183 126 193 126 q 167 143 167 126 q 180 163 167 154 q 518 600 518 381 q 448 788 518 710 q 255 894 354 894 q 115 830 157 894 q 80 726 80 778 q 202 594 80 644 q 333 465 333 540 q 255 336 333 414 q 238 327 246 327 q 219 347 219 327 q 229 364 219 355 q 247 397 247 380 q 154 475 247 436 q 21 666 21 531 m 991 990 l 991 990 "},"T":{"x_min":80.03125,"x_max":1050.5625,"ha":1009,"o":"m 138 503 q 80 684 80 562 q 190 902 80 807 q 485 997 301 997 q 858 836 669 997 q 968 781 924 781 q 1011 800 994 781 q 1032 813 1022 813 q 1050 796 1050 813 q 1041 777 1050 787 q 843 658 931 658 q 731 703 784 658 q 394 874 530 874 q 201 813 261 874 q 141 671 141 753 q 188 539 141 590 q 289 489 234 489 q 374 507 343 489 q 391 512 382 512 q 409 493 408 512 q 396 475 409 482 q 269 444 341 444 q 138 503 197 444 m 124 220 q 134 241 124 229 q 304 345 226 345 q 456 265 382 345 q 796 49 652 49 q 944 122 880 49 q 965 134 955 134 q 982 116 982 134 q 974 98 982 107 q 670 -30 864 -30 q 304 158 476 -30 q 196 231 237 231 q 163 216 175 231 q 142 204 152 204 q 124 220 124 204 m 432 579 q 579 753 432 685 q 595 757 588 757 q 613 738 613 757 q 597 719 613 727 q 566 673 566 702 q 661 534 566 623 q 757 363 757 445 q 609 189 757 257 q 594 185 600 185 q 576 204 576 185 q 592 223 576 215 q 623 269 623 240 q 527 407 623 316 q 432 579 432 499 "},"š":{"x_min":46.125,"x_max":544.609375,"ha":591,"o":"m 470 968 q 462 953 470 961 l 293 768 q 281 761 287 761 q 272 772 276 761 q 112 954 240 870 q 102 969 102 961 q 116 982 102 982 q 310 912 187 982 q 336 903 326 903 q 357 907 347 903 q 438 972 390 921 q 455 982 447 982 q 470 968 470 982 m 166 257 q 46 391 46 302 q 132 580 46 480 q 257 714 219 680 q 281 726 271 726 q 302 709 291 726 q 366 659 320 681 q 476 624 439 624 q 495 627 486 624 q 510 630 503 630 q 523 626 518 630 q 529 617 529 622 q 523 606 529 613 l 417 479 q 412 466 412 473 q 423 455 412 460 q 544 316 544 400 q 457 132 544 231 q 333 -1 370 32 q 308 -13 319 -13 q 287 3 298 -13 q 224 52 270 31 q 113 88 151 88 q 95 85 103 88 q 79 82 87 82 q 66 86 71 82 q 61 94 61 90 q 66 106 61 99 l 172 233 q 177 245 177 238 q 166 257 177 252 m 127 491 q 237 374 127 425 q 268 367 252 367 q 299 385 284 367 l 378 480 q 387 498 387 490 q 373 511 387 507 q 231 581 290 535 q 204 592 218 592 q 154 559 182 592 q 127 491 127 526 m 211 232 q 202 213 202 222 q 217 201 202 205 q 358 130 300 177 q 385 120 371 120 q 435 153 407 120 q 463 221 463 186 q 353 338 463 285 q 322 345 338 345 q 290 327 305 345 l 211 232 "},"Þ":{"x_min":-8.140625,"x_max":1099.40625,"ha":1146,"o":"m 55 520 q -8 705 -8 588 q 78 909 -8 821 q 317 997 164 997 q 597 796 516 997 q 625 569 625 728 q 633 554 625 554 q 644 558 637 554 l 864 717 q 887 726 876 726 q 910 714 897 726 q 1099 379 1099 536 q 977 107 1099 225 q 701 -30 835 -30 q 571 9 624 -30 q 559 13 565 13 q 549 2 553 13 q 384 -266 486 -174 q 364 -276 374 -276 q 347 -259 347 -276 q 359 -238 347 -248 q 462 70 438 -167 q 463 79 463 77 q 448 99 463 92 q 388 115 415 115 q 311 75 344 115 q 291 63 301 63 q 273 80 273 63 q 281 99 273 88 q 455 229 370 210 q 474 252 473 233 q 475 346 475 295 q 419 746 475 604 q 247 876 366 876 q 101 822 151 876 q 51 689 51 767 q 102 553 51 611 q 242 495 152 495 q 323 506 291 495 q 337 509 330 509 q 354 490 354 509 q 337 471 354 478 q 229 452 291 452 q 55 520 119 452 m 571 9 l 571 9 m 602 228 q 616 204 602 212 q 671 162 644 186 q 828 87 754 87 q 948 132 903 87 q 992 248 992 177 q 779 585 992 381 q 764 592 771 592 q 748 587 756 592 l 646 512 q 623 473 625 497 q 602 236 616 316 q 602 228 602 231 "},"j":{"x_min":-53.578125,"x_max":333.6875,"ha":357,"o":"m 109 885 q 139 954 109 933 q 202 975 169 975 q 271 914 271 975 q 228 831 271 870 q 158 793 185 793 q 122 829 134 793 q 109 885 109 864 m -27 -261 q -53 -246 -53 -261 q -27 -231 -53 -231 q 109 -59 109 -231 l 109 532 q 104 546 109 541 q 84 568 92 556 q 77 572 81 572 q 69 567 73 572 l 56 548 q 43 537 50 537 q 27 552 27 537 q 31 564 27 558 l 135 717 q 147 726 141 726 q 159 718 153 726 q 259 621 213 645 q 301 593 301 600 q 291 582 301 586 q 247 504 247 564 l 247 36 q 326 -176 247 -97 q 333 -194 333 -183 q 319 -207 333 -207 q 249 -124 303 -207 q 235 -112 242 -112 q 221 -122 227 -112 q -27 -261 130 -261 "},"1":{"x_min":27.8125,"x_max":387.9375,"ha":416,"o":"m 51 0 q 27 15 27 0 q 51 30 27 30 l 123 30 q 139 46 139 30 l 139 666 q 123 682 139 682 l 51 682 q 27 697 27 682 q 51 712 27 712 l 364 712 q 387 697 387 712 q 364 682 387 682 l 292 682 q 276 666 276 682 l 276 46 q 292 30 276 30 l 364 30 q 387 15 387 30 q 364 0 387 0 l 51 0 "},"<":{"x_min":139.71875,"x_max":683.65625,"ha":824,"o":"m 144 345 q 139 356 139 351 q 144 366 139 361 l 627 849 q 638 855 632 855 q 649 849 643 855 l 678 820 q 683 810 683 815 q 677 798 683 805 l 245 366 q 240 356 240 361 q 245 345 240 350 l 677 -87 q 682 -98 682 -92 q 677 -108 682 -103 l 649 -137 q 637 -142 642 -142 q 626 -137 632 -142 l 144 345 "},"t":{"x_min":18.3125,"x_max":386.59375,"ha":415,"o":"m 35 575 q 18 584 18 575 q 34 605 18 594 q 320 880 216 734 q 341 896 331 896 q 354 883 354 896 q 344 862 354 875 q 249 659 249 722 q 259 649 249 649 l 371 649 q 386 634 386 649 l 386 590 q 371 575 386 575 l 262 575 q 247 560 247 575 l 247 180 q 294 131 247 131 q 343 164 311 131 q 358 174 352 174 q 374 160 374 174 q 366 144 374 153 q 262 -4 295 61 q 250 -13 257 -13 q 233 -4 242 -13 q 69 98 147 88 q 57 107 57 99 q 65 120 57 115 q 109 198 109 144 l 109 560 q 96 575 109 575 l 35 575 "},"ù":{"x_min":9.6875,"x_max":643.828125,"ha":654,"o":"m 129 889 q 125 901 125 895 q 132 911 125 906 l 224 977 q 234 982 230 982 q 242 970 241 982 q 362 757 252 876 q 369 745 369 750 q 354 730 369 730 q 279 763 340 730 q 129 889 185 815 m 643 150 q 632 129 643 144 q 551 -1 580 57 q 535 -13 545 -13 q 520 -1 525 -13 q 498 17 514 9 q 411 118 430 51 q 404 128 408 128 q 396 124 400 128 l 254 -7 q 243 -13 248 -13 q 234 -7 238 -13 q 81 105 167 70 q 63 120 63 112 q 78 135 63 127 q 109 190 109 150 l 109 534 q 70 581 109 581 q 45 565 57 581 q 21 548 34 548 q 9 562 9 548 q 20 583 9 568 q 101 714 72 655 q 117 726 108 726 q 133 715 127 726 q 154 695 138 703 q 247 546 247 649 l 247 175 q 253 160 247 165 q 317 105 295 132 q 324 101 320 101 q 331 105 327 101 l 394 165 q 406 190 406 175 l 406 504 q 365 581 406 552 q 358 592 358 586 q 367 604 358 598 q 461 714 422 644 q 475 726 468 726 q 489 714 482 726 q 583 604 529 641 q 592 592 592 598 q 584 581 592 586 q 544 504 544 552 l 544 178 q 583 131 544 131 q 608 148 597 131 q 631 164 620 164 q 643 150 643 164 "},"ĉ":{"x_min":46.125,"x_max":477.46875,"ha":517,"o":"m 99 774 q 110 789 99 782 q 270 971 237 873 q 279 982 273 982 q 291 975 285 982 l 460 790 q 467 775 467 782 q 452 761 467 761 q 436 771 445 761 q 354 836 387 822 q 334 840 344 840 q 308 831 323 840 q 114 761 184 761 q 99 774 99 761 m 46 370 q 227 672 46 594 q 365 713 322 713 q 372 708 370 713 l 442 533 q 443 526 443 529 q 433 513 443 517 l 333 473 q 326 472 330 472 q 314 482 318 472 l 252 638 q 244 644 249 644 q 240 644 242 644 q 174 436 174 617 q 210 232 174 301 q 360 115 273 115 q 449 143 395 115 q 463 147 459 147 q 477 131 477 147 q 465 117 477 124 q 267 -4 364 61 q 247 -13 255 -13 q 235 2 240 -13 q 215 29 231 18 q 46 370 46 139 "},"ï":{"x_min":-26.171875,"x_max":376.234375,"ha":357,"o":"m 214 885 q 244 954 214 933 q 307 975 274 975 q 376 914 376 975 q 333 831 376 870 q 263 793 290 793 q 227 829 239 793 q 214 885 214 864 m -26 885 q 3 954 -26 933 q 66 975 33 975 q 135 914 135 975 q 92 831 135 870 q 22 793 49 793 q -13 829 -1 793 q -26 885 -26 864 m 27 552 q 31 564 27 558 l 135 717 q 147 726 141 726 q 159 718 153 726 q 259 621 213 645 q 301 593 301 600 q 291 582 301 586 q 247 504 247 564 l 247 178 q 286 131 247 131 q 311 147 300 131 q 335 164 323 164 q 347 150 347 164 q 336 129 347 144 q 255 -1 284 57 q 239 -13 248 -13 q 223 -2 229 -13 q 202 17 218 9 q 109 166 109 63 l 109 532 q 104 546 109 541 q 84 568 92 556 q 77 572 81 572 q 69 567 73 572 l 56 548 q 43 537 50 537 q 27 552 27 537 "},"ī":{"x_min":27.125,"x_max":347.25,"ha":357,"o":"m 42 832 l 42 902 q 57 916 42 916 l 265 916 q 280 902 280 916 l 280 832 q 265 816 280 816 l 57 816 q 42 832 42 816 m 27 552 q 31 564 27 558 l 135 717 q 147 726 141 726 q 159 718 153 726 q 259 621 213 645 q 301 593 301 600 q 291 582 301 586 q 247 504 247 564 l 247 178 q 286 131 247 131 q 311 147 300 131 q 335 164 323 164 q 347 150 347 164 q 336 129 347 144 q 255 -1 284 57 q 239 -13 248 -13 q 223 -2 229 -13 q 202 17 218 9 q 109 166 109 63 l 109 532 q 104 546 109 541 q 84 568 92 556 q 77 572 81 572 q 69 567 73 572 l 56 548 q 43 537 50 537 q 27 552 27 537 "},"Ò":{"x_min":52.21875,"x_max":1009.875,"ha":1056,"o":"m 451 1158 q 447 1170 447 1164 q 454 1180 447 1175 l 546 1246 q 556 1251 552 1251 q 564 1239 563 1251 q 684 1026 574 1145 q 691 1014 691 1019 q 676 999 691 999 q 601 1032 662 999 q 451 1158 507 1084 m 52 137 q 63 157 52 147 q 243 247 160 247 q 400 184 327 247 q 652 59 545 59 q 833 126 761 59 q 904 336 904 193 q 605 786 904 655 q 427 830 504 830 q 333 809 379 830 q 217 657 217 752 q 330 548 217 592 q 484 397 484 488 q 408 255 484 335 q 386 244 398 244 q 368 260 368 244 q 376 277 368 269 q 383 294 383 286 q 255 380 383 330 q 75 591 75 449 q 316 843 75 732 q 482 975 425 893 q 519 997 498 997 q 688 950 579 997 q 1009 459 1009 811 q 849 88 1009 240 q 526 -30 723 -30 q 268 54 373 -30 q 115 139 164 139 q 89 130 99 139 q 70 121 80 121 q 52 137 52 121 "},"Ď":{"x_min":37.296875,"x_max":1074.3125,"ha":1120,"o":"m 722 1235 q 714 1220 722 1228 l 545 1035 q 533 1028 539 1028 q 524 1039 528 1028 q 364 1221 492 1137 q 354 1236 354 1228 q 368 1249 354 1249 q 562 1179 439 1249 q 588 1170 578 1170 q 609 1174 599 1170 q 690 1239 642 1188 q 707 1249 699 1249 q 722 1235 722 1249 m 37 602 q 172 881 37 765 q 505 997 307 997 q 737 953 637 997 q 1074 477 1074 804 q 938 127 1074 264 q 620 -30 782 -30 q 404 38 513 -30 q 225 107 296 107 q 153 82 179 107 q 130 70 141 70 q 113 87 113 70 q 126 109 113 96 q 372 231 255 231 q 501 195 446 231 q 753 95 653 95 q 911 153 853 95 q 983 337 983 226 q 663 784 983 642 q 435 830 560 830 q 193 760 295 830 q 91 570 91 691 q 152 426 91 486 q 298 365 212 365 q 365 375 336 365 q 383 378 376 378 q 401 360 401 378 q 379 339 401 347 q 298 327 343 327 q 108 404 180 327 q 37 602 37 482 m 357 618 q 505 792 357 716 q 520 796 514 796 q 538 777 538 796 q 522 758 538 767 q 491 712 491 741 q 583 577 491 663 q 682 402 682 484 q 535 228 682 305 q 519 224 526 224 q 501 243 501 224 q 517 262 501 254 q 548 308 548 279 q 457 443 548 356 q 357 618 357 538 "},"&":{"x_min":46.125,"x_max":774.53125,"ha":821,"o":"m 46 264 q 180 471 46 390 q 187 481 187 475 q 186 486 187 484 q 145 665 145 580 q 233 864 146 772 q 347 956 321 956 q 362 946 356 956 q 436 853 391 895 q 510 710 510 784 q 340 510 510 600 q 333 501 333 507 q 335 493 333 497 q 425 349 360 442 q 440 337 434 337 q 450 351 446 337 q 581 506 484 506 q 648 487 605 506 q 706 468 690 468 q 737 486 729 468 q 754 503 746 503 q 767 487 767 503 q 739 394 767 433 q 655 344 702 344 q 585 363 626 344 q 544 374 561 374 q 478 313 501 374 q 475 299 475 305 q 485 273 475 285 q 677 122 611 122 q 747 156 707 122 q 760 164 756 164 q 774 151 774 164 q 656 10 774 124 q 616 -13 631 -13 q 585 -1 602 -13 q 446 113 502 59 q 431 121 438 121 q 421 111 425 121 q 358 -2 387 33 q 343 -13 348 -13 q 329 -3 337 -13 q 307 8 321 6 q 126 86 189 25 q 46 264 46 165 m 193 441 q 137 343 137 400 q 182 230 137 285 q 353 140 257 140 q 387 148 373 140 q 395 160 395 153 q 389 171 395 165 q 209 437 274 296 q 201 444 206 444 q 193 441 198 444 m 225 784 q 308 545 225 716 q 318 537 312 537 q 324 539 321 537 q 404 648 404 584 q 360 736 404 693 q 274 830 288 805 q 259 839 268 839 q 240 827 250 839 q 225 784 225 809 "},"I":{"x_min":73.25,"x_max":854.5625,"ha":898,"o":"m 73 166 q 84 185 73 174 q 258 269 183 269 q 415 155 333 269 q 572 40 497 40 q 698 90 647 40 q 732 166 732 122 q 632 352 732 242 q 563 513 563 427 q 659 699 563 598 q 670 716 670 710 q 648 726 670 726 q 501 800 562 726 q 357 874 440 874 q 221 816 274 874 q 169 689 169 758 q 210 568 169 620 q 323 516 251 516 q 434 545 394 516 q 453 553 444 553 q 471 535 471 553 q 456 514 471 525 q 310 474 403 474 q 160 538 217 474 q 103 718 103 602 q 200 916 103 834 q 437 997 298 997 q 652 906 576 997 q 783 815 728 815 q 818 826 802 815 q 835 832 828 832 q 854 811 854 832 q 840 794 854 803 q 708 613 708 713 q 780 464 708 541 q 851 301 851 386 q 725 63 851 188 q 475 -30 629 -30 q 250 69 321 -30 q 139 168 179 168 q 111 158 122 168 q 90 148 100 148 q 73 166 73 148 "},"ə":{"x_min":39.53125,"x_max":470.875,"ha":517,"o":"m 470 342 q 289 40 470 119 q 151 0 194 0 q 144 4 146 0 l 48 246 q 46 254 46 250 q 57 268 46 263 l 322 373 q 334 386 334 377 q 333 393 334 390 q 306 480 325 444 q 156 597 243 597 q 67 569 121 597 q 53 565 57 565 q 39 581 39 565 q 51 595 39 588 q 249 717 152 651 q 269 726 261 726 q 281 710 276 726 q 301 683 285 694 q 470 342 470 573 m 342 276 q 339 337 342 323 q 334 344 338 344 q 326 342 331 344 l 194 289 q 185 277 185 285 q 187 269 185 274 l 264 74 q 272 68 267 68 q 276 68 274 68 q 342 276 342 93 "},"G":{"x_min":46.125,"x_max":1022.765625,"ha":1069,"o":"m 46 474 q 161 851 46 704 q 432 997 276 997 q 594 903 541 997 q 607 892 600 892 q 620 896 613 892 l 779 989 q 805 997 794 997 q 834 975 823 997 q 887 892 855 933 q 978 824 920 851 q 997 803 997 815 q 984 781 997 791 l 842 679 q 830 663 830 670 q 849 652 830 656 q 966 563 909 641 q 1022 364 1022 485 q 732 -2 1022 105 q 648 -23 695 -16 q 532 -30 601 -30 q 71 294 174 -30 q 46 474 46 375 m 223 543 q 251 336 223 425 q 584 10 356 10 q 646 14 614 10 q 713 32 677 18 q 871 276 871 92 q 805 471 871 380 q 693 562 739 562 q 667 553 678 562 q 647 545 655 545 q 629 562 629 545 q 643 583 629 573 l 811 704 q 819 717 819 710 q 808 730 819 725 q 731 793 763 753 q 687 869 699 834 q 676 880 684 880 q 662 876 668 880 l 573 825 q 496 713 496 780 q 588 541 496 640 q 680 354 680 441 q 492 136 680 235 q 471 130 480 130 q 454 148 454 130 q 473 169 454 160 q 535 257 535 200 q 444 426 535 327 q 352 608 352 524 q 555 858 352 742 q 564 870 564 864 q 561 883 564 877 q 454 947 526 947 q 287 855 352 947 q 223 543 223 763 "},"`":{"x_min":31.875,"x_max":275.359375,"ha":308,"o":"m 35 889 q 31 901 31 895 q 38 911 31 906 l 130 977 q 140 982 136 982 q 148 970 147 982 q 268 757 158 876 q 275 745 275 750 q 260 730 275 730 q 185 763 246 730 q 35 889 91 815 "},"·":{"x_min":63.078125,"x_max":278.75,"ha":301,"o":"m 73 369 q 63 380 63 374 q 73 391 63 386 q 160 477 132 419 q 170 488 164 488 q 181 477 177 488 q 268 391 210 418 q 278 380 278 386 q 268 369 278 374 q 181 282 208 340 q 170 272 177 272 q 160 282 164 272 q 73 369 131 342 "},"ŏ":{"x_min":61.71875,"x_max":590.734375,"ha":637,"o":"m 108 968 q 120 982 108 982 q 139 963 132 982 q 291 895 166 895 q 443 963 416 895 q 462 982 450 982 q 474 968 474 982 q 473 958 474 963 q 291 792 440 792 q 109 958 142 792 q 108 968 108 963 m 75 131 q 61 144 61 137 q 78 161 61 151 q 109 215 109 179 l 109 613 q 120 626 109 625 q 430 720 322 651 q 448 726 438 726 q 459 712 457 726 q 509 594 470 638 q 590 362 590 502 q 431 113 590 224 q 321 0 358 63 q 305 -13 314 -13 q 287 -2 297 -13 q 75 131 227 66 m 247 208 q 255 196 247 200 q 351 130 292 177 q 377 122 362 122 q 411 136 392 122 q 471 298 471 180 q 396 515 471 416 q 341 617 354 573 q 326 636 336 636 q 308 633 317 636 q 260 620 291 627 q 247 604 247 617 l 247 208 "},"¿":{"x_min":43.15625,"x_max":440.59375,"ha":456,"o":"m 440 -107 q 433 -119 440 -112 l 283 -259 q 255 -276 264 -276 q 241 -260 245 -275 q 223 -238 237 -245 q 43 4 43 -145 q 140 189 43 111 q 243 366 237 268 q 257 385 245 385 q 269 341 269 385 q 220 193 269 263 q 171 47 172 124 q 256 -97 171 -29 q 337 -131 298 -131 q 412 -97 377 -131 q 427 -90 418 -90 q 440 -107 440 -90 m 353 622 q 363 611 363 617 q 353 600 363 605 q 266 514 294 572 q 256 503 262 503 q 245 514 249 503 q 158 600 216 573 q 148 611 148 605 q 158 622 148 617 q 245 709 218 651 q 256 719 249 719 q 266 709 262 719 q 353 622 295 649 "},"ý":{"x_min":28.484375,"x_max":617.1875,"ha":663,"o":"m 215 745 q 222 757 215 750 q 342 970 332 876 q 350 982 344 982 q 361 977 354 982 l 452 911 q 459 901 459 906 q 455 889 459 895 q 305 763 399 815 q 230 730 245 730 q 215 745 215 730 m 28 685 q 120 834 28 753 q 139 845 132 845 q 151 831 151 845 q 143 814 151 823 q 119 766 119 790 q 158 716 119 741 q 240 607 216 678 q 247 597 243 597 q 256 600 251 597 l 411 714 q 435 726 426 726 q 443 714 443 726 q 480 660 443 696 q 617 321 617 528 q 177 -261 617 50 q 158 -267 169 -267 q 147 -253 147 -267 q 156 -238 147 -246 q 480 245 480 34 q 379 567 480 457 q 327 600 349 600 q 294 591 306 600 l 258 564 q 247 541 247 556 l 247 180 q 294 131 247 131 q 343 164 311 131 q 358 174 352 174 q 374 160 374 174 q 366 144 374 153 q 262 -4 295 61 q 250 -13 257 -13 q 233 -4 242 -13 q 69 98 147 88 q 57 107 57 99 q 65 120 57 115 q 109 198 109 144 l 109 550 q 84 600 109 583 q 28 685 28 636 "},"ſ":{"x_min":4.75,"x_max":425.921875,"ha":328,"o":"m 26 575 q 4 587 4 575 q 21 605 4 599 q 107 807 107 636 q 152 959 107 919 q 213 982 177 982 q 290 956 249 982 q 358 931 331 931 q 394 962 384 931 q 413 982 401 982 q 425 967 425 982 q 423 952 425 960 q 293 815 377 815 q 223 835 259 815 q 169 856 187 856 q 138 807 138 856 q 200 683 138 729 q 262 560 262 637 q 193 -252 262 345 q 180 -276 191 -276 q 166 -252 169 -276 q 98 560 98 345 q 84 575 98 575 l 26 575 "},"º":{"x_min":31.203125,"x_max":467.96875,"ha":492,"o":"m 41 385 q 31 394 31 388 q 37 403 31 400 q 72 475 72 415 l 71 752 q 70 761 71 758 q 78 771 67 770 q 335 850 238 792 q 348 844 347 857 q 405 729 354 792 q 448 645 433 696 q 464 573 464 594 q 438 472 464 512 q 379 400 412 433 q 305 344 346 368 q 242 274 265 320 q 222 274 234 261 q 41 385 162 348 m 35 128 l 35 205 q 46 217 35 217 l 457 217 q 467 205 467 217 l 467 128 q 457 116 467 116 l 46 116 q 35 128 35 116 m 183 759 l 185 446 q 191 435 185 438 l 288 375 q 314 381 302 366 q 361 501 361 432 q 298 668 360 595 q 233 773 256 710 q 217 777 229 782 q 194 769 205 773 q 183 759 183 766 "},"ź":{"x_min":40.015625,"x_max":450.34375,"ha":496,"o":"m 76 745 q 83 757 76 750 q 203 970 193 876 q 211 982 205 982 q 222 977 215 982 l 313 911 q 320 901 320 906 q 316 889 320 895 q 166 763 260 815 q 91 730 106 730 q 76 745 76 730 m 40 -44 q 205 257 40 148 q 211 264 210 260 q 204 271 211 267 q 141 297 162 297 q 114 294 126 297 q 97 290 103 290 q 82 305 82 290 q 96 322 82 317 q 242 476 242 373 q 219 543 242 513 q 163 578 191 578 q 115 550 134 578 q 97 536 105 536 q 82 550 82 536 q 89 566 82 557 l 202 716 q 219 726 210 726 q 235 713 227 726 q 260 689 242 701 q 364 537 364 616 q 293 397 364 461 q 284 381 284 388 q 294 369 284 375 q 325 349 309 362 q 336 346 330 345 q 347 349 342 346 q 415 385 384 372 q 430 389 425 389 q 445 375 445 389 q 432 360 445 366 q 373 325 387 338 q 367 316 367 320 q 371 307 367 312 q 450 40 450 217 q 385 -174 450 -87 q 229 -261 320 -261 q 82 -186 138 -261 q 40 -44 40 -128 m 120 -26 q 152 -175 120 -113 q 229 -231 181 -231 q 307 -181 277 -231 q 339 -42 339 -126 q 259 225 339 143 q 248 231 254 231 q 237 225 243 231 q 120 -26 120 118 "},"ű":{"x_min":9.6875,"x_max":643.828125,"ha":654,"o":"m 323 773 q 330 785 323 778 q 450 998 440 904 q 458 1010 452 1010 q 469 1005 462 1010 l 560 939 q 567 929 567 934 q 563 917 567 923 q 413 791 507 843 q 338 758 353 758 q 323 773 323 758 m 125 773 q 132 785 125 778 q 252 998 242 904 q 260 1010 254 1010 q 271 1005 264 1010 l 362 939 q 369 929 369 934 q 365 917 369 923 q 215 791 309 843 q 140 758 155 758 q 125 773 125 758 m 643 150 q 632 129 643 144 q 551 -1 580 57 q 535 -13 545 -13 q 520 -1 525 -13 q 498 17 514 9 q 411 118 430 51 q 404 128 408 128 q 396 124 400 128 l 254 -7 q 243 -13 248 -13 q 234 -7 238 -13 q 81 105 167 70 q 63 120 63 112 q 78 135 63 127 q 109 190 109 150 l 109 534 q 70 581 109 581 q 45 565 57 581 q 21 548 34 548 q 9 562 9 548 q 20 583 9 568 q 101 714 72 655 q 117 726 108 726 q 133 715 127 726 q 154 695 138 703 q 247 546 247 649 l 247 175 q 253 160 247 165 q 317 105 295 132 q 324 101 320 101 q 331 105 327 101 l 394 165 q 406 190 406 175 l 406 504 q 365 581 406 552 q 358 592 358 586 q 367 604 358 598 q 461 714 422 644 q 475 726 468 726 q 489 714 482 726 q 583 604 529 641 q 592 592 592 598 q 584 581 592 586 q 544 504 544 552 l 544 178 q 583 131 544 131 q 608 148 597 131 q 631 164 620 164 q 643 150 643 164 "},"ń":{"x_min":10.171875,"x_max":644.3125,"ha":654,"o":"m 230 745 q 237 757 230 750 q 357 970 347 876 q 365 982 359 982 q 376 977 369 982 l 467 911 q 474 901 474 906 q 470 889 474 895 q 320 763 414 815 q 245 730 260 730 q 230 745 230 730 m 10 562 q 21 583 10 568 q 102 714 73 655 q 118 726 108 726 q 133 714 128 726 q 155 695 139 703 q 242 594 223 661 q 249 584 245 584 q 257 588 253 584 l 399 720 q 410 726 405 726 q 419 720 415 726 q 572 607 486 642 q 590 592 590 600 q 575 577 590 585 q 544 522 544 562 l 544 178 q 583 131 544 131 q 608 147 596 131 q 632 164 619 164 q 644 150 644 164 q 633 129 644 144 q 552 -1 581 57 q 536 -13 545 -13 q 520 -2 526 -13 q 499 17 515 9 q 406 166 406 63 l 406 537 q 400 552 406 547 q 336 607 358 580 q 329 611 333 611 q 322 607 326 611 l 259 548 q 247 522 247 537 l 247 208 q 288 131 247 160 q 295 120 295 126 q 286 108 295 114 q 192 -1 231 68 q 178 -13 185 -13 q 164 -1 171 -13 q 70 108 124 71 q 61 120 61 114 q 69 131 61 126 q 109 208 109 160 l 109 534 q 70 581 109 581 q 45 564 56 581 q 22 548 33 548 q 10 562 10 548 "},";":{"x_min":63.078125,"x_max":278.75,"ha":301,"o":"m 73 567 q 63 578 63 572 q 73 589 63 584 q 160 675 132 617 q 170 686 164 686 q 181 675 177 686 q 268 589 210 616 q 278 578 278 584 q 268 567 278 572 q 181 480 208 538 q 170 470 177 470 q 160 480 164 470 q 73 567 131 540 m 73 84 q 63 94 63 88 q 73 105 63 100 q 160 191 133 135 q 170 202 164 202 q 181 191 177 202 q 268 105 210 133 q 275 96 275 101 q 181 -134 275 9 q 147 -168 160 -168 q 138 -158 138 -168 q 142 -145 138 -152 q 172 -46 172 -89 q 73 84 172 42 "},"Ġ":{"x_min":46.125,"x_max":1022.765625,"ha":1069,"o":"m 569 1118 q 599 1187 569 1166 q 662 1208 629 1208 q 731 1147 731 1208 q 688 1064 731 1103 q 618 1026 645 1026 q 582 1062 594 1026 q 569 1118 569 1097 m 46 474 q 161 851 46 704 q 432 997 276 997 q 594 903 541 997 q 607 892 600 892 q 620 896 613 892 l 779 989 q 805 997 794 997 q 834 975 823 997 q 887 892 855 933 q 978 824 920 851 q 997 803 997 815 q 984 781 997 791 l 842 679 q 830 663 830 670 q 849 652 830 656 q 966 563 909 641 q 1022 364 1022 485 q 732 -2 1022 105 q 648 -23 695 -16 q 532 -30 601 -30 q 71 294 174 -30 q 46 474 46 375 m 223 543 q 251 336 223 425 q 584 10 356 10 q 646 14 614 10 q 713 32 677 18 q 871 276 871 92 q 805 471 871 380 q 693 562 739 562 q 667 553 678 562 q 647 545 655 545 q 629 562 629 545 q 643 583 629 573 l 811 704 q 819 717 819 710 q 808 730 819 725 q 731 793 763 753 q 687 869 699 834 q 676 880 684 880 q 662 876 668 880 l 573 825 q 496 713 496 780 q 588 541 496 640 q 680 354 680 441 q 492 136 680 235 q 471 130 480 130 q 454 148 454 130 q 473 169 454 160 q 535 257 535 200 q 444 426 535 327 q 352 608 352 524 q 555 858 352 742 q 564 870 564 864 q 561 883 564 877 q 454 947 526 947 q 287 855 352 947 q 223 543 223 763 "},"6":{"x_min":42.046875,"x_max":560.21875,"ha":602,"o":"m 42 455 q 325 940 42 827 q 482 978 421 978 q 497 963 497 978 q 474 948 497 952 q 171 655 215 900 q 166 615 166 622 q 169 609 166 609 q 181 619 173 609 q 302 726 265 726 q 319 709 311 726 q 343 682 328 691 q 560 374 560 541 q 330 0 560 207 q 303 -13 316 -13 q 281 4 290 -13 q 259 30 272 23 q 42 455 42 149 m 165 470 q 332 147 165 248 q 388 128 363 128 q 430 147 413 128 q 475 276 475 200 q 269 564 475 419 q 217 586 238 586 q 165 470 165 586 "},"n":{"x_min":10.171875,"x_max":644.3125,"ha":654,"o":"m 10 562 q 21 583 10 568 q 102 714 73 655 q 118 726 108 726 q 133 714 128 726 q 155 695 139 703 q 242 594 223 661 q 249 584 245 584 q 257 588 253 584 l 399 720 q 410 726 405 726 q 419 720 415 726 q 572 607 486 642 q 590 592 590 600 q 575 577 590 585 q 544 522 544 562 l 544 178 q 583 131 544 131 q 608 147 596 131 q 632 164 619 164 q 644 150 644 164 q 633 129 644 144 q 552 -1 581 57 q 536 -13 545 -13 q 520 -2 526 -13 q 499 17 515 9 q 406 166 406 63 l 406 537 q 400 552 406 547 q 336 607 358 580 q 329 611 333 611 q 322 607 326 611 l 259 548 q 247 522 247 537 l 247 208 q 288 131 247 160 q 295 120 295 126 q 286 108 295 114 q 192 -1 231 68 q 178 -13 185 -13 q 164 -1 171 -13 q 70 108 124 71 q 61 120 61 114 q 69 131 61 126 q 109 208 109 160 l 109 534 q 70 581 109 581 q 45 564 56 581 q 22 548 33 548 q 10 562 10 548 "},"ģ":{"x_min":46.125,"x_max":587.34375,"ha":649,"o":"m 409 870 q 420 857 420 865 q 409 844 420 849 q 339 776 362 821 q 328 765 334 765 q 315 775 322 765 q 248 845 292 821 q 236 863 236 851 q 345 1011 236 946 q 362 1017 355 1017 q 376 1002 376 1017 q 360 984 376 993 q 332 937 332 968 q 409 870 332 903 m 152 52 q 46 314 46 151 q 184 576 46 477 q 312 715 267 636 q 326 726 318 726 q 346 714 340 726 q 564 579 379 652 q 581 565 581 573 q 568 548 581 558 q 498 395 498 493 q 553 156 498 296 q 587 0 587 69 q 384 -244 587 -176 q 277 -261 331 -261 q 85 -197 136 -261 q 59 -135 59 -164 q 77 -90 59 -105 q 122 -72 96 -72 q 223 -132 179 -72 q 348 -219 289 -219 q 375 -215 362 -219 q 460 -67 460 -183 q 417 123 460 14 q 409 132 414 132 q 400 128 404 132 l 222 -2 q 198 -13 206 -13 q 189 -1 189 -13 q 152 52 189 17 m 172 385 q 254 145 172 234 q 305 112 284 112 q 339 122 326 112 l 389 159 q 397 170 397 165 q 395 181 397 175 q 368 326 368 259 q 436 472 368 393 q 442 484 442 478 q 431 493 442 491 q 277 587 344 519 q 261 594 269 594 q 245 585 252 594 q 172 385 172 489 "},"Ĝ":{"x_min":46.125,"x_max":1022.765625,"ha":1069,"o":"m 413 1042 q 424 1057 413 1050 q 584 1239 551 1141 q 593 1250 587 1250 q 605 1243 599 1250 l 774 1058 q 781 1043 781 1050 q 766 1029 781 1029 q 750 1039 759 1029 q 668 1104 701 1090 q 648 1108 658 1108 q 622 1099 637 1108 q 428 1029 498 1029 q 413 1042 413 1029 m 46 474 q 161 851 46 704 q 432 997 276 997 q 594 903 541 997 q 607 892 600 892 q 620 896 613 892 l 779 989 q 805 997 794 997 q 834 975 823 997 q 887 892 855 933 q 978 824 920 851 q 997 803 997 815 q 984 781 997 791 l 842 679 q 830 663 830 670 q 849 652 830 656 q 966 563 909 641 q 1022 364 1022 485 q 732 -2 1022 105 q 648 -23 695 -16 q 532 -30 601 -30 q 71 294 174 -30 q 46 474 46 375 m 223 543 q 251 336 223 425 q 584 10 356 10 q 646 14 614 10 q 713 32 677 18 q 871 276 871 92 q 805 471 871 380 q 693 562 739 562 q 667 553 678 562 q 647 545 655 545 q 629 562 629 545 q 643 583 629 573 l 811 704 q 819 717 819 710 q 808 730 819 725 q 731 793 763 753 q 687 869 699 834 q 676 880 684 880 q 662 876 668 880 l 573 825 q 496 713 496 780 q 588 541 496 640 q 680 354 680 441 q 492 136 680 235 q 471 130 480 130 q 454 148 454 130 q 473 169 454 160 q 535 257 535 200 q 444 426 535 327 q 352 608 352 524 q 555 858 352 742 q 564 870 564 864 q 561 883 564 877 q 454 947 526 947 q 287 855 352 947 q 223 543 223 763 "},"p":{"x_min":8.8125,"x_max":615.140625,"ha":661,"o":"m 8 67 q 12 82 8 73 q 126 225 62 203 q 137 240 137 229 l 137 550 q 111 600 137 583 q 56 685 56 636 q 148 834 56 753 q 167 845 160 845 q 179 831 179 845 q 170 814 179 823 q 147 766 147 790 q 186 716 147 741 q 267 607 244 678 q 275 597 271 597 q 284 600 279 597 l 438 714 q 462 726 454 726 q 471 714 471 726 q 508 660 471 695 q 615 397 615 560 q 476 136 615 233 q 347 -4 401 82 q 334 -13 341 -13 q 317 -6 326 -13 q 277 21 296 8 q 271 22 274 22 q 267 16 268 23 q 217 -264 254 -139 q 205 -276 214 -276 q 193 -264 197 -276 q 139 75 148 -112 q 124 95 138 90 q 89 100 109 100 q 39 69 53 100 q 22 53 32 53 q 8 67 8 53 m 275 196 q 290 172 275 179 q 379 120 328 153 q 396 114 387 114 q 415 126 406 114 q 489 326 489 221 q 406 567 489 478 q 355 600 377 600 q 322 591 334 600 l 286 564 q 275 541 275 556 l 275 196 "},"ň":{"x_min":10.171875,"x_max":644.3125,"ha":654,"o":"m 453 927 q 445 912 453 920 l 276 727 q 264 720 270 720 q 255 731 259 720 q 95 913 223 829 q 85 928 85 920 q 99 941 85 941 q 293 871 170 941 q 319 862 309 862 q 340 866 330 862 q 421 931 373 880 q 438 941 430 941 q 453 927 453 941 m 10 562 q 21 583 10 568 q 102 714 73 655 q 118 726 108 726 q 133 714 128 726 q 155 695 139 703 q 242 594 223 661 q 249 584 245 584 q 257 588 253 584 l 399 720 q 410 726 405 726 q 419 720 415 726 q 572 607 486 642 q 590 592 590 600 q 575 577 590 585 q 544 522 544 562 l 544 178 q 583 131 544 131 q 608 147 596 131 q 632 164 619 164 q 644 150 644 164 q 633 129 644 144 q 552 -1 581 57 q 536 -13 545 -13 q 520 -2 526 -13 q 499 17 515 9 q 406 166 406 63 l 406 537 q 400 552 406 547 q 336 607 358 580 q 329 611 333 611 q 322 607 326 611 l 259 548 q 247 522 247 537 l 247 208 q 288 131 247 160 q 295 120 295 126 q 286 108 295 114 q 192 -1 231 68 q 178 -13 185 -13 q 164 -1 171 -13 q 70 108 124 71 q 61 120 61 114 q 69 131 61 126 q 109 208 109 160 l 109 534 q 70 581 109 581 q 45 564 56 581 q 22 548 33 548 q 10 562 10 548 "},"ę":{"x_min":46.125,"x_max":477.46875,"ha":517,"o":"m 46 370 q 227 672 46 593 q 365 713 322 713 q 372 708 370 713 l 468 466 q 470 458 470 461 q 459 444 470 449 l 194 339 q 182 326 182 335 q 183 319 182 322 q 210 232 193 264 q 360 115 273 115 q 448 143 399 115 q 463 147 457 147 q 477 131 477 147 q 465 117 477 124 q 344 -60 344 50 q 356 -109 344 -89 q 394 -128 367 -128 q 432 -113 421 -128 q 449 -99 442 -99 q 464 -113 464 -99 q 457 -129 464 -120 q 382 -256 410 -196 q 363 -274 374 -274 q 345 -264 352 -274 q 325 -250 339 -255 q 244 -132 244 -222 q 273 -21 244 -73 q 276 -10 276 -15 q 267 0 276 -4 q 46 370 46 106 m 174 436 q 177 375 174 389 q 182 368 178 368 q 190 370 185 368 l 322 423 q 331 435 331 427 q 329 443 331 438 l 252 638 q 244 644 249 644 q 240 644 242 644 q 174 436 174 619 "},"S":{"x_min":46.125,"x_max":1032.9375,"ha":1079,"o":"m 198 93 q 46 428 46 217 q 233 809 46 638 q 573 997 441 997 q 720 942 639 997 q 865 886 802 886 q 960 918 929 886 q 986 932 974 932 q 1001 917 1001 932 q 987 891 1001 906 q 767 754 864 754 q 595 805 670 754 q 430 856 520 856 q 256 779 341 856 q 171 527 171 701 q 312 238 171 353 q 624 122 453 122 q 896 198 796 122 q 995 360 995 274 q 948 482 995 446 q 846 518 900 518 q 706 444 792 518 q 524 370 619 370 q 320 512 428 370 q 311 531 311 523 q 328 549 311 549 q 349 535 338 549 q 433 498 379 498 q 572 571 486 498 q 761 644 658 644 q 948 572 864 644 q 1032 360 1032 499 q 888 95 1032 221 q 547 -30 744 -30 q 198 93 349 -30 "},"/":{"x_min":20.34375,"x_max":636.84375,"ha":657,"o":"m 625 982 q 636 974 636 982 q 634 965 636 971 l 161 16 q 134 0 153 0 l 32 0 q 20 7 20 0 q 23 16 20 10 l 496 965 q 522 982 504 982 l 625 982 "},"į":{"x_min":27.125,"x_max":349.28125,"ha":357,"o":"m 27 552 q 31 564 27 558 l 135 717 q 147 726 141 726 q 159 718 153 726 q 259 621 213 645 q 301 593 301 600 q 291 582 301 586 q 247 504 247 564 l 247 178 q 281 131 247 131 q 318 154 295 131 q 334 164 326 164 q 349 148 349 164 q 340 133 349 142 q 238 -62 238 25 q 248 -110 238 -92 q 281 -128 259 -128 q 314 -114 303 -128 q 332 -99 325 -99 q 347 -113 347 -99 q 340 -130 347 -120 q 265 -257 293 -197 q 246 -274 257 -274 q 228 -265 235 -274 q 208 -251 221 -256 q 127 -133 127 -223 q 191 6 127 -82 q 194 16 194 10 q 186 26 194 21 q 109 166 109 73 l 109 532 q 104 546 109 541 q 84 568 90 559 q 77 572 81 572 q 69 567 73 572 l 56 548 q 43 537 50 537 q 27 552 27 537 m 109 885 q 139 954 109 933 q 202 975 169 975 q 271 914 271 975 q 228 831 271 870 q 158 793 185 793 q 122 829 134 793 q 109 885 109 864 "},"y":{"x_min":28.484375,"x_max":617.1875,"ha":663,"o":"m 28 685 q 120 834 28 753 q 139 845 132 845 q 151 831 151 845 q 143 814 151 823 q 119 766 119 790 q 158 716 119 741 q 240 607 216 678 q 247 597 243 597 q 256 600 251 597 l 411 714 q 435 726 426 726 q 443 714 443 726 q 480 660 443 696 q 617 321 617 528 q 177 -261 617 50 q 158 -267 169 -267 q 147 -253 147 -267 q 156 -238 147 -246 q 480 245 480 34 q 379 567 480 457 q 327 600 349 600 q 294 591 306 600 l 258 564 q 247 541 247 556 l 247 180 q 294 131 247 131 q 343 164 311 131 q 358 174 352 174 q 374 160 374 174 q 366 144 374 153 q 262 -4 295 61 q 250 -13 257 -13 q 233 -4 242 -13 q 69 98 147 88 q 57 107 57 99 q 65 120 57 115 q 109 198 109 144 l 109 550 q 84 600 109 583 q 28 685 28 636 "},"ⱥ":{"x_min":-4.0625,"x_max":623.96875,"ha":634,"o":"m 0 8 q -4 15 -4 12 q 0 23 -4 19 l 75 117 q 82 135 82 126 q 79 152 82 144 q 46 314 46 223 q 184 576 46 477 q 312 715 267 636 q 327 726 318 726 q 346 714 337 726 q 467 624 386 665 q 479 621 473 621 q 491 629 484 621 l 565 721 q 573 726 569 726 q 581 722 577 726 l 604 704 q 609 696 609 700 q 605 689 609 693 l 548 617 q 524 550 524 588 l 524 178 q 563 131 524 131 q 588 147 577 131 q 611 164 600 164 q 623 150 623 164 q 613 129 623 144 q 531 -1 565 61 q 515 -13 525 -13 q 500 -2 505 -13 q 478 17 495 9 q 394 111 415 50 q 388 117 392 117 q 379 113 384 117 l 222 -2 q 198 -13 206 -13 q 189 -1 189 -13 q 152 52 189 17 q 128 77 141 63 q 118 83 123 83 q 109 78 113 83 l 39 -8 q 31 -13 35 -13 q 23 -10 27 -13 l 0 8 m 172 385 q 184 279 172 327 q 192 267 187 267 q 203 275 197 267 l 378 491 q 386 507 386 501 q 378 516 386 512 q 277 587 330 541 q 260 594 268 594 q 245 585 252 594 q 172 385 172 489 m 223 217 q 217 203 217 210 q 219 191 217 197 q 254 145 234 166 q 305 112 284 112 q 339 122 326 112 l 379 151 q 386 166 386 157 l 386 403 q 383 411 386 411 q 375 404 380 411 l 223 217 "},"g":{"x_min":46.125,"x_max":587.34375,"ha":649,"o":"m 152 52 q 46 314 46 151 q 184 576 46 477 q 312 715 267 636 q 326 726 318 726 q 346 714 340 726 q 564 579 379 652 q 581 565 581 573 q 568 548 581 558 q 498 395 498 493 q 553 156 498 296 q 587 0 587 69 q 384 -244 587 -176 q 277 -261 331 -261 q 85 -197 136 -261 q 59 -135 59 -164 q 77 -90 59 -105 q 122 -72 96 -72 q 223 -132 179 -72 q 348 -219 289 -219 q 375 -215 362 -219 q 460 -67 460 -183 q 417 123 460 14 q 409 132 414 132 q 400 128 404 132 l 222 -2 q 198 -13 206 -13 q 189 -1 189 -13 q 152 52 189 17 m 172 385 q 254 145 172 234 q 305 112 284 112 q 339 122 326 112 l 389 159 q 397 170 397 165 q 395 181 397 175 q 368 326 368 259 q 436 472 368 393 q 442 484 442 478 q 431 493 442 491 q 277 587 344 519 q 261 594 269 594 q 245 585 252 594 q 172 385 172 489 "},"ĸ":{"x_min":10.171875,"x_max":628.03125,"ha":634,"o":"m 240 600 q 250 589 242 589 q 259 592 254 589 l 443 721 q 457 726 450 726 q 470 718 463 726 q 513 667 497 690 q 565 538 565 593 q 460 392 565 476 q 450 378 450 384 q 460 366 450 371 q 489 335 476 356 q 518 229 512 293 q 547 127 523 164 q 576 105 560 105 q 596 115 587 105 q 613 124 605 124 q 628 109 628 124 q 620 96 628 103 l 524 -4 q 505 -13 515 -13 q 481 -4 495 -13 q 429 55 456 14 q 383 184 389 117 q 357 287 378 250 q 324 316 341 316 q 314 313 319 316 q 303 311 308 311 q 288 326 288 311 q 301 341 288 335 q 443 487 443 404 q 417 564 443 531 q 351 598 390 598 q 287 575 320 598 l 261 556 q 247 531 247 546 l 247 208 q 288 131 247 160 q 295 120 295 126 q 286 108 295 114 q 192 -1 232 71 q 178 -13 185 -13 q 164 -1 171 -13 q 70 108 124 71 q 61 120 61 114 q 69 131 61 126 q 109 208 109 161 l 109 534 q 70 581 109 581 q 45 564 56 581 q 22 548 33 548 q 10 562 10 548 q 21 583 10 568 q 102 714 73 655 q 118 726 108 726 q 133 714 128 726 q 155 695 139 703 q 240 600 220 661 "},"²":{"x_min":9.78125,"x_max":397.53125,"ha":412,"o":"m 10 378 q 12 392 8 385 l 189 620 q 240 705 222 663 q 257 783 257 746 q 252 824 257 803 q 172 912 228 912 l 172 912 q 121 902 141 911 q 88 878 100 893 q 56 813 63 843 q 33 795 54 794 q 18 822 12 796 q 76 947 32 893 q 205 1003 121 1003 q 389 847 375 1003 q 390 833 390 840 q 391 820 391 827 q 362 717 391 760 q 327 669 346 692 q 288 626 308 647 l 134 478 l 134 478 l 352 478 q 352 478 352 478 q 356 511 354 495 q 360 544 358 528 q 381 560 362 563 q 397 538 398 556 l 382 381 q 368 370 380 370 l 23 370 q 10 378 12 370 "},"ë":{"x_min":46.125,"x_max":480.234375,"ha":517,"o":"m 318 886 q 348 955 318 934 q 411 976 378 976 q 480 915 480 976 q 437 832 480 871 q 367 794 394 794 q 331 830 343 794 q 318 886 318 865 m 87 885 q 117 954 87 933 q 180 975 147 975 q 249 914 249 975 q 206 831 249 870 q 136 793 163 793 q 100 829 112 793 q 87 885 87 864 m 46 370 q 227 672 46 593 q 365 713 322 713 q 372 708 370 713 l 468 466 q 470 458 470 462 q 459 444 470 449 l 194 339 q 182 326 182 335 q 183 319 182 322 q 210 232 191 268 q 360 115 273 115 q 449 143 395 115 q 463 147 459 147 q 477 131 477 147 q 465 117 477 124 q 267 -4 364 61 q 247 -13 255 -13 q 235 2 240 -13 q 215 29 231 18 q 46 370 46 139 m 174 436 q 177 375 174 389 q 182 368 178 368 q 190 370 185 368 l 322 423 q 331 435 331 427 q 329 443 331 438 l 252 638 q 244 644 249 644 q 240 644 242 644 q 174 436 174 619 "},"J":{"x_min":28.484375,"x_max":897.28125,"ha":933,"o":"m 28 0 q 39 17 28 8 q 215 106 141 106 q 391 -3 289 106 q 588 -112 493 -112 q 727 -71 683 -112 q 770 33 770 -30 q 639 305 770 137 q 574 490 574 388 q 686 691 574 591 q 699 711 699 703 q 672 720 699 720 q 516 790 590 720 q 356 859 442 859 q 202 801 269 859 q 135 647 135 742 q 197 486 135 551 q 340 421 259 421 q 463 458 421 421 q 483 468 474 468 q 502 450 502 468 q 491 431 502 441 q 320 377 429 377 q 138 456 211 377 q 65 670 65 536 q 170 901 65 804 q 420 997 276 997 q 663 905 564 997 q 821 813 762 813 q 857 823 843 813 q 874 828 865 828 q 892 809 892 828 q 878 792 892 800 q 727 594 727 697 q 812 384 727 491 q 897 168 897 277 q 748 -103 897 28 q 482 -199 640 -199 q 230 -99 324 -199 q 92 0 135 0 q 66 -9 77 0 q 48 -18 55 -18 q 28 0 28 -18 "},"Ã":{"x_min":21.703125,"x_max":1066.171875,"ha":1066,"o":"m 561 1045 q 563 1055 561 1049 q 661 1172 589 1172 q 762 1131 704 1172 q 835 1097 810 1097 q 867 1124 861 1097 q 881 1140 870 1140 q 897 1124 897 1140 q 896 1115 897 1120 q 797 997 870 997 q 696 1039 755 997 q 623 1072 648 1072 q 592 1045 598 1072 q 578 1030 589 1030 q 561 1045 561 1030 m 21 666 q 83 851 21 761 q 346 997 183 997 q 594 902 509 997 q 671 686 671 817 q 398 275 671 491 q 382 253 382 262 q 412 237 382 241 q 522 165 465 229 q 635 100 578 100 q 704 134 672 100 q 773 309 773 208 l 773 797 q 752 822 773 822 q 731 839 731 822 q 749 862 731 857 q 991 990 868 893 q 1010 997 1001 997 q 1026 981 1026 997 q 1015 960 1026 970 q 927 803 927 885 l 927 204 q 981 101 927 101 q 1028 130 1000 101 q 1048 139 1038 139 q 1066 122 1066 139 q 1058 105 1066 113 l 978 23 q 897 -13 941 -13 q 780 103 795 -13 q 764 129 777 129 q 732 109 752 129 q 514 -13 613 -13 q 362 66 432 -13 q 246 147 293 147 q 202 132 224 147 q 183 126 193 126 q 167 143 167 126 q 180 163 167 154 q 518 600 518 381 q 448 788 518 710 q 255 894 354 894 q 115 830 157 894 q 80 726 80 778 q 202 594 80 644 q 333 465 333 540 q 255 336 333 414 q 238 327 246 327 q 219 347 219 327 q 229 364 219 355 q 247 397 247 380 q 154 475 247 436 q 21 666 21 531 m 991 990 l 991 990 "},"ŷ":{"x_min":28.484375,"x_max":617.1875,"ha":663,"o":"m 161 774 q 172 789 161 782 q 332 971 299 873 q 341 982 335 982 q 353 975 347 982 l 522 790 q 529 775 529 782 q 514 761 529 761 q 498 771 507 761 q 416 836 449 822 q 396 840 406 840 q 370 831 385 840 q 176 761 246 761 q 161 774 161 761 m 28 685 q 120 834 28 753 q 139 845 132 845 q 151 831 151 845 q 143 814 151 823 q 119 766 119 790 q 158 716 119 741 q 240 607 216 678 q 247 597 243 597 q 256 600 251 597 l 411 714 q 435 726 426 726 q 443 714 443 726 q 480 660 443 696 q 617 321 617 528 q 177 -261 617 50 q 158 -267 169 -267 q 147 -253 147 -267 q 156 -238 147 -246 q 480 245 480 34 q 379 567 480 457 q 327 600 349 600 q 294 591 306 600 l 258 564 q 247 541 247 556 l 247 180 q 294 131 247 131 q 343 164 311 131 q 358 174 352 174 q 374 160 374 174 q 366 144 374 153 q 262 -4 295 61 q 250 -13 257 -13 q 233 -4 242 -13 q 69 98 147 88 q 57 107 57 99 q 65 120 57 115 q 109 198 109 144 l 109 550 q 84 600 109 583 q 28 685 28 636 "},"ŕ":{"x_min":10.171875,"x_max":455.765625,"ha":484,"o":"m 183 745 q 190 757 183 750 q 310 970 300 876 q 318 982 312 982 q 329 977 322 982 l 420 911 q 427 901 427 906 q 423 889 427 895 q 273 763 367 815 q 198 730 213 730 q 183 745 183 730 m 10 562 q 21 583 10 568 q 102 714 72 655 q 118 726 108 726 q 133 714 128 726 q 155 695 139 703 q 241 594 223 660 q 246 587 243 587 q 254 592 250 587 l 365 719 q 377 726 371 726 q 387 717 382 726 l 451 594 q 455 579 455 587 q 449 565 455 572 l 376 481 q 364 474 370 474 q 354 483 359 474 l 301 583 q 294 590 298 590 q 286 585 290 590 l 259 553 q 247 524 247 540 l 247 180 q 294 131 247 131 q 343 164 314 131 l 368 193 q 383 202 376 202 q 399 187 399 202 q 391 172 399 182 l 366 144 q 262 -4 297 66 q 250 -13 257 -13 q 233 -4 242 -13 q 69 98 147 88 q 57 107 57 99 q 65 120 57 115 q 109 198 109 144 l 109 534 q 71 581 109 581 q 46 564 57 581 q 22 548 34 548 q 10 562 10 548 "},"©":{"x_min":57.65625,"x_max":1062.78125,"ha":1138,"o":"m 204 160 q 57 515 57 307 q 204 870 57 722 q 560 1018 353 1018 q 915 870 767 1018 q 1062 515 1062 722 q 915 160 1062 307 q 560 11 767 11 q 204 160 353 11 m 278 796 q 160 514 160 678 q 277 233 160 350 q 560 115 394 115 q 842 232 725 115 q 960 514 960 350 q 842 796 960 678 q 560 914 724 914 q 278 796 396 914 m 280 516 q 364 718 280 634 q 565 802 448 802 q 767 719 685 802 q 811 662 793 693 l 713 608 q 650 666 689 644 q 569 688 611 688 q 438 636 490 688 q 387 511 387 585 q 438 385 387 438 q 564 333 489 333 q 655 358 615 333 q 719 424 696 383 l 817 379 q 644 240 759 273 q 557 229 606 229 q 455 252 507 229 q 364 313 403 274 q 280 516 280 397 "},"Ă":{"x_min":21.703125,"x_max":1066.171875,"ha":1066,"o":"m 500 1181 q 512 1195 500 1195 q 531 1176 524 1195 q 683 1108 558 1108 q 835 1176 808 1108 q 854 1195 842 1195 q 866 1181 866 1195 q 865 1171 866 1176 q 683 1005 832 1005 q 501 1171 534 1005 q 500 1181 500 1176 m 21 666 q 83 851 21 761 q 346 997 183 997 q 594 902 509 997 q 671 686 671 817 q 398 275 671 491 q 382 253 382 262 q 412 237 382 241 q 522 165 465 229 q 635 100 578 100 q 704 134 672 100 q 773 309 773 208 l 773 797 q 752 822 773 822 q 731 839 731 822 q 749 862 731 857 q 991 990 868 893 q 1010 997 1001 997 q 1026 981 1026 997 q 1015 960 1026 970 q 927 803 927 885 l 927 204 q 981 101 927 101 q 1028 130 1000 101 q 1048 139 1038 139 q 1066 122 1066 139 q 1058 105 1066 113 l 978 23 q 897 -13 941 -13 q 780 103 795 -13 q 764 129 777 129 q 732 109 752 129 q 514 -13 613 -13 q 362 66 432 -13 q 246 147 293 147 q 202 132 224 147 q 183 126 193 126 q 167 143 167 126 q 180 163 167 154 q 518 600 518 381 q 448 788 518 710 q 255 894 354 894 q 115 830 157 894 q 80 726 80 778 q 202 594 80 644 q 333 465 333 540 q 255 336 333 414 q 238 327 246 327 q 219 347 219 327 q 229 364 219 355 q 247 397 247 380 q 154 475 247 436 q 21 666 21 531 m 991 990 l 991 990 "},"D":{"x_min":37.296875,"x_max":1074.3125,"ha":1120,"o":"m 37 602 q 172 881 37 765 q 505 997 307 997 q 737 953 637 997 q 1074 477 1074 804 q 938 127 1074 264 q 620 -30 782 -30 q 404 38 513 -30 q 225 107 296 107 q 153 82 179 107 q 130 70 141 70 q 113 87 113 70 q 126 109 113 96 q 372 231 255 231 q 501 195 446 231 q 753 95 653 95 q 911 153 853 95 q 983 337 983 226 q 663 784 983 642 q 435 830 560 830 q 193 760 295 830 q 91 570 91 691 q 152 426 91 486 q 298 365 212 365 q 365 375 336 365 q 383 378 376 378 q 401 360 401 378 q 379 339 401 347 q 298 327 343 327 q 108 404 180 327 q 37 602 37 482 m 357 618 q 505 792 357 716 q 520 796 514 796 q 538 777 538 796 q 522 758 538 767 q 491 712 491 741 q 583 577 491 663 q 682 402 682 484 q 535 228 682 305 q 519 224 526 224 q 501 243 501 224 q 517 262 501 254 q 548 308 548 279 q 457 443 548 356 q 357 618 357 538 "},"ÿ":{"x_min":28.484375,"x_max":617.1875,"ha":663,"o":"m 369 884 q 399 953 369 932 q 462 974 429 974 q 531 913 531 974 q 488 830 531 869 q 418 792 445 792 q 382 828 394 792 q 369 884 369 863 m 167 885 q 197 954 167 933 q 260 975 227 975 q 329 914 329 975 q 286 831 329 870 q 216 793 243 793 q 180 829 192 793 q 167 885 167 864 m 28 685 q 120 834 28 753 q 139 845 132 845 q 151 831 151 845 q 143 814 151 823 q 119 766 119 790 q 158 716 119 741 q 240 607 216 678 q 247 597 243 597 q 256 600 251 597 l 411 714 q 435 726 426 726 q 443 714 443 726 q 480 660 443 696 q 617 321 617 528 q 177 -261 617 50 q 158 -267 169 -267 q 147 -253 147 -267 q 156 -238 147 -246 q 480 245 480 34 q 379 567 480 457 q 327 600 349 600 q 294 591 306 600 l 258 564 q 247 541 247 556 l 247 180 q 294 131 247 131 q 343 164 311 131 q 358 174 352 174 q 374 160 374 174 q 366 144 374 153 q 262 -4 295 61 q 250 -13 257 -13 q 233 -4 242 -13 q 69 98 147 88 q 57 107 57 99 q 65 120 57 115 q 109 198 109 144 l 109 550 q 84 600 109 583 q 28 685 28 636 "},"ĺ":{"x_min":23.734375,"x_max":411,"ha":385,"o":"m 99 984 q 106 996 99 989 q 226 1209 216 1115 q 234 1221 228 1221 q 245 1216 238 1221 l 336 1150 q 343 1140 343 1145 q 339 1128 343 1134 q 189 1002 283 1054 q 114 969 129 969 q 99 984 99 969 m 23 914 q 37 927 23 927 q 107 844 53 927 q 122 832 115 832 q 135 843 129 832 q 385 982 226 982 q 411 966 411 982 q 385 951 411 951 q 247 779 247 951 l 247 180 q 294 131 247 131 q 343 164 311 131 q 358 174 352 174 q 374 160 374 174 q 366 144 374 153 q 262 -4 295 61 q 250 -13 257 -13 q 233 -4 242 -13 q 69 98 147 88 q 57 107 57 99 q 65 120 57 115 q 109 198 109 144 l 109 683 q 31 896 109 809 q 23 914 23 904 "},"ł":{"x_min":4.0625,"x_max":411,"ha":385,"o":"m 8 354 q 4 364 4 358 q 10 375 4 370 l 94 436 q 109 466 109 447 l 109 683 q 31 896 109 817 q 23 914 23 904 q 37 927 23 927 q 107 844 53 927 q 122 832 115 832 q 135 843 129 832 q 385 982 227 982 q 411 966 411 982 q 385 951 411 951 q 247 779 247 951 l 247 567 q 253 555 247 555 q 261 559 256 555 l 315 598 q 326 602 320 602 q 336 596 331 602 l 349 578 q 353 567 353 573 q 346 557 353 562 l 262 495 q 247 465 247 484 l 247 180 q 294 131 247 131 q 343 164 311 131 q 358 174 352 174 q 374 160 374 174 q 366 144 374 153 q 262 -4 295 61 q 250 -13 257 -13 q 233 -4 242 -13 q 69 98 147 88 q 57 107 57 99 q 65 120 57 115 q 109 198 109 144 l 109 364 q 103 376 109 376 q 94 372 100 376 l 42 333 q 31 329 36 329 q 21 336 25 329 l 8 354 "},"Ł":{"x_min":28.484375,"x_max":807.765625,"ha":828,"o":"m 31 507 q 28 518 28 513 q 36 529 28 524 l 120 580 q 131 598 131 588 q 129 609 131 603 q 109 714 109 661 q 212 908 109 818 q 452 997 314 997 q 687 923 590 997 q 784 739 784 849 q 711 569 784 628 q 550 510 638 510 q 457 529 489 510 q 444 545 444 536 q 461 565 444 565 q 477 561 470 565 q 535 551 495 551 q 615 596 576 551 q 655 739 655 640 q 597 898 655 838 q 452 959 539 959 q 317 904 364 959 q 270 774 270 848 q 284 704 270 736 q 296 693 289 693 q 307 696 302 693 l 444 781 q 455 784 450 784 q 465 777 461 784 l 476 758 q 480 748 480 753 q 472 737 480 742 l 334 653 q 324 640 324 647 q 328 627 324 633 q 404 465 404 535 q 306 305 404 394 q 290 279 290 290 q 310 263 290 269 q 376 227 346 254 q 613 94 522 94 q 769 176 704 94 q 790 189 779 189 q 807 172 807 189 q 800 153 807 162 q 523 -30 660 -30 q 246 96 386 -30 q 156 146 191 146 q 99 129 120 146 q 80 122 90 122 q 63 139 63 122 q 77 160 63 150 q 208 274 158 221 q 259 372 259 326 q 171 530 259 417 q 157 539 164 539 q 144 535 149 539 l 63 485 q 52 482 58 482 q 43 489 47 482 l 31 507 "},"$":{"x_min":48.828125,"x_max":524.9375,"ha":582,"o":"m 48 326 q 63 386 48 362 q 108 409 78 409 q 139 399 126 409 q 157 370 151 388 q 164 333 164 352 q 153 280 164 314 q 141 236 141 250 q 165 178 141 202 q 221 141 188 154 q 280 128 253 128 q 345 144 314 128 q 395 190 375 160 q 414 262 414 221 q 403 323 414 299 q 362 370 392 346 q 269 432 333 395 q 191 482 221 462 q 133 533 162 502 q 88 603 104 563 q 72 697 72 643 q 86 790 72 749 q 127 864 101 832 q 189 916 153 895 q 265 942 225 936 l 265 1068 l 316 1068 l 316 942 q 386 922 352 940 q 449 875 421 905 q 493 807 477 845 q 510 726 510 768 q 495 672 510 693 q 453 651 480 651 q 412 674 428 651 q 396 729 396 698 q 402 776 396 744 q 409 819 409 807 q 375 878 409 861 q 301 896 340 896 q 212 863 250 896 q 174 772 174 830 q 212 682 174 714 q 341 597 250 650 q 478 490 431 544 q 524 345 524 435 q 498 218 524 274 q 424 126 471 161 q 316 82 377 91 l 316 -51 l 265 -51 l 265 82 q 162 124 211 92 q 81 208 113 155 q 48 326 48 261 "},"w":{"x_min":28.484375,"x_max":891.859375,"ha":938,"o":"m 28 685 q 120 834 28 753 q 139 845 132 845 q 151 831 151 845 q 143 814 151 823 q 119 766 119 790 q 158 716 119 742 q 243 588 229 667 q 249 578 245 578 q 258 582 253 578 l 404 719 q 420 726 412 726 q 436 721 428 726 q 542 602 512 672 q 549 595 545 595 q 556 598 553 595 l 715 714 q 739 726 731 726 q 748 714 748 726 q 785 660 748 695 q 891 398 891 560 q 753 136 891 235 q 625 -2 670 76 q 610 -13 619 -13 q 591 -2 600 -13 q 384 134 484 126 q 368 146 368 136 q 383 165 368 155 q 413 215 413 183 l 413 502 q 370 600 413 569 q 344 609 357 609 q 320 599 331 609 l 260 542 q 247 512 247 530 l 247 208 q 288 131 247 161 q 295 120 295 126 q 286 108 295 114 q 192 -1 232 71 q 178 -13 185 -13 q 164 -1 171 -13 q 70 108 124 71 q 61 120 61 114 q 69 131 61 126 q 109 208 109 161 l 109 550 q 84 600 109 583 q 28 685 28 636 m 551 225 q 565 206 551 212 q 661 126 621 177 q 676 115 669 115 q 692 126 684 115 q 765 326 765 224 q 683 567 765 478 q 632 600 653 600 q 599 591 611 600 l 559 561 q 551 546 551 555 l 551 225 "},"\\":{"x_min":20.34375,"x_max":636.84375,"ha":657,"o":"m 31 982 q 20 974 20 982 q 23 965 20 971 l 495 16 q 522 0 503 0 l 624 0 q 636 7 636 0 q 634 16 636 10 l 160 965 q 134 982 152 982 l 31 982 "},"Ì":{"x_min":73.25,"x_max":854.5625,"ha":898,"o":"m 430 1158 q 426 1170 426 1164 q 433 1180 426 1175 l 525 1246 q 535 1251 531 1251 q 543 1239 542 1251 q 663 1026 553 1145 q 670 1014 670 1019 q 655 999 670 999 q 580 1032 641 999 q 430 1158 486 1084 m 73 166 q 84 185 73 174 q 258 269 183 269 q 415 155 333 269 q 572 40 497 40 q 698 90 647 40 q 732 166 732 122 q 632 352 732 242 q 563 513 563 427 q 659 699 563 598 q 670 716 670 710 q 648 726 670 726 q 501 800 562 726 q 357 874 440 874 q 221 816 274 874 q 169 689 169 758 q 210 568 169 620 q 323 516 251 516 q 434 545 394 516 q 453 553 444 553 q 471 535 471 553 q 456 514 471 525 q 310 474 403 474 q 160 538 217 474 q 103 718 103 602 q 200 916 103 834 q 437 997 298 997 q 652 906 576 997 q 783 815 728 815 q 818 826 802 815 q 835 832 828 832 q 854 811 854 832 q 840 794 854 803 q 708 613 708 713 q 780 464 708 541 q 851 301 851 386 q 725 63 851 188 q 475 -30 629 -30 q 250 69 321 -30 q 139 168 179 168 q 111 158 122 168 q 90 148 100 148 q 73 166 73 148 "},"Ç":{"x_min":46.125,"x_max":925.09375,"ha":878,"o":"m 46 502 q 147 854 46 710 q 388 997 248 997 q 546 908 495 997 q 560 898 552 898 q 571 903 564 898 l 667 982 q 712 997 686 997 q 787 959 739 997 q 856 920 834 920 q 886 932 878 920 q 904 946 895 946 q 925 927 925 946 q 917 910 925 920 q 763 781 816 781 q 670 816 709 781 q 598 851 630 851 q 540 829 567 851 q 493 739 493 790 q 598 563 493 664 q 727 370 727 439 q 531 162 727 280 q 512 154 518 154 q 494 172 494 154 q 514 196 494 184 q 562 273 562 227 q 452 448 562 342 q 342 636 342 554 q 425 784 342 717 l 512 855 q 520 868 520 862 q 516 883 520 875 q 419 938 485 938 q 259 830 314 938 q 203 609 203 722 q 327 235 203 394 q 663 75 452 75 q 854 119 777 75 q 869 124 864 124 q 887 103 887 124 q 873 86 887 94 q 535 -30 685 -30 q 514 -48 518 -30 l 512 -54 q 512 -60 512 -57 q 522 -71 512 -67 q 615 -198 615 -105 q 579 -278 615 -251 q 486 -304 543 -304 q 432 -298 455 -304 q 417 -285 417 -294 q 432 -268 417 -268 q 444 -270 438 -268 q 466 -271 451 -271 q 498 -261 482 -271 q 514 -222 514 -251 q 469 -173 514 -193 q 458 -157 458 -168 q 459 -150 458 -153 l 482 -49 q 482 -41 482 -46 q 466 -27 482 -28 q 174 131 288 -8 q 46 502 46 290 "},"Ŝ":{"x_min":46.125,"x_max":1032.9375,"ha":1079,"o":"m 368 1042 q 379 1057 368 1050 q 539 1239 506 1141 q 548 1250 542 1250 q 560 1243 554 1250 l 729 1058 q 736 1043 736 1050 q 721 1029 736 1029 q 705 1039 714 1029 q 623 1104 656 1090 q 603 1108 613 1108 q 577 1099 592 1108 q 383 1029 453 1029 q 368 1042 368 1029 m 198 93 q 46 428 46 217 q 233 809 46 638 q 573 997 441 997 q 720 942 639 997 q 865 886 802 886 q 960 918 929 886 q 986 932 974 932 q 1001 917 1001 932 q 987 891 1001 906 q 767 754 864 754 q 595 805 670 754 q 430 856 520 856 q 256 779 341 856 q 171 527 171 701 q 312 238 171 353 q 624 122 453 122 q 896 198 796 122 q 995 360 995 274 q 948 482 995 446 q 846 518 900 518 q 706 444 792 518 q 524 370 619 370 q 320 512 428 370 q 311 531 311 523 q 328 549 311 549 q 349 535 338 549 q 433 498 379 498 q 572 571 486 498 q 761 644 658 644 q 948 572 864 644 q 1032 360 1032 499 q 888 95 1032 221 q 547 -30 744 -30 q 198 93 349 -30 "},"C":{"x_min":46.125,"x_max":925.09375,"ha":878,"o":"m 174 131 q 46 502 46 294 q 147 854 46 710 q 388 997 248 997 q 546 908 495 997 q 560 898 552 898 q 571 903 564 898 l 667 982 q 712 997 686 997 q 787 959 739 997 q 856 920 834 920 q 886 932 878 920 q 904 946 895 946 q 925 927 925 946 q 917 910 925 920 q 763 781 816 781 q 670 816 709 781 q 598 851 630 851 q 540 829 567 851 q 493 739 493 790 q 598 563 493 664 q 727 370 727 439 q 531 162 727 280 q 512 154 518 154 q 494 172 494 154 q 514 196 494 184 q 562 273 562 227 q 452 448 562 342 q 342 636 342 554 q 425 784 342 717 l 512 855 q 520 868 520 862 q 516 883 520 875 q 419 938 480 938 q 259 830 314 938 q 203 609 203 722 q 327 235 203 394 q 663 75 452 75 q 854 119 777 75 q 869 124 864 124 q 887 103 887 124 q 873 86 887 94 q 530 -30 685 -30 q 174 131 303 -30 "},"Ē":{"x_min":46.125,"x_max":933.234375,"ha":962,"o":"m 359 1082 l 359 1151 q 374 1166 359 1166 l 711 1166 q 726 1151 726 1166 l 726 1082 q 711 1066 726 1066 l 374 1066 q 359 1082 359 1066 m 174 131 q 46 502 46 294 q 147 854 46 710 q 388 997 248 997 q 546 908 495 997 q 560 898 552 898 q 571 903 564 898 l 667 982 q 712 997 686 997 q 787 959 739 997 q 856 920 834 920 q 886 932 878 920 q 904 946 895 946 q 925 927 925 946 q 917 910 925 920 q 765 775 811 775 q 673 813 719 775 q 597 851 628 851 q 540 829 567 851 q 493 739 493 790 q 605 556 493 668 q 617 550 611 550 q 628 559 623 550 q 759 676 696 676 q 826 645 794 676 q 883 609 864 609 q 895 615 891 609 q 914 630 904 630 q 933 611 933 630 q 927 596 933 606 q 781 467 862 467 q 699 511 744 467 q 666 533 676 533 q 651 514 651 533 q 657 501 651 510 q 727 370 727 420 q 531 162 727 280 q 512 154 518 154 q 494 172 494 154 q 514 196 494 184 q 562 273 562 227 q 452 448 562 342 q 342 636 342 554 q 425 784 342 717 l 512 855 q 520 869 520 862 q 516 883 520 876 q 419 938 477 938 q 259 830 314 938 q 203 609 203 722 q 327 235 203 394 q 663 75 452 75 q 854 119 777 75 q 869 124 864 124 q 887 103 887 124 q 873 86 887 94 q 530 -30 685 -30 q 174 131 303 -30 "},"!":{"x_min":52.21875,"x_max":289.59375,"ha":342,"o":"m 52 862 q 63 874 52 869 q 158 970 134 912 q 170 982 164 982 q 183 970 177 982 q 278 874 207 912 q 289 863 289 868 q 280 851 289 857 q 261 817 269 843 q 183 339 204 636 q 170 320 181 320 q 158 339 160 320 q 80 817 136 637 q 61 851 71 843 q 52 862 52 857 m 73 83 q 63 94 63 88 q 73 105 63 100 q 160 191 132 133 q 170 202 164 202 q 181 191 177 202 q 268 105 210 132 q 278 94 278 100 q 268 83 278 88 q 181 -3 208 54 q 170 -13 177 -13 q 160 -3 164 -13 q 73 83 131 56 "},"ç":{"x_min":46.125,"x_max":477.46875,"ha":517,"o":"m 46 370 q 227 672 46 593 q 365 713 322 713 q 372 708 370 713 l 442 533 q 443 526 443 529 q 433 513 443 517 l 333 473 q 326 472 330 472 q 314 482 318 472 l 252 638 q 244 644 249 644 q 240 644 242 644 q 174 436 174 617 q 210 232 174 301 q 360 115 273 115 q 449 143 395 115 q 463 147 459 147 q 477 131 477 147 q 465 117 477 124 q 280 3 382 71 q 263 -23 263 -8 q 274 -34 263 -30 q 366 -162 366 -68 q 330 -241 366 -215 q 237 -267 295 -267 q 183 -261 206 -267 q 168 -248 168 -257 q 183 -231 168 -231 q 196 -233 189 -231 q 217 -235 202 -235 q 249 -225 233 -235 q 265 -185 265 -215 q 220 -137 265 -156 q 209 -120 209 -132 q 210 -113 209 -116 l 231 -22 q 233 -5 233 -12 q 215 29 233 17 q 46 370 46 139 "},"Ĵ":{"x_min":28.484375,"x_max":897.28125,"ha":933,"o":"m 261 1044 q 269 1059 261 1051 l 438 1244 q 450 1251 444 1251 q 459 1240 455 1251 q 619 1058 491 1142 q 629 1043 629 1051 q 615 1030 629 1030 q 421 1100 544 1030 q 395 1109 405 1109 q 374 1105 384 1109 q 293 1040 341 1091 q 276 1030 284 1030 q 261 1044 261 1030 m 28 0 q 39 17 28 8 q 215 106 141 106 q 391 -3 289 106 q 588 -112 493 -112 q 727 -71 683 -112 q 770 33 770 -30 q 639 305 770 137 q 574 490 574 388 q 686 691 574 591 q 699 711 699 703 q 672 720 699 720 q 516 790 590 720 q 356 859 442 859 q 202 801 269 859 q 135 647 135 742 q 197 486 135 551 q 340 421 259 421 q 463 458 421 421 q 483 468 474 468 q 502 450 502 468 q 491 431 502 441 q 320 377 429 377 q 138 456 211 377 q 65 670 65 536 q 170 901 65 804 q 420 997 276 997 q 663 905 564 997 q 821 813 762 813 q 857 823 843 813 q 874 828 865 828 q 892 809 892 828 q 878 792 892 800 q 727 594 727 697 q 812 384 727 491 q 897 168 897 277 q 748 -103 897 28 q 482 -199 640 -199 q 230 -99 324 -199 q 92 0 135 0 q 66 -9 77 0 q 48 -18 55 -18 q 28 0 28 -18 "},"È":{"x_min":46.125,"x_max":933.234375,"ha":962,"o":"m 354 1158 q 350 1170 350 1164 q 357 1180 350 1175 l 449 1246 q 459 1251 455 1251 q 467 1239 466 1251 q 587 1026 477 1145 q 594 1014 594 1019 q 579 999 594 999 q 504 1032 565 999 q 354 1158 410 1084 m 174 131 q 46 502 46 294 q 147 854 46 710 q 388 997 248 997 q 546 908 495 997 q 560 898 552 898 q 571 903 564 898 l 667 982 q 712 997 686 997 q 787 959 739 997 q 856 920 834 920 q 886 932 878 920 q 904 946 895 946 q 925 927 925 946 q 917 910 925 920 q 765 775 811 775 q 673 813 719 775 q 597 851 628 851 q 540 829 567 851 q 493 739 493 790 q 605 556 493 668 q 617 550 611 550 q 628 559 623 550 q 759 676 696 676 q 826 645 794 676 q 883 609 864 609 q 895 615 891 609 q 914 630 904 630 q 933 611 933 630 q 927 596 933 606 q 781 467 862 467 q 699 511 744 467 q 666 533 676 533 q 651 514 651 533 q 657 501 651 510 q 727 370 727 420 q 531 162 727 280 q 512 154 518 154 q 494 172 494 154 q 514 196 494 184 q 562 273 562 227 q 452 448 562 342 q 342 636 342 554 q 425 784 342 717 l 512 855 q 520 869 520 862 q 516 883 520 876 q 419 938 477 938 q 259 830 314 938 q 203 609 203 722 q 327 235 203 394 q 663 75 452 75 q 854 119 777 75 q 869 124 864 124 q 887 103 887 124 q 873 86 887 94 q 530 -30 685 -30 q 174 131 303 -30 "},"X":{"x_min":43.40625,"x_max":961.71875,"ha":928,"o":"m 98 537 q 43 726 43 600 q 126 924 43 851 q 328 997 210 997 q 553 912 476 997 q 602 817 589 872 q 619 792 609 792 q 648 834 629 792 q 798 997 721 997 q 873 955 837 997 q 899 941 885 941 q 923 966 912 941 q 942 982 930 982 q 961 965 961 982 q 957 949 961 959 q 811 790 889 790 q 735 834 771 790 q 710 849 722 849 q 684 822 697 849 q 632 622 632 712 q 651 602 632 602 l 835 602 q 850 596 850 602 q 844 583 850 591 l 769 493 q 729 474 754 474 l 653 474 q 636 453 635 474 q 729 190 647 280 q 836 124 790 124 q 887 146 864 124 q 906 155 896 155 q 923 137 923 155 q 913 119 923 128 l 816 25 q 729 -13 775 -13 q 599 60 667 -13 q 514 215 545 119 q 496 241 505 241 q 476 214 486 241 q 440 134 461 173 q 280 -13 361 -13 q 191 30 237 -13 q 138 63 158 63 q 107 42 118 63 q 88 28 100 28 q 69 44 69 28 q 71 56 69 52 q 230 206 152 206 q 320 162 274 206 q 374 130 353 130 q 406 151 394 130 q 482 455 482 296 q 463 474 482 474 l 401 474 q 386 480 386 474 q 392 493 386 485 l 461 576 q 474 612 474 592 q 473 622 474 617 q 417 788 455 745 q 272 860 351 860 q 152 813 194 860 q 110 688 110 765 q 152 562 110 610 q 247 514 193 514 q 332 531 300 514 q 348 536 341 536 q 366 518 366 536 q 352 499 366 507 q 232 474 311 474 q 98 537 153 474 "},"ô":{"x_min":61.71875,"x_max":590.734375,"ha":637,"o":"m 152 774 q 163 789 152 782 q 323 971 290 873 q 332 982 326 982 q 344 975 338 982 l 513 790 q 520 775 520 782 q 505 761 520 761 q 489 771 498 761 q 407 836 440 822 q 387 840 397 840 q 361 831 376 840 q 167 761 237 761 q 152 774 152 761 m 75 131 q 61 144 61 137 q 78 161 61 151 q 109 215 109 179 l 109 613 q 120 626 109 625 q 430 720 322 651 q 448 726 438 726 q 459 712 457 726 q 509 594 470 638 q 590 362 590 502 q 431 113 590 224 q 321 0 358 63 q 305 -13 314 -13 q 287 -2 297 -13 q 75 131 227 66 m 247 208 q 255 196 247 200 q 351 130 292 177 q 377 122 362 122 q 411 136 392 122 q 471 298 471 180 q 396 515 471 416 q 341 617 354 573 q 326 636 336 636 q 308 633 317 636 q 260 620 291 627 q 247 604 247 617 l 247 208 "},"Ė":{"x_min":46.125,"x_max":933.234375,"ha":962,"o":"m 508 1118 q 538 1187 508 1166 q 601 1208 568 1208 q 670 1147 670 1208 q 627 1064 670 1103 q 557 1026 584 1026 q 521 1062 533 1026 q 508 1118 508 1097 m 174 131 q 46 502 46 294 q 147 854 46 710 q 388 997 248 997 q 546 908 495 997 q 560 898 552 898 q 571 903 564 898 l 667 982 q 712 997 686 997 q 787 959 739 997 q 856 920 834 920 q 886 932 878 920 q 904 946 895 946 q 925 927 925 946 q 917 910 925 920 q 765 775 811 775 q 673 813 719 775 q 597 851 628 851 q 540 829 567 851 q 493 739 493 790 q 605 556 493 668 q 617 550 611 550 q 628 559 623 550 q 759 676 696 676 q 826 645 794 676 q 883 609 864 609 q 895 615 891 609 q 914 630 904 630 q 933 611 933 630 q 927 596 933 606 q 781 467 862 467 q 699 511 744 467 q 666 533 676 533 q 651 514 651 533 q 657 501 651 510 q 727 370 727 420 q 531 162 727 280 q 512 154 518 154 q 494 172 494 154 q 514 196 494 184 q 562 273 562 227 q 452 448 562 342 q 342 636 342 554 q 425 784 342 717 l 512 855 q 520 869 520 862 q 516 883 520 876 q 419 938 477 938 q 259 830 314 938 q 203 609 203 722 q 327 235 203 394 q 663 75 452 75 q 854 119 777 75 q 869 124 864 124 q 887 103 887 124 q 873 86 887 94 q 530 -30 685 -30 q 174 131 303 -30 "},"Ā":{"x_min":21.703125,"x_max":1066.171875,"ha":1066,"o":"m 528 1082 l 528 1151 q 543 1166 528 1166 l 880 1166 q 895 1151 895 1166 l 895 1082 q 880 1066 895 1066 l 543 1066 q 528 1082 528 1066 m 21 666 q 83 851 21 761 q 346 997 183 997 q 594 902 509 997 q 671 686 671 817 q 398 275 671 491 q 382 253 382 262 q 412 237 382 241 q 522 165 465 229 q 635 100 578 100 q 704 134 672 100 q 773 309 773 208 l 773 797 q 752 822 773 822 q 731 839 731 822 q 749 862 731 857 q 991 990 868 893 q 1010 997 1001 997 q 1026 981 1026 997 q 1015 960 1026 970 q 927 803 927 885 l 927 204 q 981 101 927 101 q 1028 130 1000 101 q 1048 139 1038 139 q 1066 122 1066 139 q 1058 105 1066 113 l 978 23 q 897 -13 941 -13 q 780 103 795 -13 q 764 129 777 129 q 732 109 752 129 q 514 -13 613 -13 q 362 66 432 -13 q 246 147 293 147 q 202 132 224 147 q 183 126 193 126 q 167 143 167 126 q 180 163 167 154 q 518 600 518 381 q 448 788 518 710 q 255 894 354 894 q 115 830 157 894 q 80 726 80 778 q 202 594 80 644 q 333 465 333 540 q 255 336 333 414 q 238 327 246 327 q 219 347 219 327 q 229 364 219 355 q 247 397 247 380 q 154 475 247 436 q 21 666 21 531 m 991 990 l 991 990 "},"ċ":{"x_min":46.125,"x_max":477.46875,"ha":517,"o":"m 180 885 q 210 954 180 933 q 273 975 240 975 q 342 914 342 975 q 299 831 342 870 q 229 793 256 793 q 193 829 205 793 q 180 885 180 864 m 46 370 q 227 672 46 594 q 365 713 322 713 q 372 708 370 713 l 442 533 q 443 526 443 529 q 433 513 443 517 l 333 473 q 326 472 330 472 q 314 482 318 472 l 252 638 q 244 644 249 644 q 240 644 242 644 q 174 436 174 617 q 210 232 174 301 q 360 115 273 115 q 449 143 395 115 q 463 147 459 147 q 477 131 477 147 q 465 117 477 124 q 267 -4 364 61 q 247 -13 255 -13 q 235 2 240 -13 q 215 29 231 18 q 46 370 46 139 "},"đ":{"x_min":23.734375,"x_max":594.125,"ha":640,"o":"m 26 637 q 23 644 23 640 q 29 652 23 648 l 110 713 q 117 723 117 718 q 111 733 117 728 q 73 818 73 772 q 195 975 73 910 q 212 982 206 982 q 225 967 225 982 q 210 949 225 957 q 172 896 172 930 q 223 817 172 862 q 235 812 229 812 q 249 817 242 812 l 337 884 q 347 888 343 888 q 354 883 351 888 l 371 861 q 375 852 375 857 q 370 845 375 848 l 292 786 q 286 778 286 782 q 294 769 286 773 q 341 744 305 763 q 594 370 594 612 q 436 92 594 202 q 326 3 343 29 q 302 -13 315 -13 q 278 -2 289 -13 q 75 131 205 75 q 61 144 61 137 q 78 161 61 151 q 109 215 109 180 l 109 544 q 124 561 109 561 q 226 592 187 561 l 259 617 q 265 625 265 621 q 257 633 265 629 q 175 680 201 661 q 163 685 169 685 q 151 680 158 685 l 61 612 q 52 609 56 609 q 44 614 48 609 l 26 637 m 247 210 q 259 188 247 196 q 354 118 307 162 q 384 103 368 103 q 417 117 400 103 q 497 299 497 183 q 314 602 497 509 q 301 606 308 606 q 288 601 295 606 l 260 579 q 247 553 247 570 l 247 210 "},"}":{"x_min":-7.25,"x_max":364.421875,"ha":418,"o":"m 364 353 q 346 337 364 337 q 236 173 236 337 q 245 62 236 122 q 255 -40 255 2 q 11 -276 255 -276 q -7 -260 -7 -276 q 11 -245 -7 -245 q 120 -81 120 -245 q 111 29 120 -29 q 101 132 101 89 q 181 324 101 267 q 200 352 200 339 q 181 381 200 366 q 101 573 101 438 q 111 676 101 616 q 120 787 120 735 q 11 951 120 951 q -7 966 -7 951 q 11 982 -7 982 q 255 746 255 982 q 245 643 255 703 q 236 532 236 583 q 346 368 236 368 q 364 353 364 368 "},"â":{"x_min":46.125,"x_max":623.96875,"ha":634,"o":"m 177 775 q 185 790 177 782 l 354 975 q 366 982 360 982 q 375 971 371 982 q 535 789 407 873 q 545 774 545 782 q 531 761 545 761 q 337 831 460 761 q 311 840 321 840 q 290 836 300 840 q 209 771 257 822 q 192 761 200 761 q 177 775 177 761 m 152 52 q 46 314 46 151 q 184 576 46 477 q 312 715 267 636 q 327 726 318 726 q 346 714 337 726 q 558 581 402 647 q 572 568 572 575 q 555 551 572 560 q 524 497 524 533 l 524 178 q 563 131 524 131 q 588 147 577 131 q 611 164 600 164 q 623 150 623 164 q 613 129 623 144 q 531 -1 557 48 q 515 -13 525 -13 q 500 -2 505 -13 q 478 17 495 9 q 394 111 415 50 q 388 117 392 117 q 379 113 384 117 l 222 -2 q 198 -13 206 -13 q 189 -1 189 -13 q 152 52 189 17 m 172 385 q 254 145 172 234 q 305 112 284 112 q 339 122 326 112 l 379 151 q 386 166 386 157 l 386 504 q 378 516 386 512 q 277 587 334 539 q 260 594 268 594 q 245 585 252 594 q 172 385 172 489 "},"ø":{"x_min":25.09375,"x_max":638.203125,"ha":636,"o":"m 29 8 q 25 15 25 11 q 28 23 25 18 l 86 94 q 109 162 109 124 l 109 613 q 120 626 109 625 q 430 720 327 652 q 448 726 438 726 q 459 712 457 726 q 491 617 468 655 q 500 611 495 611 q 510 617 505 611 l 594 721 q 602 726 598 726 q 610 723 607 726 l 633 704 q 638 696 638 700 q 634 689 638 693 l 541 574 q 537 563 537 569 q 541 551 537 557 q 590 362 590 470 q 431 113 590 224 q 321 0 358 63 q 305 -13 314 -13 q 287 -2 297 -13 q 166 88 239 49 q 154 90 160 90 q 143 83 149 90 l 68 -8 q 61 -13 65 -13 q 52 -10 57 -13 l 29 8 m 255 221 q 247 205 247 211 q 255 196 247 200 q 351 130 292 177 q 377 122 362 122 q 411 136 392 122 q 471 298 471 181 q 444 434 471 368 q 437 441 440 441 q 430 437 434 441 l 255 221 m 247 309 q 250 301 247 301 q 259 307 253 301 l 401 483 q 406 495 406 489 q 402 507 406 501 q 341 617 357 567 q 326 636 336 636 q 308 633 317 636 q 260 620 291 627 q 247 604 247 617 l 247 309 "},"Ä":{"x_min":21.703125,"x_max":1066.171875,"ha":1066,"o":"m 747 1126 q 777 1195 747 1174 q 840 1216 807 1216 q 909 1155 909 1216 q 866 1072 909 1111 q 796 1034 823 1034 q 760 1070 772 1034 q 747 1126 747 1105 m 496 1126 q 526 1195 496 1174 q 589 1216 556 1216 q 658 1155 658 1216 q 615 1072 658 1111 q 545 1034 572 1034 q 509 1070 521 1034 q 496 1126 496 1105 m 21 666 q 83 851 21 761 q 346 997 183 997 q 594 902 509 997 q 671 686 671 817 q 398 275 671 491 q 382 253 382 262 q 412 237 382 241 q 522 165 465 229 q 635 100 578 100 q 704 134 672 100 q 773 309 773 208 l 773 797 q 752 822 773 822 q 731 839 731 822 q 749 862 731 857 q 991 990 868 893 q 1010 997 1001 997 q 1026 981 1026 997 q 1015 960 1026 970 q 927 803 927 885 l 927 204 q 981 101 927 101 q 1028 130 1000 101 q 1048 139 1038 139 q 1066 122 1066 139 q 1058 105 1066 113 l 978 23 q 897 -13 941 -13 q 780 103 795 -13 q 764 129 777 129 q 732 109 752 129 q 514 -13 613 -13 q 362 66 432 -13 q 246 147 293 147 q 202 132 224 147 q 183 126 193 126 q 167 143 167 126 q 180 163 167 154 q 518 600 518 381 q 448 788 518 710 q 255 894 354 894 q 115 830 157 894 q 80 726 80 778 q 202 594 80 644 q 333 465 333 540 q 255 336 333 414 q 238 327 246 327 q 219 347 219 327 q 229 364 219 355 q 247 397 247 380 q 154 475 247 436 q 21 666 21 531 m 991 990 l 991 990 "},"ř":{"x_min":10.171875,"x_max":455.765625,"ha":484,"o":"m 433 927 q 425 912 433 920 l 256 727 q 244 720 250 720 q 235 731 239 720 q 75 913 203 829 q 65 928 65 920 q 79 941 65 941 q 273 871 150 941 q 299 862 289 862 q 320 866 310 862 q 401 931 353 880 q 418 941 410 941 q 433 927 433 941 m 10 562 q 21 583 10 568 q 102 714 72 655 q 118 726 108 726 q 133 714 128 726 q 155 695 139 703 q 241 594 223 660 q 246 587 243 587 q 254 592 250 587 l 365 719 q 377 726 371 726 q 387 717 382 726 l 451 594 q 455 579 455 587 q 449 565 455 572 l 376 481 q 364 474 370 474 q 354 483 359 474 l 301 583 q 294 590 298 590 q 286 585 290 590 l 259 553 q 247 524 247 540 l 247 180 q 294 131 247 131 q 343 164 314 131 l 368 193 q 383 202 376 202 q 399 187 399 202 q 391 172 399 182 l 366 144 q 262 -4 297 66 q 250 -13 257 -13 q 233 -4 242 -13 q 69 98 147 88 q 57 107 57 99 q 65 120 57 115 q 109 198 109 144 l 109 534 q 71 581 109 581 q 46 564 57 581 q 22 548 34 548 q 10 562 10 548 "},"N":{"x_min":76.640625,"x_max":1211.3125,"ha":1228,"o":"m 76 689 q 162 906 76 815 q 399 997 248 997 q 657 857 550 997 q 681 840 670 840 q 704 857 692 840 q 897 997 795 997 q 1116 805 1070 997 q 1171 697 1142 697 q 1182 700 1176 697 q 1193 704 1188 704 q 1211 683 1211 704 q 1198 666 1211 674 q 992 377 992 547 q 1031 211 992 281 q 1110 142 1071 142 q 1135 151 1126 142 q 1151 160 1144 160 q 1169 140 1169 160 q 1161 124 1169 131 l 1032 1 q 1001 -13 1017 -13 q 967 0 986 -13 q 850 268 850 82 q 1025 598 850 455 q 1037 617 1037 608 q 1019 635 1037 627 q 935 767 960 662 q 838 895 905 895 q 735 837 772 895 q 715 773 715 804 q 722 716 715 741 q 741 547 741 645 q 562 111 741 335 q 392 -13 463 -13 q 269 67 322 -13 q 202 127 231 127 q 181 116 190 127 q 163 105 172 105 q 145 123 145 105 q 152 141 145 132 q 306 248 239 248 q 424 167 373 248 q 491 108 462 108 q 532 133 511 108 q 622 428 622 242 q 494 767 622 615 q 312 864 412 864 q 163 817 212 864 q 114 689 114 771 q 231 559 114 559 q 284 564 255 559 q 336 570 312 570 q 470 403 470 570 q 451 378 470 378 q 432 403 432 378 q 368 444 432 444 q 311 438 344 444 q 251 432 278 432 q 76 689 76 432 "},"2":{"x_min":63.078125,"x_max":552.75,"ha":602,"o":"m 63 0 q 69 18 63 6 q 248 226 134 143 q 362 406 362 309 q 282 548 362 480 q 215 573 251 573 q 92 516 155 573 q 78 509 84 509 q 64 525 64 509 q 71 537 64 531 l 255 710 q 283 726 273 726 q 297 711 293 726 q 315 688 301 695 q 492 463 492 595 q 265 196 492 330 q 252 183 252 189 q 266 174 252 174 q 443 134 367 174 q 476 125 461 125 q 523 169 506 125 q 538 183 529 183 q 552 170 552 183 q 507 40 552 123 q 446 -13 477 -13 q 427 -8 436 -13 q 266 36 329 36 q 94 0 120 36 q 75 -13 84 -13 q 63 0 63 -13 "},"ü":{"x_min":9.6875,"x_max":643.828125,"ha":654,"o":"m 380 885 q 410 954 380 933 q 473 975 440 975 q 542 914 542 975 q 499 831 542 870 q 429 793 456 793 q 393 829 405 793 q 380 885 380 864 m 129 885 q 159 954 129 933 q 222 975 189 975 q 291 914 291 975 q 248 831 291 870 q 178 793 205 793 q 142 829 154 793 q 129 885 129 864 m 643 150 q 632 129 643 144 q 551 -1 580 57 q 535 -13 545 -13 q 520 -1 525 -13 q 498 17 514 9 q 411 118 430 51 q 404 128 408 128 q 396 124 400 128 l 254 -7 q 243 -13 248 -13 q 234 -7 238 -13 q 81 105 167 70 q 63 120 63 112 q 78 135 63 127 q 109 190 109 150 l 109 534 q 70 581 109 581 q 45 565 57 581 q 21 548 34 548 q 9 562 9 548 q 20 583 9 568 q 101 714 72 655 q 117 726 108 726 q 133 715 127 726 q 154 695 138 703 q 247 546 247 649 l 247 175 q 253 160 247 165 q 317 105 295 132 q 324 101 320 101 q 331 105 327 101 l 394 165 q 406 190 406 175 l 406 504 q 365 581 406 552 q 358 592 358 586 q 367 604 358 598 q 461 714 422 644 q 475 726 468 726 q 489 714 482 726 q 583 604 529 641 q 592 592 592 598 q 584 581 592 586 q 544 504 544 552 l 544 178 q 583 131 544 131 q 608 148 597 131 q 631 164 620 164 q 643 150 643 164 "},"Ó":{"x_min":52.21875,"x_max":1009.875,"ha":1056,"o":"m 356 1014 q 363 1026 356 1019 q 483 1239 473 1145 q 491 1251 485 1251 q 502 1246 495 1251 l 593 1180 q 600 1170 600 1175 q 596 1158 600 1164 q 446 1032 540 1084 q 371 999 386 999 q 356 1014 356 999 m 52 137 q 63 157 52 147 q 243 247 160 247 q 400 184 327 247 q 652 59 545 59 q 833 126 761 59 q 904 336 904 193 q 605 786 904 655 q 427 830 504 830 q 333 809 379 830 q 217 657 217 752 q 330 548 217 592 q 484 397 484 488 q 408 255 484 335 q 386 244 398 244 q 368 260 368 244 q 376 277 368 269 q 383 294 383 286 q 255 380 383 330 q 75 591 75 449 q 316 843 75 732 q 482 975 425 893 q 519 997 498 997 q 688 950 579 997 q 1009 459 1009 811 q 849 88 1009 240 q 526 -30 723 -30 q 268 54 373 -30 q 115 139 164 139 q 89 130 99 139 q 70 121 80 121 q 52 137 52 121 "},"Ÿ":{"x_min":2.03125,"x_max":1131.953125,"ha":1122,"o":"m 670 1126 q 700 1195 670 1174 q 763 1216 730 1216 q 832 1155 832 1216 q 789 1072 832 1111 q 719 1034 746 1034 q 683 1070 695 1034 q 670 1126 670 1105 m 419 1126 q 449 1195 419 1174 q 512 1216 479 1216 q 581 1155 581 1216 q 538 1072 581 1111 q 468 1034 495 1034 q 432 1070 444 1034 q 419 1126 419 1105 m 62 505 q 2 699 2 581 q 98 907 2 817 q 340 997 194 997 q 595 857 485 997 q 610 848 602 848 q 623 858 617 848 q 833 997 706 997 q 1035 805 985 997 q 1092 709 1060 709 q 1103 712 1097 709 q 1115 714 1109 714 q 1131 694 1131 714 q 1117 676 1131 683 q 948 491 948 600 q 990 375 948 436 q 1064 144 1064 263 q 933 -104 1064 24 q 579 -232 802 -232 q 222 -70 357 -232 q 212 -50 212 -58 q 231 -31 212 -35 q 249 -44 238 -30 q 538 -182 360 -182 q 806 -94 716 -182 q 895 88 895 -6 q 824 291 895 183 q 785 407 785 350 q 940 623 785 517 q 950 639 950 631 q 934 655 950 647 q 855 767 876 683 q 741 897 821 897 q 655 838 691 897 q 641 793 641 815 q 646 767 641 780 q 666 655 666 713 q 453 235 666 476 q 443 215 443 223 q 471 195 443 202 q 533 155 498 189 q 601 115 574 115 q 634 131 623 115 q 656 147 645 147 q 674 130 674 147 q 668 113 674 122 q 497 -13 586 -13 q 393 34 442 -13 q 315 82 343 82 q 283 71 295 82 q 262 61 271 61 q 245 78 245 61 q 257 99 245 88 q 523 538 523 335 q 436 761 523 655 q 265 853 361 853 q 119 794 170 853 q 68 662 68 734 q 114 531 68 590 q 241 472 161 472 q 364 510 322 472 q 384 520 375 520 q 403 501 403 520 q 392 482 403 493 q 226 429 330 429 q 62 505 122 429 m 1117 676 l 1117 676 "},"ų":{"x_min":10.171875,"x_max":646.34375,"ha":654,"o":"m 10 562 q 21 583 10 568 q 102 714 72 655 q 118 726 108 726 q 133 714 128 726 q 155 695 139 703 q 247 546 247 649 l 247 174 q 254 160 247 165 q 318 105 296 132 q 323 101 320 101 q 331 105 327 101 l 395 164 q 406 189 406 175 l 406 504 q 366 581 406 552 q 358 592 358 586 q 367 604 358 598 q 461 714 421 641 q 475 726 468 726 q 489 714 482 726 q 583 604 529 641 q 592 592 592 598 q 585 581 592 586 q 544 504 544 551 l 544 178 q 578 131 544 131 q 615 154 592 131 q 631 164 623 164 q 646 148 646 164 q 637 133 646 142 q 535 -64 535 31 q 545 -111 535 -94 q 578 -128 556 -128 q 611 -114 600 -128 q 629 -99 622 -99 q 644 -113 644 -99 q 637 -130 644 -120 q 562 -257 590 -197 q 543 -274 554 -274 q 525 -265 532 -274 q 505 -251 518 -256 q 424 -133 424 -223 q 488 6 424 -82 q 491 16 491 10 q 483 26 491 21 q 412 118 428 60 q 404 128 408 128 q 396 124 400 128 l 255 -8 q 244 -13 248 -13 q 235 -8 239 -13 q 82 105 181 64 q 63 120 63 112 q 79 134 63 127 q 109 190 109 149 l 109 534 q 71 581 109 581 q 46 564 57 581 q 22 548 34 548 q 10 562 10 548 "},"€":{"x_min":46.125,"x_max":925.09375,"ha":878,"o":"m 174 131 q 46 502 46 294 q 147 854 46 710 q 388 997 248 997 q 545 908 498 997 q 558 898 551 898 q 571 903 564 898 l 667 982 q 712 997 686 997 q 787 959 739 997 q 856 920 834 920 q 886 932 878 920 q 904 946 895 946 q 925 927 925 946 q 917 910 925 920 q 762 781 816 781 q 670 816 708 781 q 598 851 631 851 q 535 825 567 851 q 393 686 452 757 q 403 663 375 663 l 701 663 q 716 656 716 663 q 710 644 716 652 l 642 554 q 603 535 628 535 l 260 535 q 246 543 246 535 q 250 554 246 547 q 512 855 366 739 q 520 868 520 862 q 516 882 520 874 q 419 938 487 938 q 259 830 314 938 q 203 609 203 722 q 327 235 203 394 q 663 75 452 75 q 854 119 777 75 q 869 124 864 124 q 887 103 887 124 q 873 86 887 94 q 530 -30 685 -30 q 174 131 303 -30 m 309 333 q 314 344 309 337 l 383 435 q 421 454 397 454 l 701 454 q 716 446 716 454 q 710 435 716 442 l 642 344 q 603 325 628 325 l 324 325 q 309 333 309 325 "},"Ŭ":{"x_min":28.484375,"x_max":927.125,"ha":927,"o":"m 332 1201 q 344 1215 332 1215 q 363 1196 356 1215 q 515 1128 390 1128 q 667 1196 640 1128 q 686 1215 674 1215 q 698 1201 698 1215 q 697 1191 698 1196 q 515 1025 664 1025 q 333 1191 366 1025 q 332 1201 332 1196 m 28 143 q 40 162 28 154 q 233 419 233 291 q 159 579 233 494 q 84 760 84 664 q 164 927 84 857 q 323 997 244 997 q 438 964 403 997 q 473 891 473 931 q 455 828 473 851 q 425 805 438 805 q 409 822 409 805 q 421 844 409 831 q 432 881 432 857 q 409 925 432 906 q 343 945 387 945 q 268 915 299 945 q 236 828 236 886 q 309 686 236 770 q 383 522 383 602 q 245 273 383 404 q 231 249 231 259 q 265 239 231 239 q 378 169 318 239 q 496 100 438 100 q 565 134 533 100 q 634 309 634 208 l 634 797 q 613 822 634 822 q 592 839 592 822 q 610 862 592 857 q 852 990 729 893 q 871 997 862 997 q 887 981 887 997 q 876 960 887 970 q 788 803 788 882 l 788 204 q 842 101 788 101 q 889 130 861 101 q 909 139 899 139 q 927 122 927 139 q 918 105 927 113 l 838 23 q 758 -13 802 -13 q 641 103 656 -13 q 625 129 638 129 q 593 109 613 129 q 375 -13 474 -13 q 223 66 293 -13 q 107 147 154 147 q 63 132 85 147 q 44 126 54 126 q 28 143 28 126 "},"ĝ":{"x_min":46.125,"x_max":587.34375,"ha":649,"o":"m 177 775 q 185 790 177 782 l 354 975 q 366 982 360 982 q 375 971 371 982 q 535 789 407 873 q 545 774 545 782 q 531 761 545 761 q 337 831 460 761 q 311 840 321 840 q 290 836 300 840 q 209 771 257 822 q 192 761 200 761 q 177 775 177 761 m 152 52 q 46 314 46 151 q 184 576 46 477 q 312 715 267 636 q 326 726 318 726 q 346 714 340 726 q 564 579 379 652 q 581 565 581 573 q 568 548 581 558 q 498 395 498 493 q 553 156 498 296 q 587 0 587 69 q 384 -244 587 -176 q 277 -261 331 -261 q 85 -197 136 -261 q 59 -135 59 -164 q 77 -90 59 -105 q 122 -72 96 -72 q 223 -132 179 -72 q 348 -219 289 -219 q 375 -215 362 -219 q 460 -67 460 -183 q 417 123 460 14 q 409 132 414 132 q 400 128 404 132 l 222 -2 q 198 -13 206 -13 q 189 -1 189 -13 q 152 52 189 17 m 172 385 q 254 145 172 234 q 305 112 284 112 q 339 122 326 112 l 389 159 q 397 170 397 165 q 395 181 397 175 q 368 326 368 259 q 436 472 368 393 q 442 484 442 478 q 431 493 442 491 q 277 587 344 519 q 261 594 269 594 q 245 585 252 594 q 172 385 172 489 "},"ß":{"x_min":4.75,"x_max":656.515625,"ha":703,"o":"m 26 575 q 4 587 4 575 q 21 605 4 599 q 107 807 107 636 q 152 959 107 919 q 213 982 177 982 q 290 956 249 982 q 358 931 331 931 q 394 962 384 931 q 413 982 401 982 q 425 967 425 982 q 423 952 425 960 q 293 815 377 815 q 223 835 259 815 q 169 856 187 856 q 138 807 138 856 q 200 683 138 729 q 258 597 246 649 q 282 586 263 573 l 474 721 q 487 726 481 726 q 498 716 493 726 q 535 674 503 706 q 609 514 609 598 q 564 423 609 478 q 559 413 559 417 q 564 403 559 408 q 656 187 656 311 q 514 -75 656 62 q 268 -255 394 -191 q 256 -258 261 -258 q 242 -243 242 -258 q 253 -227 242 -234 q 522 162 522 -72 q 470 303 522 240 q 421 327 449 327 q 341 310 392 327 q 333 309 337 309 q 320 325 320 309 q 333 339 320 335 q 430 394 377 355 q 479 491 479 431 q 440 574 479 538 q 382 598 413 598 q 318 575 352 598 l 279 547 q 261 514 262 535 q 193 -252 255 282 q 180 -276 191 -276 q 166 -252 169 -276 q 98 560 98 328 q 84 575 98 575 l 26 575 "},"s":{"x_min":46.125,"x_max":577.84375,"ha":591,"o":"m 166 257 q 46 391 46 302 q 132 580 46 480 q 257 714 219 680 q 281 726 271 726 q 302 709 291 726 q 367 659 318 684 q 453 634 416 634 q 512 659 491 634 q 533 706 533 684 q 487 797 533 759 q 385 836 441 836 q 310 823 345 836 q 295 820 303 820 q 281 833 281 819 q 297 851 281 844 q 385 866 339 866 q 517 813 456 866 q 577 681 577 760 q 481 537 577 602 q 430 495 446 514 l 417 479 q 412 466 412 472 q 423 455 412 460 q 544 317 544 402 q 457 132 544 231 q 333 -1 370 32 q 308 -13 319 -13 q 287 3 298 -13 q 224 52 270 31 q 113 88 151 88 q 95 85 103 88 q 79 82 87 82 q 66 86 71 82 q 61 94 61 90 q 66 106 61 99 l 172 233 q 177 246 177 240 q 166 257 177 252 m 127 491 q 237 374 127 424 q 268 367 252 367 q 299 385 284 367 l 378 480 q 387 498 387 490 q 373 511 387 506 q 231 581 290 535 q 204 592 218 592 q 154 559 182 592 q 127 491 127 526 m 211 232 q 202 213 202 222 q 217 201 202 205 q 358 130 300 177 q 385 120 371 120 q 435 153 407 120 q 463 221 463 186 q 353 338 463 285 q 322 345 338 345 q 290 327 305 345 l 211 232 "},"Ű":{"x_min":28.484375,"x_max":927.125,"ha":927,"o":"m 634 1014 q 641 1026 634 1019 q 761 1239 751 1145 q 769 1251 763 1251 q 780 1246 773 1251 l 871 1180 q 878 1170 878 1175 q 874 1158 878 1164 q 724 1032 818 1084 q 649 999 664 999 q 634 1014 634 999 m 436 1014 q 443 1026 436 1019 q 563 1239 553 1145 q 571 1251 565 1251 q 582 1246 575 1251 l 673 1180 q 680 1170 680 1175 q 676 1158 680 1164 q 526 1032 620 1084 q 451 999 466 999 q 436 1014 436 999 m 28 143 q 40 162 28 154 q 233 419 233 291 q 159 579 233 494 q 84 760 84 664 q 164 927 84 857 q 323 997 244 997 q 438 964 403 997 q 473 891 473 931 q 455 828 473 851 q 425 805 438 805 q 409 822 409 805 q 421 844 409 831 q 432 881 432 857 q 409 925 432 906 q 343 945 387 945 q 268 915 299 945 q 236 828 236 886 q 309 686 236 770 q 383 522 383 602 q 245 273 383 404 q 231 249 231 259 q 265 239 231 239 q 378 169 318 239 q 496 100 438 100 q 565 134 533 100 q 634 309 634 208 l 634 797 q 613 822 634 822 q 592 839 592 822 q 610 862 592 857 q 852 990 729 893 q 871 997 862 997 q 887 981 887 997 q 876 960 887 970 q 788 803 788 882 l 788 204 q 842 101 788 101 q 889 130 861 101 q 909 139 899 139 q 927 122 927 139 q 918 105 927 113 l 838 23 q 758 -13 802 -13 q 641 103 656 -13 q 625 129 638 129 q 593 109 613 129 q 375 -13 474 -13 q 223 66 293 -13 q 107 147 154 147 q 63 132 85 147 q 44 126 54 126 q 28 143 28 126 "},"?":{"x_min":43.40625,"x_max":440.84375,"ha":456,"o":"m 43 813 q 50 825 43 818 l 200 965 q 228 982 219 982 q 242 966 238 981 q 260 944 246 951 q 440 701 440 851 q 343 516 440 594 q 240 339 246 437 q 226 320 238 320 q 214 364 214 320 q 263 512 214 442 q 312 658 311 581 q 227 803 312 735 q 146 837 185 837 q 71 803 106 837 q 56 796 65 796 q 43 813 43 796 m 130 83 q 120 94 120 88 q 130 105 120 100 q 217 191 189 133 q 227 202 221 202 q 238 191 234 202 q 325 105 267 132 q 335 94 335 100 q 325 83 335 88 q 238 -3 265 54 q 227 -13 234 -13 q 217 -3 221 -13 q 130 83 188 56 "},"c":{"x_min":46.125,"x_max":477.46875,"ha":517,"o":"m 46 370 q 227 672 46 594 q 365 713 322 713 q 372 708 370 713 l 442 533 q 443 526 443 529 q 433 513 443 517 l 333 473 q 326 472 330 472 q 314 482 318 472 l 252 638 q 244 644 249 644 q 240 644 242 644 q 174 436 174 617 q 210 232 174 301 q 360 115 273 115 q 449 143 395 115 q 463 147 459 147 q 477 131 477 147 q 465 117 477 124 q 267 -4 364 61 q 247 -13 255 -13 q 235 2 240 -13 q 215 29 231 18 q 46 370 46 139 "},"Ņ":{"x_min":76.640625,"x_max":1211.3125,"ha":1228,"o":"m 618 -55 q 608 -45 608 -51 q 618 -34 608 -39 q 705 51 678 -4 q 715 62 709 62 q 726 51 722 62 q 813 -34 755 -6 q 820 -43 820 -38 q 726 -274 820 -130 q 692 -308 705 -308 q 683 -298 683 -308 q 687 -285 683 -292 q 717 -186 717 -229 q 618 -55 717 -97 m 76 689 q 162 906 76 815 q 399 997 248 997 q 657 857 550 997 q 681 840 670 840 q 704 857 692 840 q 897 997 795 997 q 1116 805 1070 997 q 1171 697 1142 697 q 1182 700 1176 697 q 1193 704 1188 704 q 1211 683 1211 704 q 1198 666 1211 674 q 992 377 992 547 q 1031 211 992 281 q 1110 142 1071 142 q 1135 151 1126 142 q 1151 160 1144 160 q 1169 140 1169 160 q 1161 124 1169 131 l 1032 1 q 1001 -13 1017 -13 q 967 0 986 -13 q 850 268 850 82 q 1025 598 850 455 q 1037 617 1037 608 q 1019 635 1037 627 q 935 767 960 662 q 838 895 905 895 q 735 837 772 895 q 715 773 715 804 q 722 716 715 741 q 741 547 741 645 q 562 111 741 335 q 392 -13 463 -13 q 269 67 322 -13 q 202 127 231 127 q 181 116 190 127 q 163 105 172 105 q 145 123 145 105 q 152 141 145 132 q 306 248 239 248 q 424 167 373 248 q 491 108 462 108 q 532 133 511 108 q 622 428 622 242 q 494 767 622 615 q 312 864 412 864 q 163 817 212 864 q 114 689 114 771 q 231 559 114 559 q 284 564 255 559 q 336 570 312 570 q 470 403 470 570 q 451 378 470 378 q 432 403 432 378 q 368 444 432 444 q 311 438 344 444 q 251 432 278 432 q 76 689 76 432 "},"¶":{"x_min":46.125,"x_max":573.09375,"ha":610,"o":"m 142 305 q 46 527 46 389 q 142 749 46 665 q 348 848 239 834 q 368 870 368 851 l 368 887 q 385 902 368 902 l 404 902 q 420 887 420 902 l 420 868 q 440 848 420 850 q 453 846 448 847 q 461 845 459 845 q 474 862 474 845 l 474 887 q 489 902 474 902 l 510 902 q 524 887 524 902 l 524 849 q 543 826 524 830 q 573 803 573 818 q 554 784 573 784 q 544 786 549 784 q 535 787 539 787 q 524 772 524 787 l 524 282 q 535 267 524 267 q 544 269 539 267 q 554 270 549 270 q 573 252 573 270 q 543 229 573 236 q 524 205 524 224 l 524 80 q 510 65 524 65 l 489 65 q 474 80 474 65 l 474 193 q 461 209 474 209 q 453 208 459 209 q 440 206 448 207 q 420 186 420 204 l 420 80 q 404 65 420 65 l 385 65 q 368 80 368 65 l 368 185 q 348 206 368 204 q 142 305 239 221 m 257 690 q 230 527 230 626 q 257 365 230 429 q 349 269 284 301 q 361 266 356 266 q 368 282 368 266 l 368 772 q 361 788 368 788 q 349 785 356 788 q 257 690 284 754 m 420 270 q 438 251 420 251 q 457 252 448 251 q 474 271 474 253 l 474 783 q 457 803 474 801 q 438 803 448 803 q 420 784 420 803 l 420 270 "},"Ī":{"x_min":73.25,"x_max":854.5625,"ha":898,"o":"m 261 1082 l 261 1151 q 276 1166 261 1166 l 613 1166 q 628 1151 628 1166 l 628 1082 q 613 1066 628 1066 l 276 1066 q 261 1082 261 1066 m 73 166 q 84 185 73 174 q 258 269 183 269 q 415 155 333 269 q 572 40 497 40 q 698 90 647 40 q 732 166 732 122 q 632 352 732 242 q 563 513 563 427 q 659 699 563 598 q 670 716 670 710 q 648 726 670 726 q 501 800 562 726 q 357 874 440 874 q 221 816 274 874 q 169 689 169 758 q 210 568 169 620 q 323 516 251 516 q 434 545 394 516 q 453 553 444 553 q 471 535 471 553 q 456 514 471 525 q 310 474 403 474 q 160 538 217 474 q 103 718 103 602 q 200 916 103 834 q 437 997 298 997 q 652 906 576 997 q 783 815 728 815 q 818 826 802 815 q 835 832 828 832 q 854 811 854 832 q 840 794 854 803 q 708 613 708 713 q 780 464 708 541 q 851 301 851 386 q 725 63 851 188 q 475 -30 629 -30 q 250 69 321 -30 q 139 168 179 168 q 111 158 122 168 q 90 148 100 148 q 73 166 73 148 "},"(":{"x_min":93.59375,"x_max":392.015625,"ha":345,"o":"m 199 -146 q 93 353 93 18 q 199 852 93 687 q 373 982 282 982 q 392 967 392 982 q 366 950 392 957 q 281 859 303 933 q 231 353 231 689 q 281 -153 231 16 q 366 -244 303 -227 q 392 -261 392 -251 q 373 -276 392 -276 q 199 -146 282 -276 "},"­":{"x_min":59,"x_max":423.890625,"ha":483,"o":"m 59 231 q 60 238 59 234 l 82 310 q 103 325 87 325 l 360 325 q 373 317 373 325 q 371 310 373 314 l 349 238 q 328 223 344 223 l 71 223 q 59 231 59 223 m 109 395 q 111 402 109 398 l 133 474 q 153 489 138 489 l 411 489 q 423 480 423 489 q 422 474 423 478 l 400 402 q 379 387 395 387 l 122 387 q 109 395 109 387 "},"Ħ":{"x_min":-38.65625,"x_max":936.625,"ha":983,"o":"m -38 115 q -26 139 -38 126 q 126 221 56 221 q 256 159 195 221 q 361 96 317 96 q 404 114 387 96 q 422 158 422 132 q 247 425 422 243 q 191 499 208 467 q 180 508 187 508 q 168 504 173 508 l 113 465 q 103 461 108 461 q 93 468 98 461 l 80 486 q 77 497 77 491 q 84 507 77 502 l 149 554 q 160 575 160 561 q 160 582 160 578 q 154 636 154 615 q 277 873 154 750 q 481 997 400 997 q 621 936 562 997 q 708 876 680 876 q 728 884 720 876 q 747 892 736 892 q 763 876 763 892 q 753 855 763 865 q 598 771 670 771 q 471 828 526 771 q 378 884 416 884 q 305 847 341 884 q 269 758 269 811 q 290 678 269 721 q 302 667 295 667 q 315 672 308 667 l 393 727 q 403 731 398 731 q 413 724 408 731 l 425 706 q 429 695 429 701 q 422 685 429 690 l 343 629 q 333 615 333 622 q 338 602 333 609 q 397 536 366 567 q 412 529 404 529 q 428 535 419 529 l 683 718 q 707 726 695 726 q 732 712 719 726 q 936 309 936 497 q 464 -164 936 -37 q 446 -166 454 -166 q 427 -149 427 -166 q 454 -127 427 -134 q 773 239 773 -48 q 600 584 773 411 q 583 593 592 593 q 564 586 574 593 l 450 504 q 441 491 441 498 q 446 477 441 484 q 524 276 524 370 q 435 91 524 181 q 249 -13 330 -13 q 105 50 168 -13 q 14 115 43 115 q -3 107 4 115 q -21 99 -11 99 q -38 115 -38 99 "},":":{"x_min":63.078125,"x_max":278.75,"ha":301,"o":"m 73 567 q 63 578 63 572 q 73 589 63 584 q 160 675 132 617 q 170 686 164 686 q 181 675 177 686 q 268 589 210 616 q 278 578 278 584 q 268 567 278 572 q 181 480 208 538 q 170 470 177 470 q 160 480 164 470 q 73 567 131 540 m 73 83 q 63 94 63 88 q 73 105 63 100 q 160 191 132 133 q 170 202 164 202 q 181 191 177 202 q 268 105 210 132 q 278 94 278 100 q 268 83 278 88 q 181 -3 208 54 q 170 -13 177 -13 q 160 -3 164 -13 q 73 83 131 56 "},"Û":{"x_min":28.484375,"x_max":927.125,"ha":927,"o":"m 338 1043 q 349 1058 338 1051 q 509 1240 476 1142 q 518 1251 512 1251 q 530 1244 524 1251 l 699 1059 q 706 1044 706 1051 q 691 1030 706 1030 q 675 1040 684 1030 q 593 1105 626 1091 q 573 1109 583 1109 q 547 1100 562 1109 q 353 1030 423 1030 q 338 1043 338 1030 m 28 143 q 40 162 28 154 q 233 419 233 291 q 159 579 233 494 q 84 760 84 664 q 164 927 84 857 q 323 997 244 997 q 438 964 403 997 q 473 891 473 931 q 455 828 473 851 q 425 805 438 805 q 409 822 409 805 q 421 844 409 831 q 432 881 432 857 q 409 925 432 906 q 343 945 387 945 q 268 915 299 945 q 236 828 236 886 q 309 686 236 770 q 383 522 383 602 q 245 273 383 404 q 231 249 231 259 q 265 239 231 239 q 378 169 318 239 q 496 100 438 100 q 565 134 533 100 q 634 309 634 208 l 634 797 q 613 822 634 822 q 592 839 592 822 q 610 862 592 857 q 852 990 729 893 q 871 997 862 997 q 887 981 887 997 q 876 960 887 970 q 788 803 788 882 l 788 204 q 842 101 788 101 q 889 130 861 101 q 909 139 899 139 q 927 122 927 139 q 918 105 927 113 l 838 23 q 758 -13 802 -13 q 641 103 656 -13 q 625 129 638 129 q 593 109 613 129 q 375 -13 474 -13 q 223 66 293 -13 q 107 147 154 147 q 63 132 85 147 q 44 126 54 126 q 28 143 28 126 "},"ś":{"x_min":46.125,"x_max":544.609375,"ha":591,"o":"m 166 257 q 46 391 46 302 q 132 580 46 480 q 257 714 219 680 q 281 726 271 726 q 302 709 291 726 q 366 659 320 681 q 476 624 439 624 q 495 627 486 624 q 510 630 503 630 q 523 626 518 630 q 529 617 529 622 q 523 606 529 613 l 417 479 q 412 466 412 473 q 423 455 412 460 q 544 316 544 400 q 457 132 544 231 q 333 -1 370 32 q 308 -13 319 -13 q 287 3 298 -13 q 224 52 270 31 q 113 88 151 88 q 95 85 103 88 q 79 82 87 82 q 66 86 71 82 q 61 94 61 90 q 66 106 61 99 l 172 233 q 177 245 177 238 q 166 257 177 252 m 127 491 q 237 374 127 425 q 268 367 252 367 q 299 385 284 367 l 378 480 q 387 498 387 490 q 373 511 387 507 q 231 581 290 535 q 204 592 218 592 q 154 559 182 592 q 127 491 127 526 m 211 232 q 202 213 202 222 q 217 201 202 205 q 358 130 300 177 q 385 120 371 120 q 435 153 407 120 q 463 221 463 186 q 353 338 463 285 q 322 345 338 345 q 290 327 305 345 l 211 232 m 123 745 q 130 757 123 750 q 250 970 240 876 q 258 982 252 982 q 269 977 262 982 l 360 911 q 367 901 367 906 q 363 889 367 895 q 213 763 307 815 q 138 730 153 730 q 123 745 123 730 "}}}
